NewsTextura-144pt.ufo
<glyph name="exclam" format="2">
  <advance width="213"/>
  <unicode hex="0021"/>
  <note>
exclam
</note>
  <outline>
    <contour>
      <point x="106.67" y="170.35" type="line"/>
      <point x="16.79" y="80.47" type="line"/>
      <point x="108.14" y="-10.88" type="line"/>
      <point x="198.02" y="79" type="line"/>
    </contour>
    <contour>
      <point x="54.94" y="590" type="curve" smooth="yes"/>
      <point x="100.94" y="212" type="line"/>
      <point x="128.94" y="212" type="line"/>
      <point x="171.94" y="766.75" type="line"/>
      <point x="152.77" y="766.75" type="line"/>
      <point x="15.01" y="678.11" type="line"/>
      <point x="15.01" y="663.73" type="line"/>
      <point x="23.54" y="663.88"/>
      <point x="32.01" y="660.33"/>
      <point x="38.07" y="654.33" type="curve" smooth="yes"/>
      <point x="42.09" y="650.36"/>
      <point x="45.08" y="645.41"/>
      <point x="47.15" y="640.15" type="curve" smooth="yes"/>
      <point x="49.22" y="634.89"/>
      <point x="50.41" y="629.32"/>
      <point x="51.23" y="623.72" type="curve" smooth="yes"/>
      <point x="52.87" y="612.53"/>
      <point x="53.58" y="601.23"/>
    </contour>
  </outline>
</glyph>
<glyph name="dollar" format="2">
  <advance width="653"/>
  <unicode hex="0024"/>
  <note>
dollar
</note>
  <outline>
    <contour>
      <point x="222.01" y="712.99" type="curve" smooth="yes"/>
      <point x="65.41" y="595" type="line"/>
      <point x="65.41" y="394" type="line"/>
      <point x="205.24" y="302.61" type="line"/>
      <point x="196.09" y="294.44" type="line" smooth="yes"/>
      <point x="181" y="280.97"/>
      <point x="166.14" y="267.25"/>
      <point x="151.76" y="253.02" type="curve" smooth="yes"/>
      <point x="127.35" y="228.85"/>
      <point x="103.58" y="203.96"/>
      <point x="81.92" y="177.29" type="curve" smooth="yes"/>
      <point x="60.26" y="150.63"/>
      <point x="40.97" y="121.68"/>
      <point x="28.31" y="89.75" type="curve" smooth="yes"/>
      <point x="13.32" y="51.94"/>
      <point x="8.22" y="10.1"/>
      <point x="15.01" y="-30.01" type="curve"/>
      <point x="47.01" y="-15.01" type="line"/>
      <point x="43.06" y="4.89"/>
      <point x="42.76" y="25.44"/>
      <point x="45.8" y="45.5" type="curve"/>
      <point x="48.56" y="50.32"/>
      <point x="52.44" y="54.5"/>
      <point x="56.89" y="57.85" type="curve" smooth="yes"/>
      <point x="62.86" y="62.34"/>
      <point x="69.8" y="65.4"/>
      <point x="76.91" y="67.7" type="curve" smooth="yes"/>
      <point x="103.94" y="76.44"/>
      <point x="132.65" y="79.21"/>
      <point x="161.05" y="79.99" type="curve" smooth="yes"/>
      <point x="184.66" y="80.64"/>
      <point x="208.36" y="77.46"/>
      <point x="230.91" y="70.45" type="curve" smooth="yes"/>
      <point x="248.75" y="64.9"/>
      <point x="265.88" y="57.24"/>
      <point x="282" y="47.82" type="curve"/>
      <point x="282" y="-55.15" type="line"/>
      <point x="310" y="-55.15" type="line"/>
      <point x="310" y="28.95" type="line"/>
      <point x="322.8" y="19.1"/>
      <point x="334.71" y="8.09"/>
      <point x="345.57" y="-3.84" type="curve"/>
      <point x="362" y="6.52" type="line"/>
      <point x="362" y="-55.15" type="line"/>
      <point x="390" y="-55.15" type="line"/>
      <point x="390" y="24.17" type="line"/>
      <point x="619.74" y="169" type="line"/>
      <point x="619.74" y="420" type="line"/>
      <point x="596.76" y="438.99"/>
      <point x="571.94" y="455.76"/>
      <point x="545.74" y="470" type="curve" smooth="yes"/>
      <point x="521.93" y="482.94"/>
      <point x="496.99" y="493.78"/>
      <point x="471.3" y="502.37" type="curve"/>
      <point x="504.46" y="531.54"/>
      <point x="537.53" y="560.92"/>
      <point x="564.77" y="595.57" type="curve" smooth="yes"/>
      <point x="599.09" y="639.24"/>
      <point x="625.12" y="690.38"/>
      <point x="635.12" y="745.02" type="curve" smooth="yes"/>
      <point x="637.65" y="758.84"/>
      <point x="638.38" y="772.92"/>
      <point x="638.42" y="786.96" type="curve" smooth="yes"/>
      <point x="638.46" y="800.96" type="line"/>
      <point x="625.42" y="801" type="line"/>
      <point x="625.42" y="801" type="line"/>
      <point x="624.64" y="801" type="line"/>
      <point x="610.46" y="801.04" type="line"/>
      <point x="610.46" y="801" type="line"/>
      <point x="610.42" y="801" type="line" smooth="yes"/>
      <point x="608.9" y="786.69"/>
      <point x="604.57" y="772.68"/>
      <point x="597.75" y="760" type="curve" smooth="yes"/>
      <point x="583.69" y="733.87"/>
      <point x="558.71" y="713.96"/>
      <point x="530.24" y="705.59" type="curve" smooth="yes"/>
      <point x="501.77" y="697.22"/>
      <point x="470.88" y="700.55"/>
      <point x="442.75" y="710" type="curve" smooth="yes"/>
      <point x="424.69" y="716.07"/>
      <point x="407.49" y="724.38"/>
      <point x="390.01" y="731.96" type="curve"/>
      <point x="390.01" y="805.51" type="line"/>
      <point x="362.01" y="805.51" type="line"/>
      <point x="362.01" y="742.79" type="line"/>
      <point x="351.96" y="746.07"/>
      <point x="341.71" y="748.62"/>
      <point x="331.23" y="749.95" type="curve" smooth="yes"/>
      <point x="324.2" y="750.84"/>
      <point x="317.09" y="751.15"/>
      <point x="310.01" y="750.85" type="curve"/>
      <point x="310.01" y="805.5" type="line"/>
      <point x="282.01" y="805.5" type="line"/>
      <point x="282.01" y="746.44" type="line"/>
      <point x="278.89" y="745.57"/>
      <point x="275.81" y="744.56"/>
      <point x="272.77" y="743.43" type="curve" smooth="yes"/>
      <point x="254.21" y="736.52"/>
      <point x="237.83" y="724.91"/>
    </contour>
    <contour>
      <point x="282.01" y="333.6" type="line"/>
      <point x="282.01" y="196.19" type="line"/>
      <point x="251.02" y="200.9"/>
      <point x="219.47" y="201.01"/>
      <point x="188.75" y="194.99" type="curve" smooth="yes"/>
      <point x="156.74" y="188.72"/>
      <point x="125.99" y="175.57"/>
      <point x="99.68" y="156.38" type="curve"/>
      <point x="101.22" y="158.29"/>
      <point x="102.78" y="160.18"/>
      <point x="104.35" y="162.06" type="curve" smooth="yes"/>
      <point x="125.26" y="187.03"/>
      <point x="148.22" y="210.2"/>
      <point x="171.41" y="233.06" type="curve" smooth="yes"/>
      <point x="185.49" y="246.94"/>
      <point x="199.99" y="260.38"/>
      <point x="214.74" y="273.55" type="curve" smooth="yes"/>
    </contour>
    <contour>
      <point x="282.01" y="615.26" type="curve"/>
      <point x="282.01" y="408.96" type="line"/>
      <point x="196.42" y="467.99" type="line"/>
      <point x="196.42" y="643.99" type="line"/>
      <point x="215.42" y="652.99" type="line"/>
      <point x="236.47" y="638.52"/>
      <point x="258.76" y="625.83"/>
    </contour>
    <contour>
      <point x="310.01" y="190.66" type="curve"/>
      <point x="310.01" y="358.59" type="line"/>
      <point x="362.01" y="405.01" type="line"/>
      <point x="362.01" y="173.92" type="line"/>
      <point x="357.62" y="175.68"/>
      <point x="353.2" y="177.37"/>
      <point x="348.75" y="178.98" type="curve" smooth="yes"/>
      <point x="336.09" y="183.56"/>
      <point x="323.14" y="187.5"/>
    </contour>
    <contour>
      <point x="310.01" y="396.1" type="line"/>
      <point x="310.01" y="603.73" type="line"/>
      <point x="315.55" y="601.69"/>
      <point x="321.13" y="599.77"/>
      <point x="326.75" y="597.97" type="curve" smooth="yes"/>
      <point x="338.3" y="594.28"/>
      <point x="350.09" y="591.13"/>
      <point x="362.01" y="588.61" type="curve"/>
      <point x="362.01" y="442.52" type="line"/>
    </contour>
    <contour>
      <point x="545.37" y="616.42" type="curve"/>
      <point x="544.58" y="615.39"/>
      <point x="543.78" y="614.36"/>
      <point x="542.98" y="613.33" type="curve" smooth="yes"/>
      <point x="510.3" y="571.51"/>
      <point x="468.68" y="537.74"/>
      <point x="429.09" y="502.4" type="curve" smooth="yes"/>
      <point x="390.01" y="467.51" type="line"/>
      <point x="390.01" y="583.96" type="line"/>
      <point x="422.44" y="580.07"/>
      <point x="455.31" y="581.39"/>
      <point x="486.75" y="589.96" type="curve" smooth="yes"/>
      <point x="507.5" y="595.61"/>
      <point x="527.41" y="604.58"/>
    </contour>
    <contour>
      <point x="390.01" y="161.43" type="curve"/>
      <point x="390.01" y="398.22" type="line"/>
      <point x="488.75" y="349.96" type="line"/>
      <point x="488.75" y="119.96" type="line"/>
      <point x="469.75" y="110.96" type="line"/>
      <point x="445.06" y="130.54"/>
      <point x="418.3" y="147.56"/>
    </contour>
  </outline>
</glyph>
<glyph name="percent" format="2">
  <advance width="1005"/>
  <unicode hex="0025"/>
  <note>
percent
</note>
  <outline>
    <contour>
      <point x="480.75" y="543.05" type="curve" smooth="yes"/>
      <point x="477.53" y="586.71"/>
      <point x="459.66" y="630.09"/>
      <point x="426.78" y="663.51" type="curve" smooth="yes"/>
      <point x="393.9" y="696.93"/>
      <point x="344.93" y="719.14"/>
      <point x="294.01" y="720.18" type="curve" smooth="yes"/>
      <point x="267.11" y="720.73"/>
      <point x="240.12" y="715.58"/>
      <point x="215.86" y="705.57" type="curve" smooth="yes"/>
      <point x="191.61" y="695.56"/>
      <point x="170.14" y="680.77"/>
      <point x="152.87" y="663.03" type="curve" smooth="yes"/>
      <point x="118.34" y="627.57"/>
      <point x="100.79" y="581.04"/>
      <point x="99.69" y="534.82" type="curve" smooth="yes"/>
      <point x="98.55" y="487"/>
      <point x="114.92" y="438.28"/>
      <point x="149.48" y="400.78" type="curve" smooth="yes"/>
      <point x="166.76" y="382.03"/>
      <point x="188.56" y="366.27"/>
      <point x="213.43" y="355.51" type="curve" smooth="yes"/>
      <point x="238.29" y="344.75"/>
      <point x="266.17" y="339.09"/>
      <point x="294" y="339.49" type="curve" smooth="yes"/>
      <point x="322.11" y="339.9"/>
      <point x="350.02" y="346.48"/>
      <point x="374.63" y="358.16" type="curve" smooth="yes"/>
      <point x="399.24" y="369.83"/>
      <point x="420.51" y="386.49"/>
      <point x="437.06" y="406.02" type="curve" smooth="yes"/>
      <point x="470.15" y="445.07"/>
      <point x="484.3" y="494.84"/>
    </contour>
    <contour>
      <point x="291.38" y="687.31" type="curve" smooth="yes"/>
      <point x="306.16" y="687.69"/>
      <point x="320.96" y="683.64"/>
      <point x="333.02" y="676.31" type="curve" smooth="yes"/>
      <point x="345.08" y="668.97"/>
      <point x="354.34" y="658.53"/>
      <point x="360.49" y="646.99" type="curve" smooth="yes"/>
      <point x="372.8" y="623.91"/>
      <point x="372.86" y="597.59"/>
      <point x="372.86" y="572.2" type="curve" smooth="yes"/>
      <point x="372.86" y="480.01" type="line" smooth="yes"/>
      <point x="372.86" y="468.39"/>
      <point x="372.8" y="456.71"/>
      <point x="370.82" y="445.21" type="curve" smooth="yes"/>
      <point x="368.84" y="433.71"/>
      <point x="364.91" y="422.37"/>
      <point x="358.17" y="412.29" type="curve" smooth="yes"/>
      <point x="351.42" y="402.21"/>
      <point x="341.84" y="393.47"/>
      <point x="330.19" y="387.56" type="curve" smooth="yes"/>
      <point x="318.54" y="381.64"/>
      <point x="304.9" y="378.62"/>
      <point x="291.38" y="379.11" type="curve" smooth="yes"/>
      <point x="278.02" y="379.59"/>
      <point x="264.88" y="383.47"/>
      <point x="253.86" y="389.98" type="curve" smooth="yes"/>
      <point x="242.84" y="396.49"/>
      <point x="233.99" y="405.55"/>
      <point x="227.81" y="415.74" type="curve" smooth="yes"/>
      <point x="221.63" y="425.93"/>
      <point x="218.1" y="437.2"/>
      <point x="216.33" y="448.59" type="curve" smooth="yes"/>
      <point x="214.56" y="459.98"/>
      <point x="214.51" y="471.51"/>
      <point x="214.51" y="483" type="curve" smooth="yes"/>
      <point x="214.51" y="573.7" type="line" smooth="yes"/>
      <point x="214.51" y="598.22"/>
      <point x="214.59" y="623.58"/>
      <point x="226.07" y="646.03" type="curve" smooth="yes"/>
      <point x="231.81" y="657.26"/>
      <point x="240.45" y="667.51"/>
      <point x="251.78" y="674.96" type="curve" smooth="yes"/>
      <point x="263.11" y="682.42"/>
      <point x="277.11" y="686.92"/>
    </contour>
    <contour>
      <point x="725.8" y="719.84" type="line"/>
      <point x="658.76" y="719.84" type="line"/>
      <point x="262.85" y="6.2" type="line"/>
      <point x="332.85" y="6.2" type="line"/>
    </contour>
    <contour>
      <point x="900.73" y="212.89" type="curve" smooth="yes"/>
      <point x="897.51" y="256.55"/>
      <point x="879.64" y="299.93"/>
      <point x="846.76" y="333.35" type="curve" smooth="yes"/>
      <point x="813.88" y="366.77"/>
      <point x="764.91" y="388.98"/>
      <point x="713.99" y="390.02" type="curve" smooth="yes"/>
      <point x="687.09" y="390.57"/>
      <point x="660.1" y="385.42"/>
      <point x="635.84" y="375.41" type="curve" smooth="yes"/>
      <point x="611.59" y="365.4"/>
      <point x="590.12" y="350.61"/>
      <point x="572.85" y="332.87" type="curve" smooth="yes"/>
      <point x="538.32" y="297.41"/>
      <point x="520.77" y="250.88"/>
      <point x="519.67" y="204.66" type="curve" smooth="yes"/>
      <point x="518.53" y="156.84"/>
      <point x="534.9" y="108.12"/>
      <point x="569.46" y="70.62" type="curve" smooth="yes"/>
      <point x="586.74" y="51.87"/>
      <point x="608.54" y="36.11"/>
      <point x="633.41" y="25.35" type="curve" smooth="yes"/>
      <point x="658.27" y="14.59"/>
      <point x="686.15" y="8.93"/>
      <point x="713.98" y="9.33" type="curve" smooth="yes"/>
      <point x="742.09" y="9.74"/>
      <point x="770" y="16.32"/>
      <point x="794.61" y="28" type="curve" smooth="yes"/>
      <point x="819.22" y="39.67"/>
      <point x="840.49" y="56.33"/>
      <point x="857.04" y="75.86" type="curve" smooth="yes"/>
      <point x="890.13" y="114.91"/>
      <point x="904.28" y="164.68"/>
    </contour>
    <contour>
      <point x="711.36" y="357.15" type="curve" smooth="yes"/>
      <point x="726.14" y="357.53"/>
      <point x="740.94" y="353.48"/>
      <point x="753" y="346.15" type="curve" smooth="yes"/>
      <point x="765.06" y="338.81"/>
      <point x="774.32" y="328.37"/>
      <point x="780.47" y="316.83" type="curve" smooth="yes"/>
      <point x="792.78" y="293.75"/>
      <point x="792.84" y="267.43"/>
      <point x="792.84" y="242.04" type="curve" smooth="yes"/>
      <point x="792.84" y="149.85" type="line" smooth="yes"/>
      <point x="792.84" y="138.23"/>
      <point x="792.78" y="126.55"/>
      <point x="790.8" y="115.05" type="curve" smooth="yes"/>
      <point x="788.82" y="103.55"/>
      <point x="784.89" y="92.21"/>
      <point x="778.15" y="82.13" type="curve" smooth="yes"/>
      <point x="771.4" y="72.05"/>
      <point x="761.82" y="63.31"/>
      <point x="750.17" y="57.4" type="curve" smooth="yes"/>
      <point x="738.52" y="51.48"/>
      <point x="724.88" y="48.46"/>
      <point x="711.36" y="48.95" type="curve" smooth="yes"/>
      <point x="698" y="49.43"/>
      <point x="684.86" y="53.31"/>
      <point x="673.84" y="59.82" type="curve" smooth="yes"/>
      <point x="662.82" y="66.33"/>
      <point x="653.97" y="75.39"/>
      <point x="647.79" y="85.58" type="curve" smooth="yes"/>
      <point x="641.61" y="95.77"/>
      <point x="638.08" y="107.04"/>
      <point x="636.31" y="118.43" type="curve" smooth="yes"/>
      <point x="634.54" y="129.82"/>
      <point x="634.49" y="141.35"/>
      <point x="634.49" y="152.84" type="curve" smooth="yes"/>
      <point x="634.49" y="243.54" type="line" smooth="yes"/>
      <point x="634.49" y="268.06"/>
      <point x="634.57" y="293.42"/>
      <point x="646.05" y="315.87" type="curve" smooth="yes"/>
      <point x="651.79" y="327.1"/>
      <point x="660.43" y="337.35"/>
      <point x="671.76" y="344.8" type="curve" smooth="yes"/>
      <point x="683.09" y="352.26"/>
      <point x="697.09" y="356.76"/>
    </contour>
  </outline>
</glyph>
<glyph name="parenleft" format="2">
  <advance width="319"/>
  <unicode hex="0028"/>
  <note>
parenleft
</note>
  <outline>
    <contour>
      <point x="113.39" y="388.9" type="curve" smooth="yes"/>
      <point x="111.24" y="292.71"/>
      <point x="132.78" y="195.32"/>
      <point x="180.33" y="111.67" type="curve" smooth="yes"/>
      <point x="211.2" y="57.36"/>
      <point x="252.96" y="9.24"/>
      <point x="302.6" y="-28.69" type="curve"/>
      <point x="292.72" y="-45.38" type="line"/>
      <point x="210.07" y="-10.54"/>
      <point x="138.08" y="49.13"/>
      <point x="88.51" y="123.88" type="curve" smooth="yes"/>
      <point x="38.94" y="198.63"/>
      <point x="11.99" y="288.17"/>
      <point x="12.05" y="377.86" type="curve" smooth="yes"/>
      <point x="12.12" y="467.68"/>
      <point x="39.28" y="557.3"/>
      <point x="89.1" y="632.04" type="curve" smooth="yes"/>
      <point x="138.91" y="706.78"/>
      <point x="211.18" y="766.34"/>
      <point x="294.06" y="800.97" type="curve"/>
      <point x="303.94" y="784.28" type="line"/>
      <point x="254.38" y="746.26"/>
      <point x="212.64" y="698.16"/>
      <point x="181.67" y="643.92" type="curve" smooth="yes"/>
      <point x="137.58" y="566.71"/>
      <point x="115.37" y="477.79"/>
    </contour>
  </outline>
</glyph>
<glyph name="three" format="2">
  <advance width="630"/>
  <unicode hex="0033"/>
  <note>
three
</note>
  <outline>
    <contour>
      <point x="376" y="478.76" type="curve"/>
      <point x="535" y="572" type="line"/>
      <point x="554.4" y="715.67" type="line"/>
      <point x="153.64" y="714.34" type="line"/>
      <point x="72.56" y="545.17" type="line"/>
      <point x="93.44" y="535" type="line"/>
      <point x="104.98" y="548.93"/>
      <point x="120.71" y="559.22"/>
      <point x="137.93" y="564.75" type="curve" smooth="yes"/>
      <point x="155.15" y="570.28"/>
      <point x="173.51" y="570.85"/>
      <point x="191.6" y="570.83" type="curve" smooth="yes"/>
      <point x="447.49" y="570.66" type="line"/>
      <point x="141.96" y="382.99" type="line"/>
      <point x="173.46" y="359.99" type="line"/>
      <point x="203.31" y="377.11"/>
      <point x="237.81" y="386.07"/>
      <point x="272.22" y="385.49" type="curve" smooth="yes"/>
      <point x="313.01" y="384.81"/>
      <point x="353.62" y="370.45"/>
      <point x="385.09" y="344.49" type="curve" smooth="yes"/>
      <point x="410.54" y="323.49"/>
      <point x="429.8" y="295.07"/>
      <point x="439.78" y="263.62" type="curve" smooth="yes"/>
      <point x="449.76" y="232.17"/>
      <point x="450.45" y="197.88"/>
      <point x="441.99" y="165.99" type="curve" smooth="yes"/>
      <point x="431.97" y="128.2"/>
      <point x="409.14" y="94.01"/>
      <point x="378.38" y="69.87" type="curve" smooth="yes"/>
      <point x="347.63" y="45.73"/>
      <point x="309.14" y="31.69"/>
      <point x="270.08" y="29.99" type="curve" smooth="yes"/>
      <point x="208.61" y="27.32"/>
      <point x="146.66" y="56.27"/>
      <point x="109.08" y="104.99" type="curve"/>
      <point x="131.87" y="94.78"/>
      <point x="159.67" y="96.64"/>
      <point x="180.89" y="109.8" type="curve" smooth="yes"/>
      <point x="202.11" y="122.96"/>
      <point x="216.15" y="147.04"/>
      <point x="217.08" y="171.99" type="curve" smooth="yes"/>
      <point x="217.83" y="192.2"/>
      <point x="210.13" y="212.59"/>
      <point x="196.19" y="227.24" type="curve" smooth="yes"/>
      <point x="182.25" y="241.89"/>
      <point x="162.29" y="250.56"/>
      <point x="142.08" y="250.99" type="curve" smooth="yes"/>
      <point x="116.84" y="251.53"/>
      <point x="91.97" y="239.19"/>
      <point x="75.96" y="219.67" type="curve" smooth="yes"/>
      <point x="59.95" y="200.16"/>
      <point x="52.66" y="174.19"/>
      <point x="54.08" y="148.99" type="curve" smooth="yes"/>
      <point x="55.39" y="125.7"/>
      <point x="63.8" y="103.05"/>
      <point x="76.73" y="83.63" type="curve" smooth="yes"/>
      <point x="89.66" y="64.21"/>
      <point x="107.02" y="47.91"/>
      <point x="126.52" y="35.11" type="curve" smooth="yes"/>
      <point x="165.53" y="9.51"/>
      <point x="212.46" y="-2.33"/>
      <point x="259.08" y="-4.51" type="curve" smooth="yes"/>
      <point x="325.84" y="-7.63"/>
      <point x="393.68" y="8.1"/>
      <point x="451.43" y="41.73" type="curve" smooth="yes"/>
      <point x="509.18" y="75.36"/>
      <point x="556.3" y="129.55"/>
      <point x="573.99" y="193.99" type="curve" smooth="yes"/>
      <point x="585.65" y="236.47"/>
      <point x="584.27" y="282.44"/>
      <point x="569.97" y="324.1" type="curve" smooth="yes"/>
      <point x="555.67" y="365.76"/>
      <point x="528.71" y="402.87"/>
      <point x="493.99" y="429.99" type="curve" smooth="yes"/>
      <point x="460.03" y="456.52"/>
      <point x="418.73" y="473.22"/>
    </contour>
  </outline>
</glyph>
<glyph name="four" format="2">
  <advance width="630"/>
  <unicode hex="0034"/>
  <note>
four
</note>
  <outline>
    <contour>
      <point x="496.64" y="336.08" type="curve"/>
      <point x="496.63" y="465.81"/>
      <point x="496.63" y="595.55"/>
      <point x="496.63" y="725.29" type="curve"/>
      <point x="468.91" y="725.29"/>
      <point x="441.19" y="725.29"/>
      <point x="413.47" y="725.29" type="curve"/>
      <point x="413.47" y="725.29" type="line"/>
      <point x="21.22" y="305" type="line"/>
      <point x="21.39" y="223.84" type="line"/>
      <point x="334.48" y="223.84" type="line"/>
      <point x="334.48" y="10" type="line"/>
      <point x="496.64" y="10.01" type="line"/>
      <point x="496.64" y="81.29"/>
      <point x="496.64" y="152.56"/>
      <point x="496.64" y="223.84" type="curve"/>
      <point x="576.72" y="223.84" type="line"/>
      <point x="615.81" y="366.84" type="line"/>
      <point x="595.48" y="377.01" type="line"/>
      <point x="575.75" y="359.96"/>
      <point x="551.89" y="347.85"/>
      <point x="526.64" y="341.34" type="curve" smooth="yes"/>
      <point x="516.78" y="338.8"/>
      <point x="506.75" y="337.15"/>
    </contour>
    <contour>
      <point x="108.48" y="334.18" type="line"/>
      <point x="334.48" y="582.99" type="line"/>
      <point x="334.48" y="334.18" type="line"/>
    </contour>
  </outline>
</glyph>
<glyph name="equal" format="2">
  <advance width="697"/>
  <unicode hex="003D"/>
  <note>
equal
</note>
  <outline>
    <contour>
      <point x="163.32" y="540" type="line"/>
      <point x="66.17" y="433" type="line"/>
      <point x="545.17" y="433" type="line"/>
      <point x="642.32" y="540" type="line"/>
    </contour>
    <contour>
      <point x="163.32" y="330" type="line"/>
      <point x="66.17" y="223" type="line"/>
      <point x="545.17" y="223" type="line"/>
      <point x="642.32" y="330" type="line"/>
    </contour>
  </outline>
</glyph>
<glyph name="greater" format="2">
  <advance width="425"/>
  <unicode hex="003E"/>
  <note>
greater
</note>
  <outline>
    <contour>
      <point x="25" y="545.1" type="line"/>
      <point x="330" y="386.6" type="line"/>
      <point x="330" y="378.6" type="line"/>
      <point x="25" y="220.1" type="line"/>
      <point x="104" y="69.6" type="line"/>
      <point x="124" y="79.6" type="line"/>
      <point x="107" y="116.6" type="line"/>
      <point x="391.33" y="270.93" type="line"/>
      <point x="378.57" y="306.68"/>
      <point x="372" y="344.64"/>
      <point x="372" y="382.6" type="curve" smooth="yes"/>
      <point x="372" y="420.56"/>
      <point x="378.57" y="458.51"/>
      <point x="391.33" y="494.27" type="curve"/>
      <point x="107" y="648.6" type="line"/>
      <point x="124" y="685.6" type="line"/>
      <point x="104" y="695.6" type="line"/>
    </contour>
  </outline>
</glyph>
<glyph name="question" format="2">
  <advance width="349"/>
  <unicode hex="003F"/>
  <note>
question
</note>
  <outline>
    <contour>
      <point x="110.88" y="170.35" type="line"/>
      <point x="21" y="80.47" type="line"/>
      <point x="112.35" y="-10.88" type="line"/>
      <point x="202.23" y="79" type="line"/>
    </contour>
    <contour>
      <point x="66.01" y="388" type="line"/>
      <point x="86" y="199" type="line"/>
      <point x="112" y="200" type="line"/>
      <point x="107.88" y="226.99"/>
      <point x="116.74" y="255.4"/>
      <point x="134.58" y="276.08" type="curve" smooth="yes"/>
      <point x="143.5" y="286.42"/>
      <point x="154.43" y="294.91"/>
      <point x="166.23" y="301.77" type="curve" smooth="yes"/>
      <point x="178.03" y="308.63"/>
      <point x="190.69" y="313.87"/>
      <point x="203.34" y="319" type="curve" smooth="yes"/>
      <point x="292.01" y="355" type="line"/>
      <point x="283.43" y="395.35"/>
      <point x="282.41" y="437.28"/>
      <point x="289.01" y="478" type="curve" smooth="yes"/>
      <point x="295.36" y="517.16"/>
      <point x="308.75" y="555.17"/>
      <point x="328.34" y="589.67" type="curve"/>
      <point x="104.01" y="744" type="line"/>
      <point x="121.01" y="781" type="line"/>
      <point x="101.01" y="791" type="line"/>
      <point x="22.01" y="640.5" type="line"/>
      <point x="267.01" y="482" type="line"/>
    </contour>
  </outline>
</glyph>
<glyph name="B" format="2">
  <advance width="855"/>
  <unicode hex="0042"/>
  <note>
B
</note>
  <outline>
    <contour>
      <point x="67.28" y="309.38" type="curve"/>
      <point x="86" y="309" type="line"/>
      <point x="82" y="352"/>
      <point x="112" y="367"/>
      <point x="135" y="367" type="curve" smooth="yes"/>
      <point x="174.27" y="367.2" type="line"/>
      <point x="174.27" y="299.33" type="line" smooth="yes"/>
      <point x="174" y="215"/>
      <point x="174" y="154"/>
      <point x="113.18" y="119.33" type="curve"/>
      <point x="122.51" y="95.33" type="line"/>
      <point x="191" y="116"/>
      <point x="303" y="167"/>
      <point x="303" y="294" type="curve" smooth="yes"/>
      <point x="303.26" y="406" type="line"/>
      <point x="303.33" y="552.48" type="line" smooth="yes"/>
      <point x="303" y="588"/>
      <point x="309" y="605"/>
      <point x="336.34" y="626.12" type="curve" smooth="yes"/>
      <point x="484.11" y="741.92" type="line"/>
      <point x="490.34" y="764.16" type="line"/>
      <point x="462" y="747"/>
      <point x="432" y="740"/>
      <point x="394" y="740" type="curve" smooth="yes"/>
      <point x="352" y="740"/>
      <point x="309" y="760"/>
      <point x="261.34" y="758.67" type="curve" smooth="yes"/>
      <point x="188" y="757"/>
      <point x="120" y="704"/>
      <point x="91.34" y="634.17" type="curve"/>
      <point x="114.84" y="634.17" type="line"/>
      <point x="122" y="658"/>
      <point x="150" y="678"/>
      <point x="175" y="678" type="curve" smooth="yes"/>
      <point x="236" y="677"/>
      <point x="256" y="653"/>
      <point x="319.02" y="655.35" type="curve"/>
      <point x="234.34" y="601.59" type="line" smooth="yes"/>
      <point x="191" y="574"/>
      <point x="174" y="556"/>
      <point x="174.22" y="505.02" type="curve" smooth="yes"/>
      <point x="174.23" y="479.05" type="line"/>
      <point x="114" y="476"/>
      <point x="52" y="442"/>
      <point x="52" y="370" type="curve" smooth="yes"/>
      <point x="52" y="350"/>
      <point x="53" y="335"/>
    </contour>
    <contour>
      <point x="68.77" y="-31.98" type="curve"/>
      <point x="93.06" y="-31.98" type="line"/>
      <point x="139" y="13"/>
      <point x="212" y="46"/>
      <point x="298" y="46" type="curve" smooth="yes"/>
      <point x="353" y="46"/>
      <point x="424.71" y="32.51"/>
      <point x="494.36" y="-3.81" type="curve"/>
      <point x="828.51" y="169.02" type="line"/>
      <point x="828.51" y="420.02" type="line"/>
      <point x="790" y="452"/>
      <point x="739" y="481"/>
      <point x="691.96" y="498.24" type="curve"/>
      <point x="816.35" y="585.52" type="line"/>
      <point x="654.6" y="775.25" type="line"/>
      <point x="535" y="736"/>
      <point x="428" y="660"/>
      <point x="350.85" y="560.53" type="curve"/>
      <point x="350.85" y="248.02" type="line" smooth="yes"/>
      <point x="351" y="215"/>
      <point x="345" y="186"/>
      <point x="323.68" y="155.29" type="curve"/>
      <point x="232" y="144"/>
      <point x="105" y="46"/>
    </contour>
    <contour>
      <point x="551.86" y="126.06" type="curve"/>
      <point x="551.86" y="156.83" type="line"/>
      <point x="697.52" y="230.37" type="line"/>
      <point x="697.52" y="120.03" type="line"/>
      <point x="615.77" y="82.03" type="line"/>
      <point x="596.36" y="99.24"/>
      <point x="574.84" y="114.03"/>
    </contour>
    <contour>
      <point x="551.86" y="293.91" type="line"/>
      <point x="551.86" y="427.77" type="line"/>
      <point x="595" y="413"/>
      <point x="646" y="386"/>
      <point x="683.31" y="360.27" type="curve"/>
    </contour>
    <contour>
      <point x="523.2" y="139.32" type="line"/>
      <point x="480" y="157"/>
      <point x="430" y="166"/>
      <point x="374.67" y="162.44" type="curve"/>
      <point x="451" y="231"/>
      <point x="484" y="256"/>
      <point x="483.86" y="350.54" type="curve" smooth="yes"/>
      <point x="483.86" y="406.54" type="line"/>
      <point x="483.86" y="612.31" type="line" smooth="yes"/>
      <point x="484" y="637"/>
      <point x="499" y="666"/>
      <point x="523.2" y="684.87" type="curve"/>
    </contour>
    <contour>
      <point x="551.87" y="188.95" type="line"/>
      <point x="551.87" y="261.8" type="line"/>
      <point x="697.53" y="335.34" type="line"/>
      <point x="697.53" y="262.49" type="line"/>
    </contour>
    <contour>
      <point x="551.87" y="690.79" type="line"/>
      <point x="684.87" y="534.22" type="line"/>
      <point x="551.87" y="434.93" type="line"/>
    </contour>
  </outline>
</glyph>
<glyph name="C" format="2">
  <advance width="748"/>
  <unicode hex="0043"/>
  <note>
C
</note>
  <outline>
    <contour>
      <point x="454" y="-17" type="curve" smooth="yes"/>
      <point x="580" y="-17"/>
      <point x="712" y="101"/>
      <point x="715.68" y="240.01" type="curve"/>
      <point x="696.51" y="240.01" type="line"/>
      <point x="658" y="163"/>
      <point x="584" y="109"/>
      <point x="499.62" y="97.41" type="curve"/>
      <point x="499.62" y="634.86" type="line"/>
      <point x="531" y="617"/>
      <point x="588" y="589"/>
      <point x="621.74" y="575.7" type="curve"/>
      <point x="740.68" y="699.93" type="line"/>
      <point x="732.5" y="709.57" type="line"/>
      <point x="700.95" y="683.39" type="line"/>
      <point x="646" y="701"/>
      <point x="583" y="731"/>
      <point x="531.74" y="769.04" type="curve"/>
      <point x="267.62" y="607.69" type="line"/>
      <point x="293.78" y="650.07"/>
      <point x="331" y="686"/>
      <point x="375" y="708" type="curve"/>
      <point x="365.68" y="722.86" type="line"/>
      <point x="208" y="669"/>
      <point x="93" y="513"/>
      <point x="93.18" y="358.01" type="curve" smooth="yes"/>
      <point x="93" y="144"/>
      <point x="234" y="-17"/>
    </contour>
    <contour>
      <point x="242.44" y="249.07" type="line"/>
      <point x="219" y="305"/>
      <point x="216" y="332"/>
      <point x="216" y="397" type="curve" smooth="yes"/>
      <point x="216" y="460"/>
      <point x="229" y="521"/>
      <point x="243.64" y="559.44" type="curve"/>
      <point x="297.26" y="592.2" type="line"/>
      <point x="297.26" y="272.42" type="line"/>
    </contour>
    <contour>
      <point x="253.74" y="224.87" type="curve"/>
      <point x="426.26" y="297.48" type="line"/>
      <point x="426.32" y="671.04" type="line"/>
      <point x="434.05" y="675.76" type="line"/>
      <point x="446.18" y="667.53"/>
      <point x="458.48" y="659.56"/>
      <point x="470.96" y="651.87" type="curve"/>
      <point x="470.96" y="95.08" type="line"/>
      <point x="379" y="93"/>
      <point x="297" y="143"/>
    </contour>
  </outline>
</glyph>
<glyph name="D" format="2">
  <advance width="787"/>
  <unicode hex="0044"/>
  <note>
D
</note>
  <outline>
    <contour>
      <point x="49" y="-31.5" type="curve"/>
      <point x="77.5" y="-31.5" type="line"/>
      <point x="133.38" y="19.52"/>
      <point x="205" y="46"/>
      <point x="285" y="46" type="curve" smooth="yes"/>
      <point x="344" y="46"/>
      <point x="402.5" y="24.92"/>
      <point x="450.5" y="-9.5" type="curve"/>
      <point x="700.5" y="128" type="line"/>
      <point x="749" y="227"/>
      <point x="766" y="294"/>
      <point x="766" y="428" type="curve" smooth="yes"/>
      <point x="766" y="601"/>
      <point x="674" y="740"/>
      <point x="508" y="740" type="curve" smooth="yes"/>
      <point x="209.5" y="740" type="line" smooth="yes"/>
      <point x="174" y="740"/>
      <point x="143" y="750"/>
      <point x="136" y="784.74" type="curve"/>
      <point x="114.5" y="785.49" type="line"/>
      <point x="107.94" y="760.67"/>
      <point x="104.21" y="735"/>
      <point x="104.8" y="709.34" type="curve" smooth="yes"/>
      <point x="106" y="657"/>
      <point x="124" y="618"/>
      <point x="177" y="617.99" type="curve" smooth="yes"/>
      <point x="316.3" y="617.99" type="line"/>
      <point x="237.2" y="566.49" type="line" smooth="yes"/>
      <point x="191" y="536"/>
      <point x="175" y="516"/>
      <point x="175.13" y="460.99" type="curve" smooth="yes"/>
      <point x="175.14" y="435.89" type="line"/>
      <point x="102" y="428"/>
      <point x="59" y="391"/>
      <point x="59" y="326" type="curve" smooth="yes"/>
      <point x="59" y="303"/>
      <point x="65" y="282"/>
      <point x="74.52" y="267.14" type="curve"/>
      <point x="93.65" y="267.14" type="line"/>
      <point x="94" y="315"/>
      <point x="113" y="325"/>
      <point x="175" y="325" type="curve"/>
      <point x="175" y="199"/>
      <point x="162" y="173"/>
      <point x="114.09" y="142.31" type="curve"/>
      <point x="123.42" y="118.33" type="line"/>
      <point x="216" y="141"/>
      <point x="304" y="210"/>
      <point x="304" y="309" type="curve" smooth="yes"/>
      <point x="304.24" y="507" type="line" smooth="yes"/>
      <point x="304" y="556"/>
      <point x="311" y="581"/>
      <point x="352.28" y="618" type="curve"/>
      <point x="384.69" y="618" type="line"/>
      <point x="347" y="577"/>
      <point x="340" y="531"/>
      <point x="339.78" y="471.01" type="curve" smooth="yes"/>
      <point x="339.71" y="291" type="line" smooth="yes"/>
      <point x="340" y="227"/>
      <point x="316" y="201"/>
      <point x="255.3" y="140.33" type="curve"/>
      <point x="167.69" y="112.91"/>
      <point x="91.73" y="49.78"/>
    </contour>
    <contour>
      <point x="448.71" y="144.11" type="curve"/>
      <point x="448.71" y="274.74" type="line"/>
      <point x="630.7" y="366.99" type="line"/>
      <point x="630" y="274"/>
      <point x="609" y="170"/>
      <point x="574.5" y="82.98" type="curve"/>
      <point x="537.31" y="111.71"/>
      <point x="494.17" y="132.31"/>
    </contour>
    <contour>
      <point x="448.71" y="415.73" type="line"/>
      <point x="449" y="618" type="line"/>
      <point x="546" y="618"/>
      <point x="590" y="569"/>
      <point x="613.67" y="499.1" type="curve"/>
    </contour>
    <contour>
      <point x="305.64" y="151.89" type="curve"/>
      <point x="350" y="200"/>
      <point x="368" y="231"/>
      <point x="367.71" y="290.99" type="curve" smooth="yes"/>
      <point x="367.78" y="470.98" type="line" smooth="yes"/>
      <point x="368" y="527"/>
      <point x="374" y="577"/>
      <point x="420.05" y="612.53" type="curve"/>
      <point x="420.05" y="150.34" type="line"/>
      <point x="399" y="154"/>
      <point x="375" y="156"/>
      <point x="356" y="156" type="curve" smooth="yes"/>
      <point x="341" y="156"/>
      <point x="322" y="154"/>
    </contour>
    <contour>
      <point x="448.71" y="306.89" type="line"/>
      <point x="448.71" y="383.63" type="line"/>
      <point x="621.37" y="470.89" type="line"/>
      <point x="625" y="455"/>
      <point x="629" y="418"/>
      <point x="630.1" y="398.84" type="curve"/>
    </contour>
  </outline>
</glyph>
<glyph name="F" format="2">
  <advance width="679"/>
  <unicode hex="0046"/>
  <note>
F
</note>
  <outline>
    <contour>
      <point x="104" y="472"/>
      <point x="60" y="428"/>
      <point x="60" y="365" type="curve" smooth="yes"/>
      <point x="60" y="345"/>
      <point x="65" y="320"/>
      <point x="75" y="302" type="curve"/>
      <point x="92" y="302" type="line"/>
      <point x="92" y="337"/>
      <point x="103" y="366"/>
      <point x="150" y="366" type="curve" smooth="yes"/>
      <point x="198" y="366" type="line"/>
      <point x="198" y="137"/>
      <point x="193" y="119"/>
      <point x="163" y="71" type="curve"/>
      <point x="111" y="67"/>
      <point x="50" y="29"/>
      <point x="50" y="-41" type="curve" smooth="yes"/>
      <point x="50" y="-117"/>
      <point x="90" y="-165"/>
      <point x="175" y="-165" type="curve"/>
      <point x="175" y="-139" type="line"/>
      <point x="147" y="-133"/>
      <point x="129" y="-112"/>
      <point x="129" y="-88" type="curve" smooth="yes"/>
      <point x="129" y="-68"/>
      <point x="147" y="-57"/>
      <point x="168" y="-57" type="curve" smooth="yes"/>
      <point x="236" y="-56" type="line" smooth="yes"/>
      <point x="302" y="-55"/>
      <point x="455" y="132"/>
      <point x="517" y="221" type="curve"/>
      <point x="517" y="364" type="line"/>
      <point x="603" y="364" type="line"/>
      <point x="717" y="481" type="line"/>
      <point x="517" y="481" type="line"/>
      <point x="517" y="664" type="line"/>
      <point x="557" y="635"/>
      <point x="615" y="608"/>
      <point x="662" y="595" type="curve"/>
      <point x="785" y="716" type="line"/>
      <point x="757" y="737" type="line"/>
      <point x="725" y="708" type="line"/>
      <point x="670" y="726"/>
      <point x="616" y="752"/>
      <point x="570" y="784" type="curve"/>
      <point x="376" y="613" type="line"/>
      <point x="376" y="107" type="line" smooth="yes"/>
      <point x="376" y="89"/>
      <point x="372" y="65"/>
      <point x="354" y="55" type="curve"/>
      <point x="318" y="59"/>
      <point x="256" y="71"/>
      <point x="195" y="71" type="curve"/>
      <point x="290" y="128" type="line" smooth="yes"/>
      <point x="317" y="144"/>
      <point x="327" y="174"/>
      <point x="327" y="208" type="curve" smooth="yes"/>
      <point x="327" y="398" type="line"/>
      <point x="327" y="539" type="line" smooth="yes"/>
      <point x="327" y="644"/>
      <point x="356" y="679"/>
      <point x="480" y="753" type="curve"/>
      <point x="481" y="779" type="line"/>
      <point x="456" y="763"/>
      <point x="423" y="754"/>
      <point x="392" y="754" type="curve" smooth="yes"/>
      <point x="345" y="754"/>
      <point x="292" y="779"/>
      <point x="242" y="779" type="curve" smooth="yes"/>
      <point x="166" y="779"/>
      <point x="91" y="719"/>
      <point x="69" y="648" type="curve"/>
      <point x="93" y="648" type="line"/>
      <point x="106" y="677"/>
      <point x="136" y="695"/>
      <point x="163" y="695" type="curve" smooth="yes"/>
      <point x="203" y="695"/>
      <point x="250" y="665"/>
      <point x="296" y="665" type="curve" smooth="yes"/>
      <point x="309" y="665"/>
      <point x="322" y="667"/>
      <point x="335" y="670" type="curve"/>
      <point x="254" y="607"/>
      <point x="198" y="567"/>
      <point x="198" y="512" type="curve" smooth="yes"/>
      <point x="198" y="477" type="line"/>
    </contour>
  </outline>
</glyph>
<glyph name="G" format="2">
  <advance width="807"/>
  <unicode hex="0047"/>
  <note>
G
</note>
  <outline>
    <contour>
      <point x="250" y="206" type="curve"/>
      <point x="228" y="275"/>
      <point x="219" y="366"/>
      <point x="219" y="459" type="curve" smooth="yes"/>
      <point x="219" y="501"/>
      <point x="232" y="573"/>
      <point x="284" y="623" type="curve"/>
      <point x="284" y="338" type="line" smooth="yes"/>
      <point x="284" y="284"/>
      <point x="282" y="243"/>
    </contour>
    <contour>
      <point x="648" y="115"/>
      <point x="600" y="40"/>
      <point x="496" y="15" type="curve"/>
      <point x="496" y="138" type="line"/>
      <point x="648" y="215" type="line"/>
    </contour>
    <contour>
      <point x="496" y="170" type="line"/>
      <point x="496" y="243" type="line"/>
      <point x="624" y="307" type="line"/>
      <point x="634" y="288"/>
      <point x="641" y="267"/>
      <point x="645" y="245" type="curve"/>
    </contour>
    <contour>
      <point x="609" y="332" type="curve"/>
      <point x="496" y="275" type="line"/>
      <point x="496" y="422" type="line"/>
      <point x="542" y="404"/>
      <point x="582" y="372"/>
    </contour>
    <contour>
      <point x="467" y="13" type="line"/>
      <point x="377" y="13"/>
      <point x="300" y="77"/>
      <point x="267" y="160" type="curve"/>
      <point x="352" y="186"/>
      <point x="413" y="224"/>
      <point x="413" y="360" type="curve"/>
      <point x="467" y="413" type="line"/>
    </contour>
    <contour>
      <point x="413" y="400" type="line"/>
      <point x="414" y="679" type="line"/>
      <point x="418" y="680"/>
      <point x="420" y="680"/>
      <point x="422" y="680" type="curve"/>
      <point x="472" y="644"/>
      <point x="539" y="605"/>
      <point x="595" y="580" type="curve"/>
    </contour>
    <contour>
      <point x="584" y="528" type="curve"/>
      <point x="750" y="693" type="line"/>
      <point x="729" y="713" type="line"/>
      <point x="696" y="680" type="line"/>
      <point x="635" y="702"/>
      <point x="571" y="738"/>
      <point x="521" y="778" type="curve"/>
      <point x="422" y="701" type="line"/>
      <point x="234" y="681"/>
      <point x="81" y="507"/>
      <point x="81" y="331" type="curve" smooth="yes"/>
      <point x="81" y="126"/>
      <point x="228" y="-25"/>
      <point x="432" y="-25" type="curve" smooth="yes"/>
      <point x="640" y="-25"/>
      <point x="776" y="144"/>
      <point x="776" y="281" type="curve" smooth="yes"/>
      <point x="776" y="398"/>
      <point x="710" y="500"/>
    </contour>
  </outline>
</glyph>
<glyph name="J" format="2">
  <advance width="621"/>
  <unicode hex="004A"/>
  <note>
J
</note>
  <outline>
    <contour>
      <point x="216" y="-47" type="line"/>
      <point x="324" y="-25"/>
      <point x="396" y="28"/>
      <point x="396" y="132" type="curve" smooth="yes"/>
      <point x="396" y="563" type="line" smooth="yes"/>
      <point x="396" y="662"/>
      <point x="442" y="698"/>
      <point x="531" y="764" type="curve"/>
      <point x="508" y="785" type="line"/>
      <point x="479" y="763"/>
      <point x="439" y="750"/>
      <point x="411" y="750" type="curve" smooth="yes"/>
      <point x="327" y="750"/>
      <point x="289" y="777"/>
      <point x="228" y="777" type="curve" smooth="yes"/>
      <point x="147" y="777"/>
      <point x="72" y="729"/>
      <point x="72" y="646" type="curve" smooth="yes"/>
      <point x="72" y="592"/>
      <point x="100" y="543"/>
      <point x="158" y="523" type="curve"/>
      <point x="162" y="531" type="line"/>
      <point x="137" y="544"/>
      <point x="127" y="558"/>
      <point x="127" y="579" type="curve" smooth="yes"/>
      <point x="127" y="609"/>
      <point x="152" y="646"/>
      <point x="219" y="646" type="curve" smooth="yes"/>
      <point x="259" y="646"/>
      <point x="282" y="639"/>
      <point x="339" y="639" type="curve" smooth="yes"/>
      <point x="355" y="639"/>
      <point x="372" y="641"/>
      <point x="383" y="643" type="curve"/>
      <point x="311" y="590"/>
      <point x="264" y="555"/>
      <point x="264" y="481" type="curve" smooth="yes"/>
      <point x="264" y="441" type="line"/>
      <point x="196" y="435"/>
      <point x="147" y="395"/>
      <point x="147" y="333" type="curve" smooth="yes"/>
      <point x="147" y="306"/>
      <point x="155" y="286"/>
      <point x="163" y="272" type="curve"/>
      <point x="182" y="272" type="line"/>
      <point x="182" y="320"/>
      <point x="203" y="330"/>
      <point x="264" y="330" type="curve"/>
      <point x="264" y="50" type="line" smooth="yes"/>
      <point x="264" y="21"/>
      <point x="253" y="-4"/>
      <point x="216" y="-14" type="curve"/>
    </contour>
    <contour>
      <point x="258" y="-96" type="curve" smooth="yes"/>
      <point x="144" y="-96"/>
      <point x="47" y="-35"/>
      <point x="47" y="57" type="curve" smooth="yes"/>
      <point x="47" y="118"/>
      <point x="90" y="155"/>
      <point x="134" y="155" type="curve" smooth="yes"/>
      <point x="178" y="155"/>
      <point x="211" y="123"/>
      <point x="211" y="78" type="curve" smooth="yes"/>
      <point x="211" y="55"/>
      <point x="190" y="8"/>
      <point x="141" y="9" type="curve" smooth="yes"/>
      <point x="127" y="9"/>
      <point x="117" y="10"/>
      <point x="109" y="15" type="curve"/>
      <point x="126" y="-24"/>
      <point x="171" y="-71"/>
      <point x="252" y="-71" type="curve" smooth="yes"/>
      <point x="347" y="-71"/>
      <point x="439" y="10"/>
      <point x="439" y="132" type="curve" smooth="yes"/>
      <point x="439" y="477" type="line" smooth="yes"/>
      <point x="439" y="650"/>
      <point x="470" y="673"/>
      <point x="600" y="765" type="curve"/>
      <point x="613" y="753" type="line"/>
      <point x="578" y="693"/>
      <point x="571" y="636"/>
      <point x="571" y="559" type="curve" smooth="yes"/>
      <point x="571" y="235" type="line" smooth="yes"/>
      <point x="571" y="39"/>
      <point x="437" y="-96"/>
    </contour>
  </outline>
</glyph>
<glyph name="K" format="2">
  <advance width="820"/>
  <unicode hex="004B"/>
  <note>
K
</note>
  <outline>
    <contour>
      <point x="145" y="146" type="curve"/>
      <point x="178" y="146" type="line"/>
      <point x="278" y="187"/>
      <point x="336" y="234"/>
      <point x="336" y="334" type="curve" smooth="yes"/>
      <point x="336" y="418" type="line"/>
      <point x="336" y="544" type="line" smooth="yes"/>
      <point x="336" y="623"/>
      <point x="377" y="709"/>
      <point x="440" y="753" type="curve"/>
      <point x="432" y="765" type="line"/>
      <point x="408" y="748"/>
      <point x="387" y="743"/>
      <point x="367" y="743" type="curve" smooth="yes"/>
      <point x="329" y="743"/>
      <point x="270" y="771"/>
      <point x="238" y="771" type="curve" smooth="yes"/>
      <point x="164" y="771"/>
      <point x="106" y="699"/>
      <point x="73" y="627" type="curve"/>
      <point x="97" y="627" type="line"/>
      <point x="107" y="654"/>
      <point x="124" y="669"/>
      <point x="153" y="669" type="curve" smooth="yes"/>
      <point x="182" y="669"/>
      <point x="244" y="649"/>
      <point x="266" y="649" type="curve" smooth="yes"/>
      <point x="282" y="649"/>
      <point x="299" y="652"/>
      <point x="321" y="664" type="curve"/>
      <point x="237" y="593"/>
      <point x="206" y="568"/>
      <point x="206" y="479" type="curve"/>
      <point x="147" y="479"/>
      <point x="99" y="437"/>
      <point x="93" y="381" type="curve" smooth="yes"/>
      <point x="90" y="353"/>
      <point x="97" y="330"/>
      <point x="105" y="310" type="curve"/>
      <point x="124" y="310" type="line"/>
      <point x="123" y="364"/>
      <point x="150" y="368"/>
      <point x="207" y="368" type="curve"/>
      <point x="207" y="272" type="line" smooth="yes"/>
      <point x="207" y="201"/>
      <point x="184" y="169"/>
    </contour>
    <contour>
      <point x="83" y="-23" type="curve"/>
      <point x="114" y="-23" type="line"/>
      <point x="143" y="22"/>
      <point x="199" y="56"/>
      <point x="261" y="56" type="curve" smooth="yes"/>
      <point x="331" y="56"/>
      <point x="388" y="36"/>
      <point x="446" y="-8" type="curve"/>
      <point x="584" y="101" type="line"/>
      <point x="602" y="55"/>
      <point x="628" y="14"/>
      <point x="675" y="-7" type="curve"/>
      <point x="828" y="115" type="line"/>
      <point x="828" y="145" type="line"/>
      <point x="759" y="92" type="line"/>
      <point x="717" y="121"/>
      <point x="697" y="184"/>
      <point x="683" y="253" type="curve" smooth="yes"/>
      <point x="665" y="343"/>
      <point x="620" y="430"/>
      <point x="508" y="463" type="curve"/>
      <point x="637" y="613" type="line"/>
      <point x="717" y="623"/>
      <point x="768" y="683"/>
      <point x="768" y="751" type="curve" smooth="yes"/>
      <point x="768" y="758"/>
      <point x="767" y="767"/>
      <point x="766" y="776" type="curve"/>
      <point x="752" y="776" type="line"/>
      <point x="743" y="745"/>
      <point x="710" y="719"/>
      <point x="676" y="719" type="curve" smooth="yes"/>
      <point x="636" y="719"/>
      <point x="603" y="741"/>
      <point x="586" y="761" type="curve"/>
      <point x="463" y="614" type="line"/>
      <point x="477" y="600" type="line"/>
      <point x="515" y="642" type="line"/>
      <point x="543" y="624"/>
      <point x="575" y="614"/>
      <point x="609" y="612" type="curve"/>
      <point x="404" y="375" type="line"/>
      <point x="404" y="542" type="line" smooth="yes"/>
      <point x="404" y="649"/>
      <point x="446" y="706"/>
      <point x="521" y="764" type="curve"/>
      <point x="509" y="783" type="line"/>
      <point x="423" y="720"/>
      <point x="375" y="645"/>
      <point x="375" y="531" type="curve" smooth="yes"/>
      <point x="375" y="309" type="line" smooth="yes"/>
      <point x="375" y="225"/>
      <point x="336" y="190"/>
      <point x="256" y="138" type="curve"/>
      <point x="181" y="108"/>
      <point x="119" y="49"/>
    </contour>
    <contour>
      <point x="331" y="158" type="curve"/>
      <point x="384" y="204"/>
      <point x="401" y="239"/>
      <point x="403" y="309" type="curve" smooth="yes"/>
      <point x="404" y="348" type="line"/>
      <point x="408" y="348" type="line"/>
      <point x="421" y="363" type="line"/>
      <point x="504" y="340"/>
      <point x="545" y="272"/>
      <point x="562" y="184" type="curve" smooth="yes"/>
      <point x="566" y="163"/>
      <point x="573" y="140"/>
      <point x="579" y="119" type="curve"/>
      <point x="550" y="96" type="line"/>
      <point x="494" y="142"/>
      <point x="424" y="161"/>
      <point x="368" y="161" type="curve" smooth="yes"/>
      <point x="354" y="161"/>
      <point x="338" y="159"/>
    </contour>
  </outline>
</glyph>
<glyph name="M" format="2">
  <advance width="1085"/>
  <unicode hex="004D"/>
  <note>
M
</note>
  <outline>
    <contour>
      <point x="71" y="625" type="curve"/>
      <point x="52" y="634" type="line"/>
      <point x="74" y="704"/>
      <point x="128" y="758"/>
      <point x="190" y="760" type="curve" smooth="yes"/>
      <point x="223" y="761"/>
      <point x="285" y="730"/>
      <point x="323" y="730" type="curve" smooth="yes"/>
      <point x="344" y="730"/>
      <point x="360" y="746"/>
      <point x="373" y="759" type="curve"/>
      <point x="392" y="749" type="line"/>
      <point x="341" y="690"/>
      <point x="294" y="649"/>
      <point x="237" y="649" type="curve" smooth="yes"/>
      <point x="193" y="649"/>
      <point x="170" y="669"/>
      <point x="132" y="669" type="curve" smooth="yes"/>
      <point x="110" y="669"/>
      <point x="80" y="647"/>
    </contour>
    <contour>
      <point x="73" y="287" type="curve"/>
      <point x="90" y="287" type="line"/>
      <point x="90" y="336"/>
      <point x="113" y="345"/>
      <point x="181" y="345" type="curve"/>
      <point x="181" y="270" type="line" smooth="yes"/>
      <point x="181" y="229"/>
      <point x="176" y="184"/>
      <point x="133" y="177" type="curve"/>
      <point x="138" y="158" type="line"/>
      <point x="228" y="165"/>
      <point x="310" y="202"/>
      <point x="310" y="298" type="curve" smooth="yes"/>
      <point x="310" y="523" type="line" smooth="yes"/>
      <point x="310" y="571"/>
      <point x="325" y="605"/>
      <point x="368" y="640" type="curve"/>
      <point x="368" y="432" type="line"/>
      <point x="368" y="276" type="line" smooth="yes"/>
      <point x="368" y="148"/>
      <point x="297" y="134"/>
      <point x="235" y="134" type="curve" smooth="yes"/>
      <point x="147" y="134"/>
      <point x="85" y="95"/>
      <point x="85" y="14" type="curve" smooth="yes"/>
      <point x="85" y="-55"/>
      <point x="141" y="-110"/>
      <point x="205" y="-101" type="curve"/>
      <point x="205" y="-77" type="line"/>
      <point x="180" y="-77"/>
      <point x="153" y="-63"/>
      <point x="153" y="-40" type="curve" smooth="yes"/>
      <point x="149" y="-1"/>
      <point x="189" y="9"/>
      <point x="233" y="9" type="curve" smooth="yes"/>
      <point x="320" y="9"/>
      <point x="397" y="61"/>
      <point x="397" y="155" type="curve" smooth="yes"/>
      <point x="397" y="290" type="line"/>
      <point x="410" y="299"/>
      <point x="426" y="305"/>
      <point x="442" y="305" type="curve" smooth="yes"/>
      <point x="464" y="307"/>
      <point x="486" y="298"/>
      <point x="503" y="284" type="curve"/>
      <point x="503" y="232"/>
      <point x="503" y="181"/>
      <point x="503" y="129" type="curve"/>
      <point x="440" y="86" type="line"/>
      <point x="450" y="72" type="line"/>
      <point x="483" y="96" type="line"/>
      <point x="598" y="0" type="line"/>
      <point x="766" y="124" type="line"/>
      <point x="752" y="139" type="line"/>
      <point x="720" y="118" type="line"/>
      <point x="720" y="290" type="line"/>
      <point x="733" y="299"/>
      <point x="749" y="305"/>
      <point x="765" y="305" type="curve" smooth="yes"/>
      <point x="786" y="307"/>
      <point x="808" y="299"/>
      <point x="824" y="285" type="curve"/>
      <point x="824" y="126" type="line"/>
      <point x="766" y="86" type="line"/>
      <point x="776" y="72" type="line"/>
      <point x="809" y="95" type="line"/>
      <point x="924" y="0" type="line"/>
      <point x="1077" y="124" type="line"/>
      <point x="1063" y="139" type="line"/>
      <point x="1006" y="101" type="line"/>
      <point x="963" y="139" type="line"/>
      <point x="963" y="604" type="line"/>
      <point x="1015" y="646" type="line"/>
      <point x="997" y="668" type="line"/>
      <point x="955" y="634" type="line"/>
      <point x="829" y="747" type="line"/>
      <point x="720" y="682" type="line"/>
      <point x="720" y="738" type="line"/>
      <point x="691" y="738" type="line"/>
      <point x="691" y="665" type="line"/>
      <point x="637" y="632" type="line"/>
      <point x="498" y="748" type="line"/>
      <point x="297" y="621" type="line" smooth="yes"/>
      <point x="232" y="580"/>
      <point x="188" y="536"/>
      <point x="181" y="458" type="curve"/>
      <point x="122" y="455"/>
      <point x="55" y="427"/>
      <point x="55" y="347" type="curve" smooth="yes"/>
      <point x="55" y="312"/>
      <point x="62" y="301"/>
    </contour>
    <contour>
      <point x="397" y="319" type="curve"/>
      <point x="397" y="408" type="line"/>
      <point x="410" y="398"/>
      <point x="426" y="393"/>
      <point x="443" y="392" type="curve" smooth="yes"/>
      <point x="464" y="391"/>
      <point x="486" y="399"/>
      <point x="503" y="414" type="curve"/>
      <point x="503" y="313" type="line"/>
      <point x="486" y="327"/>
      <point x="464" y="335"/>
      <point x="443" y="334" type="curve" smooth="yes"/>
      <point x="426" y="334"/>
      <point x="410" y="328"/>
    </contour>
    <contour>
      <point x="397" y="437" type="curve"/>
      <point x="397" y="638" type="line"/>
      <point x="503" y="565" type="line"/>
      <point x="503" y="525"/>
      <point x="503" y="484"/>
      <point x="503" y="443" type="curve"/>
      <point x="486" y="428"/>
      <point x="464" y="420"/>
      <point x="442" y="421" type="curve" smooth="yes"/>
      <point x="426" y="422"/>
      <point x="410" y="427"/>
    </contour>
    <contour>
      <point x="691" y="104" type="curve"/>
      <point x="632" y="149" type="line"/>
      <point x="632" y="601" type="line"/>
      <point x="691" y="637" type="line"/>
      <point x="691" y="459"/>
      <point x="691" y="282"/>
    </contour>
    <contour>
      <point x="720" y="319" type="curve"/>
      <point x="720" y="408" type="line"/>
      <point x="733" y="398"/>
      <point x="749" y="393"/>
      <point x="766" y="392" type="curve" smooth="yes"/>
      <point x="787" y="391"/>
      <point x="808" y="399"/>
      <point x="824" y="412" type="curve"/>
      <point x="824" y="314" type="line"/>
      <point x="808" y="328"/>
      <point x="787" y="335"/>
      <point x="766" y="334" type="curve" smooth="yes"/>
      <point x="749" y="334"/>
      <point x="733" y="328"/>
    </contour>
    <contour>
      <point x="720" y="437" type="curve"/>
      <point x="720" y="644" type="line"/>
      <point x="824" y="561" type="line"/>
      <point x="824" y="441" type="line"/>
      <point x="808" y="427"/>
      <point x="786" y="420"/>
      <point x="765" y="421" type="curve" smooth="yes"/>
      <point x="749" y="422"/>
      <point x="733" y="427"/>
    </contour>
  </outline>
</glyph>
<glyph name="O" format="2">
  <advance width="754"/>
  <unicode hex="004F"/>
  <note>
O
</note>
  <outline>
    <contour>
      <point x="191" y="276" type="line"/>
      <point x="172" y="334"/>
      <point x="165" y="370"/>
      <point x="165" y="427" type="curve" smooth="yes"/>
      <point x="165" y="483"/>
      <point x="178" y="553"/>
      <point x="199" y="603" type="curve"/>
      <point x="261" y="629" type="line"/>
      <point x="261" y="306" type="line"/>
    </contour>
    <contour>
      <point x="373" y="-29" type="curve" smooth="yes"/>
      <point x="537" y="-29"/>
      <point x="736" y="210"/>
      <point x="736" y="422" type="curve" smooth="yes"/>
      <point x="736" y="574"/>
      <point x="641" y="708"/>
      <point x="505" y="765" type="curve"/>
      <point x="216" y="641" type="line"/>
      <point x="241" y="688"/>
      <point x="280" y="735"/>
      <point x="329" y="768" type="curve"/>
      <point x="314" y="786" type="line"/>
      <point x="143" y="716"/>
      <point x="42" y="551"/>
      <point x="42" y="359" type="curve" smooth="yes"/>
      <point x="42" y="160"/>
      <point x="162" y="-29"/>
    </contour>
    <contour>
      <point x="436" y="82" type="line"/>
      <point x="334" y="77"/>
      <point x="246" y="147"/>
      <point x="201" y="251" type="curve"/>
      <point x="390" y="331" type="line"/>
      <point x="391" y="683" type="line"/>
      <point x="406" y="675"/>
      <point x="422" y="665"/>
      <point x="436" y="655" type="curve"/>
    </contour>
    <contour>
      <point x="465" y="85" type="curve"/>
      <point x="465" y="276" type="line"/>
      <point x="631" y="359" type="line"/>
      <point x="633" y="348"/>
      <point x="634" y="330"/>
      <point x="634" y="319" type="curve" smooth="yes"/>
      <point x="634" y="246"/>
      <point x="602" y="115"/>
    </contour>
    <contour>
      <point x="465" y="413" type="line"/>
      <point x="465" y="633" type="line"/>
      <point x="512" y="595"/>
      <point x="563" y="535"/>
      <point x="592" y="477" type="curve"/>
    </contour>
    <contour>
      <point x="465" y="308" type="line"/>
      <point x="465" y="381" type="line"/>
      <point x="605" y="451" type="line"/>
      <point x="613" y="431"/>
      <point x="620" y="410"/>
      <point x="625" y="389" type="curve"/>
    </contour>
  </outline>
</glyph>
<glyph name="P" format="2">
  <advance width="724"/>
  <unicode hex="0050"/>
  <note>
P
</note>
  <outline>
    <contour>
      <point x="187" y="-111" type="line"/>
      <point x="390" y="-111" type="line"/>
      <point x="390" y="59" type="line"/>
      <point x="403" y="50"/>
      <point x="416" y="40"/>
      <point x="429" y="30" type="curve"/>
      <point x="691" y="171" type="line"/>
      <point x="691" y="639" type="line"/>
      <point x="674" y="662"/>
      <point x="656" y="684"/>
      <point x="635" y="704" type="curve" smooth="yes"/>
      <point x="614" y="725"/>
      <point x="591" y="744"/>
      <point x="567" y="761" type="curve"/>
      <point x="390" y="632" type="line"/>
      <point x="390" y="737" type="line"/>
      <point x="361" y="737" type="line"/>
      <point x="361" y="611" type="line"/>
      <point x="327" y="586" type="line"/>
      <point x="327" y="612" type="line" smooth="yes"/>
      <point x="327" y="693"/>
      <point x="284" y="738"/>
      <point x="218" y="738" type="curve" smooth="yes"/>
      <point x="140" y="738"/>
      <point x="80" y="687"/>
      <point x="77" y="613" type="curve"/>
      <point x="101" y="613" type="line"/>
      <point x="105" y="635"/>
      <point x="125" y="661"/>
      <point x="145" y="661" type="curve" smooth="yes"/>
      <point x="175" y="661"/>
      <point x="187" y="645"/>
      <point x="187" y="602" type="curve" smooth="yes"/>
      <point x="187" y="437" type="line"/>
      <point x="128" y="437"/>
      <point x="69" y="397"/>
      <point x="69" y="329" type="curve" smooth="yes"/>
      <point x="69" y="316"/>
      <point x="70" y="306"/>
      <point x="76" y="292" type="curve"/>
      <point x="99" y="292" type="line"/>
      <point x="187" y="337" type="line"/>
      <point x="187" y="150" type="line"/>
      <point x="128" y="119"/>
      <point x="77" y="72"/>
      <point x="45" y="14" type="curve"/>
      <point x="68" y="14" type="line"/>
      <point x="100" y="48"/>
      <point x="141" y="74"/>
      <point x="187" y="86" type="curve"/>
    </contour>
    <contour>
      <point x="390" y="413" type="line"/>
      <point x="390" y="475"/>
      <point x="390" y="538"/>
      <point x="390" y="601" type="curve"/>
      <point x="469" y="657" type="line"/>
      <point x="498" y="637"/>
      <point x="534" y="605"/>
      <point x="563" y="572" type="curve"/>
      <point x="563" y="501" type="line"/>
    </contour>
    <contour>
      <point x="390" y="308" type="line"/>
      <point x="390" y="381" type="line"/>
      <point x="563" y="468" type="line"/>
      <point x="563" y="396" type="line"/>
    </contour>
    <contour>
      <point x="390" y="184" type="curve"/>
      <point x="390" y="276" type="line"/>
      <point x="563" y="363" type="line"/>
      <point x="563" y="135" type="line"/>
      <point x="541" y="122" type="line"/>
      <point x="497" y="155"/>
      <point x="444" y="176"/>
    </contour>
    <contour>
      <point x="327" y="188" type="curve"/>
      <point x="327" y="556" type="line"/>
      <point x="361" y="580" type="line"/>
      <point x="361" y="187" type="line"/>
      <point x="350" y="188"/>
      <point x="338" y="188"/>
    </contour>
    <contour>
      <point x="327" y="-83" type="line"/>
      <point x="327" y="86" type="line"/>
      <point x="339" y="83"/>
      <point x="350" y="78"/>
      <point x="361" y="74" type="curve"/>
      <point x="361" y="-83" type="line"/>
    </contour>
  </outline>
</glyph>
<glyph name="Q" format="2">
  <advance width="780"/>
  <unicode hex="0051"/>
  <note>
Q
</note>
  <outline>
    <contour>
      <point x="267" y="344"/>
      <point x="261" y="294"/>
      <point x="210" y="261" type="curve"/>
      <point x="187" y="322"/>
      <point x="179" y="373"/>
      <point x="179" y="446" type="curve" smooth="yes"/>
      <point x="179" y="500"/>
      <point x="191" y="553"/>
      <point x="211" y="603" type="curve"/>
      <point x="267" y="626" type="line"/>
      <point x="267" y="411" type="line" smooth="yes"/>
    </contour>
    <contour>
      <point x="375" y="-30" type="curve" smooth="yes"/>
      <point x="424" y="-30"/>
      <point x="497" y="2"/>
      <point x="535" y="33" type="curve"/>
      <point x="579" y="-26"/>
      <point x="620" y="-73"/>
      <point x="682" y="-107" type="curve"/>
      <point x="833" y="13" type="line"/>
      <point x="812" y="34" type="line"/>
      <point x="772" y="0" type="line"/>
      <point x="716" y="32"/>
      <point x="673" y="68"/>
      <point x="636" y="129" type="curve"/>
      <point x="706" y="214"/>
      <point x="749" y="317"/>
      <point x="749" y="422" type="curve" smooth="yes"/>
      <point x="749" y="574"/>
      <point x="656" y="710"/>
      <point x="518" y="765" type="curve"/>
      <point x="229" y="641" type="line"/>
      <point x="240" y="663"/>
      <point x="271" y="716"/>
      <point x="341" y="768" type="curve"/>
      <point x="327" y="786" type="line"/>
      <point x="154" y="709"/>
      <point x="56" y="573"/>
      <point x="56" y="335" type="curve" smooth="yes"/>
      <point x="56" y="151"/>
      <point x="186" y="-30"/>
    </contour>
    <contour>
      <point x="225" y="227" type="curve"/>
      <point x="333" y="249"/>
      <point x="396" y="309"/>
      <point x="396" y="412" type="curve" smooth="yes"/>
      <point x="396" y="680" type="line"/>
      <point x="405" y="684" type="line"/>
      <point x="420" y="675"/>
      <point x="435" y="665"/>
      <point x="449" y="655" type="curve"/>
      <point x="450" y="82" type="line"/>
      <point x="372" y="82"/>
      <point x="279" y="117"/>
    </contour>
    <contour>
      <point x="478" y="85" type="curve"/>
      <point x="478" y="276" type="line"/>
      <point x="643" y="359" type="line"/>
      <point x="660" y="231"/>
      <point x="596" y="110"/>
    </contour>
    <contour>
      <point x="478" y="633" type="line"/>
      <point x="529" y="591"/>
      <point x="577" y="533"/>
      <point x="605" y="477" type="curve"/>
      <point x="478" y="413" type="line"/>
    </contour>
    <contour>
      <point x="478" y="308" type="line"/>
      <point x="478" y="381" type="line"/>
      <point x="617" y="451" type="line"/>
      <point x="626" y="431"/>
      <point x="633" y="410"/>
      <point x="638" y="389" type="curve"/>
    </contour>
  </outline>
</glyph>
<glyph name="T" format="2">
  <advance width="719"/>
  <unicode hex="0054"/>
  <note>
T
</note>
  <outline>
    <contour>
      <point x="424" y="4" type="curve" smooth="yes"/>
      <point x="576" y="4"/>
      <point x="698" y="120"/>
      <point x="702" y="281" type="curve"/>
      <point x="694" y="281" type="line"/>
      <point x="654" y="179"/>
      <point x="545" y="113"/>
      <point x="441" y="113" type="curve" smooth="yes"/>
      <point x="259" y="113"/>
      <point x="212" y="295"/>
      <point x="212" y="350" type="curve" smooth="yes"/>
      <point x="212" y="470"/>
      <point x="247" y="529"/>
      <point x="331" y="589" type="curve"/>
      <point x="328" y="594" type="line"/>
      <point x="201" y="569"/>
      <point x="93" y="471"/>
      <point x="93" y="315" type="curve" smooth="yes"/>
      <point x="93" y="222"/>
      <point x="111" y="177"/>
      <point x="174" y="108" type="curve" smooth="yes"/>
      <point x="237" y="40"/>
      <point x="331" y="4"/>
    </contour>
    <contour>
      <point x="562" y="90" type="line"/>
      <point x="571" y="90" type="line"/>
      <point x="571" y="641" type="line"/>
      <point x="562" y="641" type="line"/>
    </contour>
    <contour>
      <point x="565" y="294" type="line"/>
      <point x="648" y="376" type="line"/>
      <point x="566" y="458" type="line"/>
      <point x="483" y="376" type="line"/>
    </contour>
    <contour>
      <point x="193" y="143" type="line"/>
      <point x="457" y="250" type="line"/>
      <point x="457" y="555" type="line"/>
      <point x="172" y="434" type="line"/>
      <point x="172" y="422" type="line"/>
      <point x="328" y="488" type="line"/>
      <point x="327" y="208" type="line"/>
      <point x="193" y="151" type="line"/>
    </contour>
    <contour>
      <point x="576" y="566" type="curve" smooth="yes"/>
      <point x="655" y="566"/>
      <point x="712" y="610"/>
      <point x="712" y="671" type="curve" smooth="yes"/>
      <point x="712" y="747"/>
      <point x="646" y="789"/>
      <point x="546" y="782" type="curve"/>
      <point x="546" y="775" type="line"/>
      <point x="585" y="769"/>
      <point x="625" y="761"/>
      <point x="622" y="728" type="curve" smooth="yes"/>
      <point x="620" y="707"/>
      <point x="599" y="697"/>
      <point x="576" y="699" type="curve" smooth="yes"/>
      <point x="498" y="702"/>
      <point x="344" y="773"/>
      <point x="263" y="772" type="curve" smooth="yes"/>
      <point x="191" y="771"/>
      <point x="113" y="715"/>
      <point x="113" y="641" type="curve" smooth="yes"/>
      <point x="113" y="590"/>
      <point x="141" y="557"/>
      <point x="186" y="535" type="curve"/>
      <point x="187" y="537" type="line"/>
      <point x="171" y="553"/>
      <point x="167" y="563"/>
      <point x="167" y="588" type="curve" smooth="yes"/>
      <point x="167" y="609"/>
      <point x="186" y="635"/>
      <point x="230" y="635" type="curve" smooth="yes"/>
      <point x="283" y="635"/>
      <point x="498" y="563"/>
    </contour>
  </outline>
</glyph>
<glyph name="X" format="2">
  <advance width="736"/>
  <unicode hex="0058"/>
  <note>
X
</note>
  <outline>
    <contour>
      <point x="202" y="-86" type="curve"/>
      <point x="202" y="-65" type="line"/>
      <point x="169" y="-65"/>
      <point x="140" y="-43"/>
      <point x="140" y="-12" type="curve" smooth="yes"/>
      <point x="140" y="14"/>
      <point x="156" y="47"/>
      <point x="202" y="47" type="curve" smooth="yes"/>
      <point x="246" y="47"/>
      <point x="288" y="24"/>
      <point x="326" y="-13" type="curve"/>
      <point x="455" y="131" type="line"/>
      <point x="441" y="143" type="line"/>
      <point x="407" y="107" type="line"/>
      <point x="332" y="166"/>
      <point x="250" y="177"/>
      <point x="230" y="177" type="curve"/>
      <point x="364" y="356" type="line"/>
      <point x="558" y="-9" type="line"/>
      <point x="716" y="93" type="line"/>
      <point x="707" y="107" type="line"/>
      <point x="670" y="85" type="line"/>
      <point x="597" y="170"/>
      <point x="544" y="271"/>
      <point x="499" y="373" type="curve"/>
      <point x="568" y="373" type="line"/>
      <point x="665" y="480" type="line"/>
      <point x="456" y="480" type="line"/>
      <point x="543" y="596" type="line"/>
      <point x="641" y="596"/>
      <point x="700" y="663"/>
      <point x="700" y="762" type="curve"/>
      <point x="685" y="763" type="line"/>
      <point x="672" y="740"/>
      <point x="644" y="718"/>
      <point x="609" y="718" type="curve" smooth="yes"/>
      <point x="583" y="718"/>
      <point x="552" y="729"/>
      <point x="528" y="761" type="curve"/>
      <point x="508" y="761" type="line"/>
      <point x="376" y="649" type="line"/>
      <point x="343" y="715"/>
      <point x="287" y="761"/>
      <point x="211" y="761" type="curve" smooth="yes"/>
      <point x="137" y="761"/>
      <point x="62" y="697"/>
      <point x="48" y="618" type="curve"/>
      <point x="84" y="618" type="line"/>
      <point x="92" y="653"/>
      <point x="123" y="676"/>
      <point x="162" y="676" type="curve" smooth="yes"/>
      <point x="198" y="676"/>
      <point x="224" y="619"/>
      <point x="258" y="555" type="curve" smooth="yes"/>
      <point x="298" y="480" type="line"/>
      <point x="186" y="480" type="line"/>
      <point x="89" y="373" type="line"/>
      <point x="341" y="373" type="line"/>
      <point x="194" y="177" type="line"/>
      <point x="115" y="172"/>
      <point x="51" y="119"/>
      <point x="51" y="43" type="curve" smooth="yes"/>
      <point x="51" y="-32"/>
      <point x="107" y="-86"/>
    </contour>
    <contour>
      <point x="440" y="506" type="line"/>
      <point x="385" y="629" type="line"/>
      <point x="417" y="654" type="line"/>
      <point x="448" y="624"/>
      <point x="472" y="614"/>
      <point x="511" y="601" type="curve"/>
    </contour>
  </outline>
</glyph>
<glyph name="bracketleft" format="2">
  <advance width="291"/>
  <unicode hex="005B"/>
  <note>
bracketleft
</note>
  <outline>
    <contour>
      <point x="271.49" y="802.01" type="line"/>
      <point x="23" y="802" type="line"/>
      <point x="23" y="773.34" type="line"/>
      <point x="23" y="28.66" type="line"/>
      <point x="23" y="0" type="line"/>
      <point x="271.43" y="0" type="line"/>
      <point x="271.48" y="28.67" type="line"/>
      <point x="231.66" y="28.67"/>
      <point x="191.83" y="28.67"/>
      <point x="152.01" y="28.67" type="curve"/>
      <point x="152.01" y="773.34" type="line"/>
      <point x="191.82" y="773.34"/>
      <point x="231.63" y="773.34"/>
      <point x="271.44" y="773.34" type="curve"/>
    </contour>
  </outline>
</glyph>
<glyph name="bracketright" format="2">
  <advance width="291"/>
  <unicode hex="005D"/>
  <note>
bracketright
</note>
  <outline>
    <contour>
      <point x="22.98" y="802.01" type="line"/>
      <point x="271.47" y="802" type="line"/>
      <point x="271.47" y="773.34" type="line"/>
      <point x="271.47" y="28.66" type="line"/>
      <point x="271.47" y="0" type="line"/>
      <point x="23.04" y="0" type="line"/>
      <point x="22.99" y="28.67" type="line"/>
      <point x="62.81" y="28.67"/>
      <point x="102.64" y="28.67"/>
      <point x="142.46" y="28.67" type="curve"/>
      <point x="142.46" y="773.34" type="line"/>
      <point x="102.65" y="773.34"/>
      <point x="62.84" y="773.34"/>
      <point x="23.03" y="773.34" type="curve"/>
    </contour>
  </outline>
</glyph>
<glyph name="underscore" format="2">
  <advance width="797"/>
  <unicode hex="005F"/>
  <note>
underscore
</note>
  <outline>
    <contour>
      <point x="108" y="0" type="line"/>
      <point x="10.85" y="-107" type="line"/>
      <point x="684" y="-108" type="line"/>
      <point x="781.15" y="-1" type="line"/>
    </contour>
  </outline>
</glyph>
<glyph name="g" format="2">
  <advance width="488"/>
  <unicode hex="0067"/>
  <note>
g
</note>
  <outline>
    <contour>
      <point x="284" y="92" type="line"/>
      <point x="170" y="163" type="line"/>
      <point x="170" y="426" type="line"/>
      <point x="285" y="349" type="line"/>
    </contour>
    <contour>
      <point x="195" y="-184" type="curve"/>
      <point x="369" y="-61" type="line" smooth="yes"/>
      <point x="399" y="-40"/>
      <point x="449" y="-12"/>
      <point x="449" y="18" type="curve" smooth="yes"/>
      <point x="449" y="46"/>
      <point x="419" y="70"/>
      <point x="419" y="139" type="curve" smooth="yes"/>
      <point x="419" y="393" type="line"/>
      <point x="467" y="432" type="line"/>
      <point x="449" y="454" type="line"/>
      <point x="407" y="419" type="line"/>
      <point x="276" y="518" type="line"/>
      <point x="50" y="388" type="line"/>
      <point x="50" y="100" type="line"/>
      <point x="194" y="0" type="line"/>
      <point x="286" y="64" type="line"/>
      <point x="286" y="38"/>
      <point x="322" y="-23"/>
      <point x="322" y="-40" type="curve" smooth="yes"/>
      <point x="322" y="-65"/>
      <point x="306" y="-86"/>
      <point x="285" y="-86" type="curve"/>
      <point x="252" y="-52"/>
      <point x="204" y="-34"/>
      <point x="156" y="-34" type="curve" smooth="yes"/>
      <point x="87" y="-34"/>
      <point x="26" y="-80"/>
      <point x="2" y="-144" type="curve"/>
      <point x="17" y="-154" type="line"/>
      <point x="39" y="-137"/>
      <point x="64" y="-128"/>
      <point x="91" y="-128" type="curve" smooth="yes"/>
      <point x="140" y="-128"/>
      <point x="177" y="-157"/>
    </contour>
  </outline>
</glyph>
<glyph name="i" format="2">
  <advance width="309"/>
  <unicode hex="0069"/>
  <note>
i
</note>
  <outline>
    <contour>
      <point x="151.42" y="550.56" type="line"/>
      <point x="246.93" y="634.42" type="line"/>
      <point x="161.7" y="731.49" type="line"/>
      <point x="66.18" y="647.63" type="line"/>
    </contour>
    <contour>
      <point x="28" y="99" type="line"/>
      <point x="68" y="123" type="line"/>
      <point x="156" y="0" type="line"/>
      <point x="309" y="100" type="line"/>
      <point x="308" y="102" type="line"/>
      <point x="277" y="82" type="line"/>
      <point x="189" y="203" type="line"/>
      <point x="26" y="102" type="line"/>
    </contour>
    <contour>
      <point x="98" y="120" type="line"/>
      <point x="222" y="120" type="line"/>
      <point x="223" y="419" type="line"/>
      <point x="150" y="513" type="line"/>
      <point x="13" y="423" type="line"/>
      <point x="15" y="420" type="line"/>
      <point x="50" y="442" type="line"/>
      <point x="98" y="384" type="line"/>
    </contour>
  </outline>
</glyph>
<glyph name="j" format="2">
  <advance width="267"/>
  <unicode hex="006A"/>
  <note>
j
</note>
  <outline>
    <contour>
      <point x="2" y="-179" type="line"/>
      <point x="118" y="-178"/>
      <point x="201" y="-102"/>
      <point x="202" y="26" type="curve" smooth="yes"/>
      <point x="204" y="407" type="line"/>
      <point x="246" y="441" type="line"/>
      <point x="228" y="463" type="line"/>
      <point x="193" y="434" type="line"/>
      <point x="127" y="513" type="line"/>
      <point x="-7" y="422" type="line"/>
      <point x="7" y="402" type="line"/>
      <point x="46" y="426" type="line"/>
      <point x="79" y="383" type="line"/>
      <point x="79" y="41" type="line" smooth="yes"/>
      <point x="79" y="-45"/>
      <point x="89" y="-147"/>
      <point x="2" y="-151" type="curve"/>
    </contour>
    <contour>
      <point x="143" y="731" type="line"/>
      <point x="47" y="648" type="line"/>
      <point x="132" y="551" type="line"/>
      <point x="228" y="634" type="line"/>
    </contour>
  </outline>
</glyph>
<glyph name="l" format="2">
  <advance width="287"/>
  <unicode hex="006C"/>
  <note>
l
</note>
  <outline>
    <contour>
      <point x="37" y="78" type="line"/>
      <point x="77" y="102" type="line"/>
      <point x="150" y="0" type="line"/>
      <point x="303" y="100" type="line"/>
      <point x="288" y="121" type="line"/>
      <point x="256" y="101" type="line"/>
      <point x="183" y="203" type="line"/>
      <point x="20" y="102" type="line"/>
    </contour>
    <contour>
      <point x="81" y="120" type="line"/>
      <point x="215" y="120" type="line"/>
      <point x="216" y="768" type="line"/>
      <point x="197" y="768" type="line"/>
      <point x="33" y="652" type="line"/>
      <point x="33" y="637" type="line"/>
      <point x="63" y="629"/>
      <point x="82" y="616"/>
      <point x="82" y="584" type="curve" smooth="yes"/>
    </contour>
  </outline>
</glyph>
<glyph name="m" format="2">
  <advance width="781"/>
  <unicode hex="006D"/>
  <note>
m
</note>
  <outline>
    <contour>
      <point x="172.74" y="-14.57" type="line"/>
      <point x="268.61" y="71.71" type="line"/>
      <point x="225.47" y="110.06" type="line"/>
      <point x="225.47" y="393.21" type="line"/>
      <point x="269.15" y="419.68" type="line"/>
      <point x="338.51" y="356.53" type="line"/>
      <point x="338.51" y="110.06" type="line"/>
      <point x="296.52" y="71.68" type="line"/>
      <point x="395.62" y="-14.57" type="line"/>
      <point x="505.51" y="74" type="line"/>
      <point x="453.58" y="120.33" type="line"/>
      <point x="453.58" y="387.79" type="line"/>
      <point x="506.17" y="419.66" type="line"/>
      <point x="575.53" y="356.51" type="line"/>
      <point x="575.53" y="110.04" type="line"/>
      <point x="533.54" y="71.66" type="line"/>
      <point x="632.64" y="-14.59" type="line"/>
      <point x="780.97" y="81.66" type="line"/>
      <point x="767" y="106" type="line"/>
      <point x="737.31" y="85.99" type="line"/>
      <point x="690.57" y="133.66" type="line"/>
      <point x="690.57" y="384.92" type="line"/>
      <point x="739.99" y="425" type="line"/>
      <point x="722.35" y="446.75" type="line"/>
      <point x="689.78" y="420.34" type="line"/>
      <point x="585.93" y="509.91" type="line"/>
      <point x="448.44" y="424.08" type="line"/>
      <point x="348.93" y="509.91" type="line"/>
      <point x="217.52" y="427.88" type="line"/>
      <point x="143.98" y="509.91" type="line"/>
      <point x="4.97" y="414.04" type="line"/>
      <point x="19.35" y="394.87" type="line"/>
      <point x="57.7" y="418.84" type="line"/>
      <point x="96.05" y="375.7" type="line"/>
      <point x="96.05" y="110.06" type="line"/>
      <point x="57.7" y="76.51" type="line"/>
    </contour>
  </outline>
</glyph>
<glyph name="n" format="2">
  <advance width="557"/>
  <unicode hex="006E"/>
  <note>
n
</note>
  <outline>
    <contour>
      <point x="173" y="-15" type="line"/>
      <point x="269" y="72" type="line"/>
      <point x="226" y="110" type="line"/>
      <point x="226" y="385" type="line"/>
      <point x="269" y="419" type="line"/>
      <point x="341" y="357" type="line"/>
      <point x="341" y="110" type="line"/>
      <point x="307" y="77" type="line"/>
      <point x="408" y="-15" type="line"/>
      <point x="556" y="86" type="line"/>
      <point x="537" y="115" type="line"/>
      <point x="499" y="86" type="line"/>
      <point x="456" y="124" type="line"/>
      <point x="456" y="386" type="line"/>
      <point x="504" y="425" type="line"/>
      <point x="486" y="447" type="line"/>
      <point x="444" y="413" type="line"/>
      <point x="331" y="510" type="line"/>
      <point x="221" y="424" type="line"/>
      <point x="144" y="510" type="line"/>
      <point x="5" y="414" type="line"/>
      <point x="19" y="395" type="line"/>
      <point x="58" y="419" type="line"/>
      <point x="96" y="376" type="line"/>
      <point x="96" y="110" type="line"/>
      <point x="58" y="77" type="line"/>
    </contour>
  </outline>
</glyph>
<glyph name="p" format="2">
  <advance width="480"/>
  <unicode hex="0070"/>
  <note>
p
</note>
  <outline>
    <contour>
      <point x="204" y="116" type="curve"/>
      <point x="204" y="387" type="line"/>
      <point x="247" y="421" type="line"/>
      <point x="313" y="366" type="line"/>
      <point x="313" y="69" type="line"/>
      <point x="290" y="80"/>
      <point x="228" y="108"/>
    </contour>
    <contour>
      <point x="88" y="-174" type="line"/>
      <point x="107" y="-174" type="line"/>
      <point x="250" y="-88" type="line"/>
      <point x="250" y="-74" type="line"/>
      <point x="214" y="-65"/>
      <point x="204" y="-38"/>
      <point x="204" y="0" type="curve" smooth="yes"/>
      <point x="204" y="42" type="line"/>
      <point x="227" y="32"/>
      <point x="250" y="21"/>
      <point x="271" y="8" type="curve"/>
      <point x="323" y="52"/>
      <point x="377" y="89"/>
      <point x="437" y="124" type="curve"/>
      <point x="437" y="402" type="line"/>
      <point x="475" y="432" type="line"/>
      <point x="457" y="454" type="line"/>
      <point x="427" y="429" type="line"/>
      <point x="330" y="515" type="line"/>
      <point x="204" y="420" type="line"/>
      <point x="204" y="439" type="line"/>
      <point x="189" y="468"/>
      <point x="164" y="496"/>
      <point x="136" y="513" type="curve"/>
      <point x="15" y="432" type="line"/>
      <point x="26" y="416" type="line"/>
      <point x="32" y="421"/>
      <point x="41" y="424"/>
      <point x="49" y="424" type="curve" smooth="yes"/>
      <point x="71" y="424"/>
      <point x="90" y="403"/>
      <point x="88" y="380" type="curve"/>
      <point x="88" y="130" type="line"/>
      <point x="36" y="87" type="line"/>
      <point x="54" y="85"/>
      <point x="71" y="82"/>
      <point x="88" y="79" type="curve"/>
    </contour>
  </outline>
</glyph>
<glyph name="q" format="2">
  <advance width="477"/>
  <unicode hex="0071"/>
  <note>
q
</note>
  <outline>
    <contour>
      <point x="289.3" y="-170.75" type="line"/>
      <point x="289.3" y="78.79" type="line"/>
      <point x="163.3" y="-3.5" type="line"/>
      <point x="61.3" y="92" type="line"/>
      <point x="61.29" y="388.3" type="line"/>
      <point x="286.92" y="516.28" type="line"/>
      <point x="437.89" y="425.13" type="line"/>
      <point x="476.24" y="449.1" type="line"/>
      <point x="490.62" y="429.93" type="line"/>
      <point x="423.51" y="386.79" type="line"/>
      <point x="423.51" y="11.41" type="line" smooth="yes"/>
      <point x="424" y="-17"/>
      <point x="436" y="-31"/>
      <point x="471.45" y="-41.33" type="curve"/>
      <point x="471.45" y="-55.71" type="line"/>
      <point x="308.47" y="-170.75" type="line"/>
    </contour>
    <contour>
      <point x="244.3" y="82.33" type="line"/>
      <point x="289.3" y="111.62" type="line"/>
      <point x="289.3" y="372" type="line"/>
      <point x="184.3" y="433.5" type="line"/>
      <point x="184.3" y="145" type="line"/>
    </contour>
  </outline>
</glyph>
<glyph name="r" format="2">
  <advance width="399"/>
  <unicode hex="0072"/>
  <note>
r
</note>
  <outline>
    <contour>
      <point x="54" y="55" type="line"/>
      <point x="87" y="79" type="line"/>
      <point x="196" y="0" type="line"/>
      <point x="344" y="104" type="line"/>
      <point x="325" y="125" type="line"/>
      <point x="273" y="88" type="line"/>
      <point x="175" y="174" type="line"/>
      <point x="36" y="75" type="line"/>
    </contour>
    <contour>
      <point x="101" y="100" type="line"/>
      <point x="233" y="100" type="line"/>
      <point x="234" y="419" type="line"/>
      <point x="149" y="513" type="line"/>
      <point x="12" y="423" type="line"/>
      <point x="29" y="401" type="line"/>
      <point x="67" y="425" type="line"/>
      <point x="100" y="384" type="line"/>
    </contour>
    <contour>
      <point x="321" y="372" type="curve" smooth="yes"/>
      <point x="400" y="372"/>
      <point x="422" y="481"/>
      <point x="422" y="514" type="curve"/>
      <point x="391" y="513" type="line"/>
      <point x="387" y="500"/>
      <point x="372" y="488"/>
      <point x="347" y="488" type="curve" smooth="yes"/>
      <point x="331" y="488"/>
      <point x="313" y="494"/>
      <point x="306" y="513" type="curve"/>
      <point x="289" y="513" type="line"/>
      <point x="212" y="421" type="line"/>
      <point x="234" y="400"/>
      <point x="282" y="372"/>
    </contour>
  </outline>
</glyph>
<glyph name="s" format="2">
  <advance width="426"/>
  <unicode hex="0073"/>
  <note>
s
</note>
  <outline>
    <contour>
      <point x="92" y="-52" type="curve"/>
      <point x="101" y="-26" type="line"/>
      <point x="91" y="-21"/>
      <point x="87" y="-8"/>
      <point x="87" y="0" type="curve" smooth="yes"/>
      <point x="87" y="17"/>
      <point x="106" y="37"/>
      <point x="132" y="37" type="curve" smooth="yes"/>
      <point x="166" y="36"/>
      <point x="192" y="18"/>
      <point x="208" y="-10" type="curve"/>
      <point x="406" y="110" type="line"/>
      <point x="406" y="261" type="line"/>
      <point x="320" y="325" type="line"/>
      <point x="372" y="370"/>
      <point x="399" y="430"/>
      <point x="407" y="510" type="curve"/>
      <point x="379" y="510" type="line"/>
      <point x="376" y="485"/>
      <point x="354" y="468"/>
      <point x="329" y="468" type="curve" smooth="yes"/>
      <point x="301" y="468"/>
      <point x="272" y="487"/>
      <point x="255" y="512" type="curve"/>
      <point x="48" y="392" type="line"/>
      <point x="48" y="252" type="line"/>
      <point x="124" y="192" type="line"/>
      <point x="99" y="169" type="line" smooth="yes"/>
      <point x="59" y="133"/>
      <point x="29" y="84"/>
      <point x="29" y="43" type="curve" smooth="yes"/>
      <point x="29" y="-12"/>
      <point x="59" y="-44"/>
    </contour>
    <contour>
      <point x="91" y="119" type="curve"/>
      <point x="100" y="130"/>
      <point x="109" y="140"/>
      <point x="119" y="149" type="curve" smooth="yes"/>
      <point x="221" y="240" type="line"/>
      <point x="277" y="196" type="line"/>
      <point x="277" y="66" type="line"/>
      <point x="256" y="111"/>
      <point x="211" y="142"/>
      <point x="157" y="142" type="curve" smooth="yes"/>
      <point x="136" y="142"/>
      <point x="113" y="137"/>
    </contour>
    <contour>
      <point x="219" y="275" type="line"/>
      <point x="177" y="317" type="line"/>
      <point x="177" y="447" type="line"/>
      <point x="196" y="401"/>
      <point x="240" y="373"/>
      <point x="295" y="373" type="curve" smooth="yes"/>
      <point x="310" y="373"/>
      <point x="326" y="378"/>
      <point x="337" y="385" type="curve"/>
      <point x="327" y="370"/>
      <point x="308" y="351"/>
      <point x="292" y="338" type="curve" smooth="yes"/>
    </contour>
  </outline>
</glyph>
<glyph name="t" format="2">
  <advance width="321"/>
  <unicode hex="0074"/>
  <note>
t
</note>
  <outline>
    <contour>
      <point x="183" y="424" type="line"/>
      <point x="183" y="480" type="line"/>
      <point x="351" y="480" type="line"/>
      <point x="305" y="424" type="line"/>
    </contour>
    <contour>
      <point x="45" y="62" type="line"/>
      <point x="31" y="80" type="line"/>
      <point x="171" y="176" type="line"/>
      <point x="278" y="67" type="line"/>
      <point x="312" y="85" type="line"/>
      <point x="325" y="67" type="line"/>
      <point x="188" y="-5" type="line"/>
      <point x="83" y="85" type="line"/>
    </contour>
    <contour>
      <point x="98" y="89" type="line"/>
      <point x="99" y="366" type="line" smooth="yes"/>
      <point x="99" y="398"/>
      <point x="80" y="411"/>
      <point x="50" y="419" type="curve"/>
      <point x="50" y="434" type="line"/>
      <point x="214" y="595" type="line"/>
      <point x="233" y="595" type="line"/>
      <point x="232" y="89" type="line"/>
    </contour>
  </outline>
</glyph>
<glyph name="u" format="2">
  <advance width="508"/>
  <unicode hex="0075"/>
  <note>
u
</note>
  <outline>
    <contour>
      <point x="208.33" y="-4" type="line"/>
      <point x="334.67" y="95.33" type="line"/>
      <point x="339" y="46"/>
      <point x="365" y="4"/>
      <point x="411.33" y="-1.99" type="curve"/>
      <point x="530" y="82" type="line"/>
      <point x="515" y="102" type="line"/>
      <point x="475.67" y="75.01" type="line"/>
      <point x="454" y="89"/>
      <point x="449" y="113"/>
      <point x="449" y="143" type="curve" smooth="yes"/>
      <point x="448.15" y="424.08" type="line"/>
      <point x="491.29" y="457.63" type="line"/>
      <point x="476.91" y="476.8" type="line"/>
      <point x="441.94" y="452.5" type="line"/>
      <point x="375.19" y="510" type="line"/>
      <point x="281" y="424" type="line"/>
      <point x="333.11" y="377.51" type="line"/>
      <point x="333.29" y="123.66" type="line"/>
      <point x="285.83" y="88.5" type="line"/>
      <point x="223.06" y="148" type="line"/>
      <point x="223.06" y="388.5" type="line" smooth="yes"/>
      <point x="223" y="447"/>
      <point x="195" y="493"/>
      <point x="144" y="508.67" type="curve"/>
      <point x="15" y="425.34" type="line"/>
      <point x="25.19" y="411.01" type="line"/>
      <point x="30" y="415"/>
      <point x="48" y="427"/>
      <point x="59" y="427" type="curve" smooth="yes"/>
      <point x="84" y="427"/>
      <point x="104" y="411"/>
      <point x="103.63" y="370.69" type="curve" smooth="yes"/>
      <point x="103.57" y="136" type="line"/>
      <point x="72.08" y="110" type="line"/>
    </contour>
  </outline>
</glyph>
<glyph name="v" format="2">
  <advance width="514"/>
  <unicode hex="0076"/>
  <note>
v
</note>
  <outline>
    <contour>
      <point x="48.66" y="64.98" type="line"/>
      <point x="66.3" y="43.25" type="line"/>
      <point x="97.5" y="68.55" type="line"/>
      <point x="232.61" y="-14.17" type="line"/>
      <point x="461.96" y="122.58" type="line"/>
      <point x="462.16" y="394.08" type="line"/>
      <point x="499.29" y="424.25" type="line"/>
      <point x="397.79" y="513.25" type="line"/>
      <point x="293.04" y="426.5" type="line"/>
      <point x="337.33" y="386.28" type="line"/>
      <point x="337.33" y="81.99" type="line"/>
      <point x="308.46" y="65.17" type="line"/>
      <point x="218.29" y="122.59" type="line"/>
      <point x="218" y="358" type="line" smooth="yes"/>
      <point x="218" y="500"/>
      <point x="98" y="471"/>
      <point x="98" y="548" type="curve" smooth="yes"/>
      <point x="98" y="570"/>
      <point x="110" y="588"/>
      <point x="138" y="598" type="curve"/>
      <point x="141.55" y="598.93" type="line"/>
      <point x="136.66" y="617.99" type="line"/>
      <point x="69" y="612"/>
      <point x="4" y="562"/>
      <point x="4.01" y="499.73" type="curve" smooth="yes"/>
      <point x="4" y="415"/>
      <point x="94" y="435"/>
      <point x="94" y="302" type="curve" smooth="yes"/>
      <point x="93.66" y="101.48" type="line"/>
    </contour>
  </outline>
</glyph>
<glyph name="w" format="2">
  <advance width="716"/>
  <unicode hex="0077"/>
  <note>
w
</note>
  <outline>
    <contour>
      <point x="480" y="424" type="line"/>
      <point x="378" y="513" type="line"/>
      <point x="274" y="427" type="line"/>
      <point x="318" y="386" type="line"/>
      <point x="318" y="82" type="line"/>
      <point x="299" y="71" type="line"/>
      <point x="220" y="123" type="line"/>
      <point x="220" y="346" type="line" smooth="yes"/>
      <point x="220" y="506"/>
      <point x="100" y="469"/>
      <point x="100" y="547" type="curve" smooth="yes"/>
      <point x="100" y="575"/>
      <point x="117" y="591"/>
      <point x="143" y="599" type="curve"/>
      <point x="138" y="618" type="line"/>
      <point x="71" y="613"/>
      <point x="6" y="563"/>
      <point x="6" y="500" type="curve" smooth="yes"/>
      <point x="6" y="417"/>
      <point x="95" y="429"/>
      <point x="95" y="316" type="curve" smooth="yes"/>
      <point x="95" y="101" type="line"/>
      <point x="50" y="65" type="line"/>
      <point x="68" y="43" type="line"/>
      <point x="99" y="68" type="line"/>
      <point x="213" y="-14" type="line"/>
      <point x="339" y="56" type="line"/>
      <point x="436" y="-14" type="line"/>
      <point x="668" y="109" type="line"/>
      <point x="668" y="423" type="line"/>
      <point x="727" y="471" type="line"/>
      <point x="709" y="493" type="line"/>
      <point x="667" y="458" type="line"/>
      <point x="604" y="513" type="line"/>
      <point x="499" y="426" type="line"/>
      <point x="543" y="386" type="line"/>
      <point x="543" y="83" type="line"/>
      <point x="522" y="71" type="line"/>
      <point x="443" y="123" type="line"/>
      <point x="443" y="394" type="line"/>
    </contour>
  </outline>
</glyph>
<glyph name="x" format="2">
  <advance width="531"/>
  <unicode hex="0078"/>
  <note>
x
</note>
  <outline>
    <contour>
      <point x="35" y="7" type="curve"/>
      <point x="56" y="7" type="line"/>
      <point x="70" y="24"/>
      <point x="88" y="32"/>
      <point x="109" y="32" type="curve" smooth="yes"/>
      <point x="129" y="32"/>
      <point x="150" y="20"/>
      <point x="160" y="7" type="curve"/>
      <point x="171" y="7" type="line"/>
      <point x="171" y="8" type="line"/>
      <point x="171" y="7" type="line"/>
      <point x="232" y="162" type="line"/>
      <point x="277" y="62" type="line"/>
      <point x="373" y="0" type="line"/>
      <point x="509" y="96" type="line"/>
      <point x="489" y="122" type="line"/>
      <point x="465" y="103"/>
      <point x="446" y="92"/>
      <point x="430" y="92" type="curve" smooth="yes"/>
      <point x="416" y="92"/>
      <point x="409" y="99"/>
      <point x="401" y="115" type="curve" smooth="yes"/>
      <point x="299" y="333" type="line"/>
      <point x="321" y="390" type="line"/>
      <point x="336" y="383"/>
      <point x="364" y="372"/>
      <point x="386" y="372" type="curve" smooth="yes"/>
      <point x="454" y="372"/>
      <point x="480" y="429"/>
      <point x="488" y="510" type="curve"/>
      <point x="459" y="510" type="line"/>
      <point x="449" y="494"/>
      <point x="431" y="486"/>
      <point x="413" y="486" type="curve" smooth="yes"/>
      <point x="397" y="486"/>
      <point x="377" y="496"/>
      <point x="368" y="510" type="curve"/>
      <point x="345" y="510" type="line"/>
      <point x="285" y="363" type="line"/>
      <point x="234" y="473" type="line"/>
      <point x="154" y="520" type="line"/>
      <point x="27" y="435" type="line"/>
      <point x="43" y="411" type="line"/>
      <point x="54" y="419"/>
      <point x="72" y="432"/>
      <point x="91" y="432" type="curve" smooth="yes"/>
      <point x="105" y="432"/>
      <point x="118" y="419"/>
      <point x="126" y="401" type="curve" smooth="yes"/>
      <point x="217" y="195" type="line"/>
      <point x="192" y="133" type="line"/>
      <point x="179" y="139"/>
      <point x="160" y="145"/>
      <point x="133" y="145" type="curve" smooth="yes"/>
      <point x="75" y="145"/>
      <point x="38" y="82"/>
    </contour>
  </outline>
</glyph>
<glyph name="y" format="2">
  <advance width="518"/>
  <unicode hex="0079"/>
  <note>
y
</note>
  <outline>
    <contour>
      <point x="62.45" y="-153.59" type="curve"/>
      <point x="48.07" y="-144.01" type="line"/>
      <point x="72" y="-81"/>
      <point x="135" y="-34"/>
      <point x="201" y="-34" type="curve" smooth="yes"/>
      <point x="249" y="-34"/>
      <point x="298" y="-52"/>
      <point x="330.89" y="-86.49" type="curve"/>
      <point x="352" y="-85"/>
      <point x="368" y="-66"/>
      <point x="368" y="-41" type="curve" smooth="yes"/>
      <point x="368" y="-20"/>
      <point x="334" y="32"/>
      <point x="333.75" y="64.74" type="curve"/>
      <point x="239.83" y="-0.21" type="line"/>
      <point x="96.03" y="100.45" type="line"/>
      <point x="96.03" y="380.89" type="line"/>
      <point x="59.32" y="424.49" type="line"/>
      <point x="19.33" y="399.75" type="line"/>
      <point x="4.95" y="418.92" type="line"/>
      <point x="139.17" y="510" type="line"/>
      <point x="215.87" y="418.92" type="line"/>
      <point x="215.87" y="162.77" type="line"/>
      <point x="332.3" y="89.94" type="line"/>
      <point x="331.49" y="380.89" type="line"/>
      <point x="277.7" y="444.82" type="line"/>
      <point x="374.24" y="510.34" type="line"/>
      <point x="465.1" y="402.83" type="line"/>
      <point x="465" y="139" type="line" smooth="yes"/>
      <point x="465" y="60"/>
      <point x="494" y="50"/>
      <point x="494" y="20" type="curve" smooth="yes"/>
      <point x="494" y="-5"/>
      <point x="466" y="-24"/>
      <point x="425.18" y="-53" type="curve" smooth="yes"/>
      <point x="240.26" y="-183.5" type="line"/>
      <point x="223" y="-157"/>
      <point x="185" y="-128"/>
      <point x="134" y="-128" type="curve" smooth="yes"/>
      <point x="102" y="-128"/>
      <point x="81" y="-140"/>
    </contour>
  </outline>
</glyph>
<glyph name="bar" format="2">
  <advance width="164"/>
  <unicode hex="007C"/>
  <note>
bar
</note>
  <outline>
    <contour>
      <point x="136" y="92" type="line"/>
      <point x="29" y="-5.15" type="line"/>
      <point x="29" y="663.85" type="line"/>
      <point x="136" y="761" type="line"/>
    </contour>
  </outline>
</glyph>
<glyph name="asciitilde" format="2">
  <advance width="535"/>
  <unicode hex="007E"/>
  <note>
asciitilde
</note>
  <outline>
    <contour>
      <point x="28.85" y="368.57" type="curve"/>
      <point x="59.81" y="354.81" type="line"/>
      <point x="68.97" y="363.65"/>
      <point x="79.25" y="371.33"/>
      <point x="90.34" y="377.58" type="curve" smooth="yes"/>
      <point x="100.76" y="383.46"/>
      <point x="111.92" y="388.05"/>
      <point x="123.5" y="391.08" type="curve" smooth="yes"/>
      <point x="150.4" y="398.12"/>
      <point x="179.03" y="395.85"/>
      <point x="205.95" y="388.9" type="curve" smooth="yes"/>
      <point x="232.87" y="381.95"/>
      <point x="258.65" y="371.09"/>
      <point x="285.48" y="363.8" type="curve" smooth="yes"/>
      <point x="308.02" y="357.67"/>
      <point x="331.42" y="354.16"/>
      <point x="354.75" y="355.37" type="curve" smooth="yes"/>
      <point x="378.08" y="356.58"/>
      <point x="401.15" y="362.46"/>
      <point x="422.22" y="372.55" type="curve" smooth="yes"/>
      <point x="447.81" y="384.81"/>
      <point x="470.36" y="403.07"/>
      <point x="488.6" y="424.8" type="curve" smooth="yes"/>
      <point x="502.1" y="440.88"/>
      <point x="513.3" y="458.89"/>
      <point x="521.84" y="478.07" type="curve"/>
      <point x="490.88" y="491.84" type="line"/>
      <point x="484.73" y="480.56"/>
      <point x="475.73" y="470.86"/>
      <point x="465.02" y="463.75" type="curve" smooth="yes"/>
      <point x="455.02" y="457.11"/>
      <point x="443.61" y="452.72"/>
      <point x="431.86" y="450.25" type="curve" smooth="yes"/>
      <point x="409.71" y="445.6"/>
      <point x="386.65" y="447.49"/>
      <point x="364.44" y="451.81" type="curve" smooth="yes"/>
      <point x="342.23" y="456.13"/>
      <point x="320.58" y="462.92"/>
      <point x="298.86" y="469.25" type="curve" smooth="yes"/>
      <point x="271.64" y="477.18"/>
      <point x="243.94" y="484.4"/>
      <point x="215.61" y="485.54" type="curve" smooth="yes"/>
      <point x="187.28" y="486.69"/>
      <point x="158.59" y="481.29"/>
      <point x="133.15" y="468.77" type="curve" smooth="yes"/>
      <point x="107.74" y="456.27"/>
      <point x="85.93" y="437.38"/>
      <point x="66.77" y="416.52" type="curve" smooth="yes"/>
      <point x="52.98" y="401.5"/>
      <point x="40.37" y="385.4"/>
    </contour>
  </outline>
</glyph>
<glyph name="exclamdown" format="2">
  <advance width="213"/>
  <unicode hex="00A1"/>
  <note>
exclamdown
</note>
  <outline>
    <contour>
      <point x="106.67" y="585.53" type="line"/>
      <point x="16.79" y="675.41" type="line"/>
      <point x="108.14" y="766.76" type="line"/>
      <point x="198.02" y="676.88" type="line"/>
    </contour>
    <contour>
      <point x="54.94" y="165.88" type="curve" smooth="yes"/>
      <point x="100.94" y="543.88" type="line"/>
      <point x="128.94" y="543.88" type="line"/>
      <point x="171.94" y="-10.87" type="line"/>
      <point x="152.77" y="-10.87" type="line"/>
      <point x="15.01" y="77.77" type="line"/>
      <point x="15.01" y="92.15" type="line"/>
      <point x="23.54" y="92"/>
      <point x="32.01" y="95.55"/>
      <point x="38.07" y="101.55" type="curve" smooth="yes"/>
      <point x="42.09" y="105.52"/>
      <point x="45.08" y="110.47"/>
      <point x="47.15" y="115.73" type="curve" smooth="yes"/>
      <point x="49.22" y="120.99"/>
      <point x="50.41" y="126.56"/>
      <point x="51.23" y="132.16" type="curve" smooth="yes"/>
      <point x="52.87" y="143.35"/>
      <point x="53.58" y="154.65"/>
    </contour>
  </outline>
</glyph>
<glyph name="sterling" format="2">
  <advance width="651"/>
  <unicode hex="00A3"/>
  <note>
sterling
</note>
  <outline>
    <contour>
      <point x="651.49" y="109.26" type="curve"/>
      <point x="598" y="185.27" type="line"/>
      <point x="581.16" y="159.4"/>
      <point x="555.39" y="139.67"/>
      <point x="526.33" y="129.27" type="curve" smooth="yes"/>
      <point x="492.36" y="117.12"/>
      <point x="455.15" y="117.77"/>
      <point x="419.35" y="122.29" type="curve" smooth="yes"/>
      <point x="383.56" y="126.81"/>
      <point x="348.05" y="134.22"/>
      <point x="311.99" y="135.6" type="curve" smooth="yes"/>
      <point x="288.8" y="136.49"/>
      <point x="265.5" y="135.03"/>
      <point x="242.66" y="130.93" type="curve"/>
      <point x="277.05" y="156"/>
      <point x="312.19" y="181.42"/>
      <point x="337.99" y="215.26" type="curve" smooth="yes"/>
      <point x="346.42" y="226.32"/>
      <point x="353.38" y="238.63"/>
      <point x="357.38" y="251.95" type="curve" smooth="yes"/>
      <point x="361.37" y="265.27"/>
      <point x="361.99" y="279.35"/>
      <point x="361.99" y="293.26" type="curve" smooth="yes"/>
      <point x="361.99" y="366.99" type="line"/>
      <point x="497.91" y="366.99" type="line"/>
      <point x="500.38" y="473.99" type="line"/>
      <point x="362" y="473.99" type="line"/>
      <point x="362" y="585.99" type="line" smooth="yes"/>
      <point x="362" y="597.76"/>
      <point x="362.11" y="609.62"/>
      <point x="364.47" y="621.16" type="curve" smooth="yes"/>
      <point x="366.82" y="632.69"/>
      <point x="371.47" y="643.88"/>
      <point x="378.83" y="653.06" type="curve" smooth="yes"/>
      <point x="386.2" y="662.24"/>
      <point x="396.27" y="669.3"/>
      <point x="407.53" y="672.72" type="curve" smooth="yes"/>
      <point x="418.79" y="676.15"/>
      <point x="431.15" y="675.91"/>
      <point x="442.25" y="671.99" type="curve"/>
      <point x="461.25" y="695.99" type="line"/>
      <point x="431.42" y="712.42"/>
      <point x="396.16" y="718.83"/>
      <point x="362.46" y="713.88" type="curve" smooth="yes"/>
      <point x="328.76" y="708.93"/>
      <point x="296.76" y="692.64"/>
      <point x="273.25" y="667.99" type="curve" smooth="yes"/>
      <point x="256.39" y="650.32"/>
      <point x="244.08" y="628.4"/>
      <point x="237.4" y="604.91" type="curve" smooth="yes"/>
      <point x="230.72" y="581.41"/>
      <point x="230" y="556.69"/>
      <point x="230" y="532.26" type="curve" smooth="yes"/>
      <point x="230" y="473.99" type="line"/>
      <point x="187" y="473.99" type="line"/>
      <point x="187" y="511.76" type="line" smooth="yes"/>
      <point x="187" y="544.96"/>
      <point x="188.37" y="578.75"/>
      <point x="199.53" y="610.02" type="curve" smooth="yes"/>
      <point x="210.69" y="641.29"/>
      <point x="230.94" y="669.19"/>
      <point x="257" y="689.76" type="curve" smooth="yes"/>
      <point x="302.28" y="725.5"/>
      <point x="363.37" y="738.99"/>
      <point x="420.33" y="729.93" type="curve" smooth="yes"/>
      <point x="470.28" y="721.98"/>
      <point x="517.32" y="697.07"/>
      <point x="552.25" y="660.49" type="curve"/>
      <point x="530.67" y="669.87"/>
      <point x="504.55" y="667.95"/>
      <point x="484.57" y="655.52" type="curve" smooth="yes"/>
      <point x="464.6" y="643.09"/>
      <point x="451.33" y="620.49"/>
      <point x="450.25" y="596.99" type="curve" smooth="yes"/>
      <point x="449.32" y="576.69"/>
      <point x="457.37" y="556.15"/>
      <point x="471.85" y="541.89" type="curve" smooth="yes"/>
      <point x="486.33" y="527.64"/>
      <point x="506.96" y="519.94"/>
      <point x="527.25" y="520.99" type="curve" smooth="yes"/>
      <point x="547.5" y="522.03"/>
      <point x="567.03" y="531.65"/>
      <point x="580.74" y="546.58" type="curve" smooth="yes"/>
      <point x="594.45" y="561.51"/>
      <point x="602.32" y="581.45"/>
      <point x="603.6" y="601.68" type="curve" smooth="yes"/>
      <point x="604.88" y="621.91"/>
      <point x="599.75" y="642.33"/>
      <point x="590.19" y="660.21" type="curve" smooth="yes"/>
      <point x="580.63" y="678.09"/>
      <point x="566.77" y="693.49"/>
      <point x="550.77" y="705.94" type="curve" smooth="yes"/>
      <point x="518.77" y="730.84"/>
      <point x="479.08" y="744.18"/>
      <point x="439.14" y="751.19" type="curve" smooth="yes"/>
      <point x="399.21" y="758.2"/>
      <point x="358.17" y="759.73"/>
      <point x="317.99" y="754.26" type="curve" smooth="yes"/>
      <point x="270" y="747.73"/>
      <point x="223.64" y="729.57"/>
      <point x="183.99" y="701.76" type="curve" smooth="yes"/>
      <point x="110.37" y="650.13"/>
      <point x="61.69" y="564.49"/>
      <point x="54.99" y="474.82" type="curve" smooth="yes"/>
      <point x="51.76" y="431.64"/>
      <point x="56.46" y="388.3"/>
      <point x="58.16" y="345.03" type="curve" smooth="yes"/>
      <point x="59.86" y="301.76"/>
      <point x="59.23" y="258.36"/>
      <point x="54.99" y="215.26" type="curve" smooth="yes"/>
      <point x="48.5" y="149.27"/>
      <point x="34.33" y="84.04"/>
      <point x="12.99" y="21.26" type="curve"/>
      <point x="25.49" y="8.76" type="line"/>
      <point x="32.38" y="13.98"/>
      <point x="39.31" y="19.14"/>
      <point x="46.28" y="24.26" type="curve" smooth="yes"/>
      <point x="83.2" y="51.38"/>
      <point x="122.59" y="77.12"/>
      <point x="148.95" y="114.59" type="curve" smooth="yes"/>
      <point x="167.17" y="140.49"/>
      <point x="177.93" y="171.15"/>
      <point x="182.64" y="202.46" type="curve" smooth="yes"/>
      <point x="187.36" y="233.77"/>
      <point x="186.99" y="265.6"/>
      <point x="186.99" y="297.26" type="curve" smooth="yes"/>
      <point x="186.99" y="366.99" type="line"/>
      <point x="229.99" y="366.99" type="line"/>
      <point x="229.99" y="211.26" type="line" smooth="yes"/>
      <point x="229.99" y="185.16"/>
      <point x="227.95" y="158.52"/>
      <point x="217.5" y="134.6" type="curve" smooth="yes"/>
      <point x="207.05" y="110.68"/>
      <point x="189.86" y="90.29"/>
      <point x="170.99" y="72.26" type="curve" smooth="yes"/>
      <point x="147.34" y="49.66"/>
      <point x="121.4" y="29.57"/>
      <point x="94.99" y="10.26" type="curve"/>
      <point x="117.49" y="-10.24" type="line"/>
      <point x="146.54" y="8.7"/>
      <point x="180.07" y="20.53"/>
      <point x="214.49" y="24.76" type="curve" smooth="yes"/>
      <point x="261.84" y="30.58"/>
      <point x="309.64" y="21.7"/>
      <point x="356.3" y="11.77" type="curve" smooth="yes"/>
      <point x="402.96" y="1.84"/>
      <point x="450.6" y="-8.15"/>
      <point x="497.99" y="-2.74" type="curve" smooth="yes"/>
      <point x="531.07" y="1.04"/>
      <point x="563.49" y="12.43"/>
      <point x="590.57" y="31.8" type="curve" smooth="yes"/>
      <point x="617.65" y="51.17"/>
      <point x="639.13" y="78.34"/>
    </contour>
  </outline>
</glyph>
<glyph name="softhyphen" format="2">
  <advance width="494"/>
  <unicode hex="00AD"/>
  <note>
uni00AD
</note>
  <outline>
    <contour>
      <point x="382.09" y="330" type="line"/>
      <point x="504.31" y="466.59" type="line"/>
      <point x="489.93" y="480.97" type="line"/>
      <point x="466.75" y="457" type="line"/>
      <point x="161.74" y="457" type="line"/>
      <point x="39.53" y="320.41" type="line"/>
      <point x="53.91" y="306.03" type="line"/>
      <point x="78.01" y="330" type="line"/>
    </contour>
  </outline>
</glyph>
<glyph name="macron" format="2">
  <advance width="562"/>
  <unicode hex="00AF"/>
  <note>
macron
</note>
  <outline>
    <contour>
      <point x="145.01" y="670" type="line"/>
      <point x="145.01" y="563" type="line"/>
      <point x="417.98" y="562" type="line"/>
      <point x="417.98" y="669" type="line"/>
    </contour>
  </outline>
</glyph>
<glyph name="degree" format="2">
  <advance width="234"/>
  <unicode hex="00B0"/>
  <note>
degree
</note>
  <outline>
    <contour>
      <point x="20" y="618" type="curve" smooth="yes"/>
      <point x="20" y="566.11"/>
      <point x="62.11" y="524"/>
      <point x="114" y="524" type="curve" smooth="yes"/>
      <point x="165.89" y="524"/>
      <point x="208" y="566.11"/>
      <point x="208" y="618" type="curve" smooth="yes"/>
      <point x="208" y="669.89"/>
      <point x="165.89" y="712"/>
      <point x="114" y="712" type="curve" smooth="yes"/>
      <point x="62.11" y="712"/>
      <point x="20" y="669.89"/>
    </contour>
    <contour>
      <point x="48.2" y="618" type="curve" smooth="yes"/>
      <point x="48.2" y="654.32"/>
      <point x="77.68" y="683.8"/>
      <point x="114" y="683.8" type="curve" smooth="yes"/>
      <point x="150.32" y="683.8"/>
      <point x="179.8" y="654.32"/>
      <point x="179.8" y="618" type="curve" smooth="yes"/>
      <point x="179.8" y="581.68"/>
      <point x="150.32" y="552.2"/>
      <point x="114" y="552.2" type="curve" smooth="yes"/>
      <point x="77.68" y="552.2"/>
      <point x="48.2" y="581.68"/>
    </contour>
  </outline>
</glyph>
<glyph name="acute" format="2">
  <advance width="280"/>
  <unicode hex="00B4"/>
  <note>
acute
</note>
  <outline>
    <contour>
      <point x="72.34" y="544.33" type="line"/>
      <point x="200.67" y="687" type="line"/>
      <point x="149.34" y="726.67" type="line"/>
      <point x="63.67" y="551" type="line"/>
    </contour>
  </outline>
</glyph>
<glyph name="paragraph" format="2">
  <advance width="634"/>
  <unicode hex="00B6"/>
  <note>
paragraph
</note>
  <outline>
    <contour>
      <point x="271.91" y="-30.01" type="curve" smooth="yes"/>
      <point x="271.91" y="288" type="line"/>
      <point x="206.55" y="283.48"/>
      <point x="139.7" y="306.82"/>
      <point x="91.39" y="351.08" type="curve" smooth="yes"/>
      <point x="51.22" y="387.89"/>
      <point x="24.07" y="438.66"/>
      <point x="15.85" y="492.52" type="curve" smooth="yes"/>
      <point x="7.64" y="546.38"/>
      <point x="18.46" y="602.9"/>
      <point x="45.72" y="650.08" type="curve" smooth="yes"/>
      <point x="75.72" y="702"/>
      <point x="125.36" y="741.54"/>
      <point x="181.56" y="762.43" type="curve" smooth="yes"/>
      <point x="237.76" y="783.32"/>
      <point x="298.98" y="785.18"/>
      <point x="358.95" y="784.99" type="curve" smooth="yes"/>
      <point x="516.41" y="784.49" type="line"/>
      <point x="538.91" y="763.99" type="line"/>
      <point x="512.5" y="744.68"/>
      <point x="486.56" y="724.59"/>
      <point x="462.91" y="701.99" type="curve" smooth="yes"/>
      <point x="444.04" y="683.96"/>
      <point x="426.84" y="663.57"/>
      <point x="416.4" y="639.65" type="curve" smooth="yes"/>
      <point x="405.95" y="615.73"/>
      <point x="403.91" y="589.1"/>
      <point x="403.91" y="562.99" type="curve" smooth="yes"/>
      <point x="403.91" y="51.99" type="line" smooth="yes"/>
      <point x="403.91" y="30.81"/>
      <point x="402.72" y="9.25"/>
      <point x="395.17" y="-10.54" type="curve" smooth="yes"/>
      <point x="387.62" y="-30.33"/>
      <point x="374.55" y="-47.72"/>
      <point x="358.91" y="-62.01" type="curve" smooth="yes"/>
      <point x="321.65" y="-96.04"/>
      <point x="273.11" y="-115.82"/>
      <point x="223.91" y="-127.01" type="curve"/>
      <point x="223.91" y="-94.01" type="line"/>
      <point x="235.35" y="-90.83"/>
      <point x="246.09" y="-84.97"/>
      <point x="254.66" y="-76.76" type="curve" smooth="yes"/>
      <point x="260.86" y="-70.82"/>
      <point x="265.83" y="-63.53"/>
      <point x="268.66" y="-55.43" type="curve" smooth="yes"/>
      <point x="271.49" y="-47.32"/>
      <point x="271.91" y="-38.6"/>
    </contour>
    <contour>
      <point x="608.41" y="765.48" type="curve"/>
      <point x="620.91" y="752.99" type="line"/>
      <point x="603.85" y="724.11"/>
      <point x="592.13" y="692.16"/>
      <point x="585.83" y="659.21" type="curve" smooth="yes"/>
      <point x="579.53" y="626.26"/>
      <point x="578.91" y="592.53"/>
      <point x="578.91" y="558.99" type="curve" smooth="yes"/>
      <point x="578.91" y="262.99" type="line" smooth="yes"/>
      <point x="578.91" y="193.04"/>
      <point x="579.5" y="122.18"/>
      <point x="562.29" y="54.38" type="curve" smooth="yes"/>
      <point x="545.08" y="-13.42"/>
      <point x="506.94" y="-77.02"/>
      <point x="449.91" y="-117.51" type="curve" smooth="yes"/>
      <point x="410.44" y="-145.53"/>
      <point x="363.75" y="-162.65"/>
      <point x="315.91" y="-170.01" type="curve" smooth="yes"/>
      <point x="257.8" y="-178.96"/>
      <point x="196.15" y="-174.64"/>
      <point x="143.58" y="-148.29" type="curve" smooth="yes"/>
      <point x="117.3" y="-135.12"/>
      <point x="93.62" y="-116.07"/>
      <point x="77.25" y="-91.65" type="curve" smooth="yes"/>
      <point x="60.88" y="-67.23"/>
      <point x="52.2" y="-37.17"/>
      <point x="55.91" y="-8.01" type="curve" smooth="yes"/>
      <point x="58.65" y="13.57"/>
      <point x="68.29" y="34.4"/>
      <point x="83.79" y="49.67" type="curve" smooth="yes"/>
      <point x="99.29" y="64.94"/>
      <point x="120.66" y="74.33"/>
      <point x="142.41" y="74.49" type="curve" smooth="yes"/>
      <point x="162.53" y="74.64"/>
      <point x="182.68" y="66.8"/>
      <point x="197.08" y="52.75" type="curve" smooth="yes"/>
      <point x="211.48" y="38.7"/>
      <point x="219.85" y="18.6"/>
      <point x="219.41" y="-1.51" type="curve" smooth="yes"/>
      <point x="219.15" y="-13.39"/>
      <point x="215.92" y="-25.2"/>
      <point x="210.07" y="-35.54" type="curve" smooth="yes"/>
      <point x="204.21" y="-45.88"/>
      <point x="195.74" y="-54.73"/>
      <point x="185.66" y="-61.02" type="curve" smooth="yes"/>
      <point x="175.58" y="-67.31"/>
      <point x="163.91" y="-71.03"/>
      <point x="152.04" y="-71.72" type="curve" smooth="yes"/>
      <point x="140.18" y="-72.42"/>
      <point x="128.15" y="-70.09"/>
      <point x="117.41" y="-65.01" type="curve"/>
      <point x="135.49" y="-104.26"/>
      <point x="171.87" y="-134.38"/>
      <point x="213.58" y="-145.68" type="curve" smooth="yes"/>
      <point x="241.69" y="-153.3"/>
      <point x="271.79" y="-152.76"/>
      <point x="299.97" y="-145.43" type="curve" smooth="yes"/>
      <point x="328.16" y="-138.09"/>
      <point x="354.54" y="-124.17"/>
      <point x="376.91" y="-105.52" type="curve" smooth="yes"/>
      <point x="402.35" y="-84.3"/>
      <point x="422.46" y="-56.57"/>
      <point x="433.87" y="-25.47" type="curve" smooth="yes"/>
      <point x="445.28" y="5.64"/>
      <point x="446.91" y="39.35"/>
      <point x="446.91" y="72.48" type="curve" smooth="yes"/>
      <point x="446.91" y="476.98" type="line" smooth="yes"/>
      <point x="446.91" y="508.64"/>
      <point x="446.54" y="540.47"/>
      <point x="451.26" y="571.78" type="curve" smooth="yes"/>
      <point x="455.98" y="603.09"/>
      <point x="466.74" y="633.75"/>
      <point x="484.95" y="659.65" type="curve" smooth="yes"/>
      <point x="511.31" y="697.12"/>
      <point x="550.7" y="722.87"/>
      <point x="587.62" y="749.98" type="curve" smooth="yes"/>
      <point x="594.59" y="755.1"/>
      <point x="601.52" y="760.26"/>
    </contour>
  </outline>
</glyph>
<glyph name="ordmasculine" format="2">
  <advance width="393"/>
  <unicode hex="00BA"/>
  <note>
ordmasculine
</note>
  <outline>
    <contour>
      <point x="259.28" y="428.03" type="line"/>
      <point x="173" y="485.55" type="line"/>
      <point x="173" y="701.26" type="line"/>
      <point x="259.28" y="643.74" type="line"/>
    </contour>
    <contour>
      <point x="37.55" y="437.73" type="line"/>
      <point x="50.76" y="421.43" type="line"/>
      <point x="81.89" y="446.67" type="line"/>
      <point x="116.95" y="421.01"/>
      <point x="152.18" y="395.98"/>
      <point x="187.38" y="370.5" type="curve"/>
      <point x="352.76" y="471.16" type="line"/>
      <point x="352.76" y="676.08" type="line"/>
      <point x="244.91" y="758.77" type="line"/>
      <point x="75.94" y="661.7" type="line"/>
      <point x="75.94" y="597.42"/>
      <point x="75.94" y="533.15"/>
      <point x="75.94" y="468.87" type="curve"/>
    </contour>
  </outline>
</glyph>
<glyph name="onehalf" format="2">
  <advance width="600"/>
  <unicode hex="00BD"/>
  <outline>
    <contour>
      <point x="199" y="590" type="line"/>
      <point x="438" y="411" type="line"/>
      <point x="503" y="249" type="line"/>
      <point x="382" y="129" type="line"/>
      <point x="333" y="323" type="line"/>
      <point x="192" y="314" type="line"/>
      <point x="246" y="175" type="line"/>
      <point x="273" y="150"/>
      <point x="340" y="109"/>
      <point x="326" y="99" type="curve" smooth="yes"/>
      <point x="312" y="89"/>
      <point x="234" y="57"/>
      <point x="199" y="72" type="curve" smooth="yes"/>
      <point x="164" y="87"/>
      <point x="154" y="81"/>
      <point x="131" y="112" type="curve" smooth="yes"/>
      <point x="108" y="143"/>
      <point x="71" y="233"/>
      <point x="77" y="248" type="curve" smooth="yes"/>
      <point x="83" y="263"/>
      <point x="119" y="302"/>
      <point x="123" y="322" type="curve" smooth="yes"/>
      <point x="127" y="342"/>
      <point x="121" y="356"/>
      <point x="150" y="396" type="curve" smooth="yes"/>
      <point x="179" y="436"/>
      <point x="253" y="461"/>
      <point x="219" y="487" type="curve"/>
      <point x="180" y="543" type="line"/>
      <point x="148" y="571" type="line"/>
    </contour>
  </outline>
</glyph>
<glyph name="questiondown" format="2">
  <advance width="319"/>
  <unicode hex="00BF"/>
  <note>
questiondown
</note>
  <outline>
    <contour>
      <point x="216.45" y="609.77" type="line"/>
      <point x="306.33" y="699.65" type="line"/>
      <point x="214.98" y="791" type="line"/>
      <point x="125.1" y="701.12" type="line"/>
    </contour>
    <contour>
      <point x="261.32" y="392.12" type="line"/>
      <point x="241.33" y="581.12" type="line"/>
      <point x="215.33" y="580.12" type="line"/>
      <point x="219.45" y="553.13"/>
      <point x="210.59" y="524.72"/>
      <point x="192.75" y="504.04" type="curve" smooth="yes"/>
      <point x="183.83" y="493.7"/>
      <point x="172.9" y="485.21"/>
      <point x="161.1" y="478.35" type="curve" smooth="yes"/>
      <point x="149.3" y="471.49"/>
      <point x="136.64" y="466.25"/>
      <point x="123.99" y="461.12" type="curve" smooth="yes"/>
      <point x="35.32" y="425.12" type="line"/>
      <point x="43.9" y="384.77"/>
      <point x="44.92" y="342.84"/>
      <point x="38.32" y="302.12" type="curve" smooth="yes"/>
      <point x="31.97" y="262.96"/>
      <point x="18.58" y="224.95"/>
      <point x="-1.01" y="190.45" type="curve"/>
      <point x="223.32" y="36.12" type="line"/>
      <point x="206.32" y="-0.88" type="line"/>
      <point x="226.32" y="-10.88" type="line"/>
      <point x="305.32" y="139.62" type="line"/>
      <point x="60.32" y="298.12" type="line"/>
    </contour>
  </outline>
</glyph>
<glyph name="Aring" format="2">
  <advance width="767"/>
  <unicode hex="00C5"/>
  <outline>
    <contour>
      <point x="44" y="-10" type="curve"/>
      <point x="63" y="-10" type="line"/>
      <point x="107.41" y="36.91"/>
      <point x="171" y="65"/>
      <point x="236" y="65" type="curve" smooth="yes"/>
      <point x="293" y="65"/>
      <point x="350.57" y="44.22"/>
      <point x="394" y="6.77" type="curve"/>
      <point x="505.83" y="103.37" type="line"/>
      <point x="537" y="67"/>
      <point x="581" y="26"/>
      <point x="626" y="-3.24" type="curve"/>
      <point x="759" y="103.82" type="line"/>
      <point x="730" y="136.82" type="line"/>
      <point x="696" y="108.99" type="line"/>
      <point x="652" y="143"/>
      <point x="653" y="189"/>
      <point x="653" y="251.66" type="curve" smooth="yes"/>
      <point x="653" y="276.49" type="line"/>
      <point x="653" y="612.99" type="line"/>
      <point x="653" y="643.99" type="line" smooth="yes"/>
      <point x="653" y="702"/>
      <point x="660" y="716"/>
      <point x="694" y="754" type="curve"/>
      <point x="672.25" y="772.08" type="line"/>
      <point x="610.4" y="712.82" type="line"/>
      <point x="571.2" y="739.16"/>
      <point x="526.12" y="756.8"/>
      <point x="479.5" y="764.01" type="curve" smooth="yes"/>
      <point x="543" y="763"/>
      <point x="575" y="811"/>
      <point x="575" y="858" type="curve" smooth="yes"/>
      <point x="575" y="910"/>
      <point x="533" y="952"/>
      <point x="481" y="952" type="curve" smooth="yes"/>
      <point x="429" y="952"/>
      <point x="387" y="909.89"/>
      <point x="387" y="858" type="curve" smooth="yes"/>
      <point x="387" y="813.46"/>
      <point x="418.03" y="776.12"/>
      <point x="459.64" y="766.44" type="curve"/>
      <point x="441.65" y="768.06"/>
      <point x="427" y="769"/>
      <point x="409" y="769" type="curve" smooth="yes"/>
      <point x="294" y="769"/>
      <point x="159" y="667"/>
      <point x="159" y="513" type="curve" smooth="yes"/>
      <point x="159" y="414"/>
      <point x="225" y="349"/>
      <point x="283.57" y="321.96" type="curve"/>
      <point x="173.5" y="139.52" type="line"/>
      <point x="115" y="107"/>
      <point x="67" y="53"/>
    </contour>
    <contour>
      <point x="481" y="792.2" type="curve" smooth="yes"/>
      <point x="444.68" y="792.2"/>
      <point x="415.2" y="821.68"/>
      <point x="415.2" y="858" type="curve" smooth="yes"/>
      <point x="415.2" y="894.32"/>
      <point x="444.68" y="923.8"/>
      <point x="481" y="923.8" type="curve" smooth="yes"/>
      <point x="517.32" y="923.8"/>
      <point x="547" y="894"/>
      <point x="546.8" y="858" type="curve" smooth="yes"/>
      <point x="547" y="822"/>
      <point x="517.32" y="792.2"/>
    </contour>
    <contour>
      <point x="348.45" y="374" type="line"/>
      <point x="508.88" y="639.91" type="line"/>
      <point x="514.05" y="636.9"/>
      <point x="519.09" y="633.69"/>
      <point x="524" y="630.27" type="curve"/>
      <point x="524" y="374" type="line"/>
    </contour>
    <contour>
      <point x="293" y="338" type="line"/>
      <point x="249" y="365"/>
      <point x="213" y="431"/>
      <point x="213" y="484" type="curve" smooth="yes"/>
      <point x="213" y="592"/>
      <point x="293" y="669"/>
      <point x="406" y="669.49" type="curve" smooth="yes"/>
      <point x="432" y="670"/>
      <point x="458.72" y="662.95"/>
      <point x="483.14" y="652.71" type="curve"/>
    </contour>
    <contour>
      <point x="218.91" y="159.29" type="curve"/>
      <point x="286.31" y="270.99" type="line"/>
      <point x="524" y="270.99" type="line"/>
      <point x="524" y="177.59" type="line"/>
      <point x="464" y="126.99" type="line"/>
      <point x="410" y="161"/>
      <point x="363" y="174"/>
      <point x="284" y="174" type="curve" smooth="yes"/>
      <point x="264" y="174"/>
      <point x="236" y="168"/>
    </contour>
  </outline>
</glyph>
<glyph name="AE" format="2">
  <advance width="1188"/>
  <unicode hex="00C6"/>
  <note>
AE
</note>
  <outline>
    <contour>
      <point x="23" y="-10" type="curve"/>
      <point x="42" y="-10" type="line"/>
      <point x="86" y="37"/>
      <point x="150" y="65"/>
      <point x="215" y="65" type="curve" smooth="yes"/>
      <point x="272" y="65"/>
      <point x="330" y="44"/>
      <point x="373" y="7" type="curve"/>
      <point x="544" y="155" type="line"/>
      <point x="553" y="157" type="line"/>
      <point x="616" y="48"/>
      <point x="728" y="-18"/>
      <point x="864" y="-18" type="curve" smooth="yes"/>
      <point x="1005" y="-18"/>
      <point x="1128" y="96"/>
      <point x="1136" y="240" type="curve"/>
      <point x="1116" y="240" type="line"/>
      <point x="1079" y="159"/>
      <point x="999" y="106"/>
      <point x="910" y="97" type="curve"/>
      <point x="910" y="333" type="line"/>
      <point x="1021" y="333" type="line"/>
      <point x="1143" y="460" type="line"/>
      <point x="910" y="460" type="line"/>
      <point x="910" y="635" type="line"/>
      <point x="944" y="615"/>
      <point x="995" y="590"/>
      <point x="1032" y="576" type="curve"/>
      <point x="1151" y="700" type="line"/>
      <point x="1142" y="710" type="line"/>
      <point x="1111" y="683" type="line"/>
      <point x="1045" y="706"/>
      <point x="997" y="729"/>
      <point x="942" y="769" type="curve"/>
      <point x="632" y="581" type="line"/>
      <point x="632" y="613" type="line"/>
      <point x="632" y="644" type="line" smooth="yes"/>
      <point x="632" y="689"/>
      <point x="638" y="719"/>
      <point x="673" y="754" type="curve"/>
      <point x="651" y="772" type="line"/>
      <point x="589" y="713" type="line"/>
      <point x="534" y="750"/>
      <point x="479" y="768"/>
      <point x="408" y="768" type="curve" smooth="yes"/>
      <point x="276" y="768"/>
      <point x="138" y="666"/>
      <point x="138" y="524" type="curve" smooth="yes"/>
      <point x="138" y="413"/>
      <point x="205" y="348"/>
      <point x="263" y="322" type="curve"/>
      <point x="153" y="140" type="line"/>
      <point x="93" y="104"/>
      <point x="51" y="62"/>
    </contour>
    <contour>
      <point x="647" y="247" type="line"/>
      <point x="641" y="259"/>
      <point x="636" y="271"/>
      <point x="632" y="284" type="curve"/>
      <point x="632" y="547" type="line"/>
      <point x="707" y="593" type="line"/>
      <point x="707" y="272" type="line"/>
    </contour>
    <contour>
      <point x="660" y="223" type="curve"/>
      <point x="836" y="298" type="line"/>
      <point x="836" y="671" type="line"/>
      <point x="844" y="676" type="line"/>
      <point x="856" y="668"/>
      <point x="868" y="660"/>
      <point x="881" y="652" type="curve"/>
      <point x="881" y="96" type="line"/>
      <point x="793" y="98"/>
      <point x="705" y="148"/>
    </contour>
    <contour>
      <point x="327" y="374" type="line"/>
      <point x="488" y="640" type="line"/>
      <point x="493" y="637"/>
      <point x="498" y="634"/>
      <point x="503" y="630" type="curve"/>
      <point x="503" y="374" type="line"/>
    </contour>
    <contour>
      <point x="462" y="653" type="curve"/>
      <point x="272" y="337" type="line"/>
      <point x="222" y="374"/>
      <point x="192" y="434"/>
      <point x="192" y="491" type="curve" smooth="yes"/>
      <point x="192" y="610"/>
      <point x="299" y="669"/>
      <point x="381" y="669" type="curve" smooth="yes"/>
      <point x="411" y="669"/>
      <point x="438" y="663"/>
    </contour>
    <contour>
      <point x="198" y="159" type="curve"/>
      <point x="265" y="271" type="line"/>
      <point x="503" y="271" type="line"/>
      <point x="503" y="179" type="line"/>
      <point x="443" y="127" type="line"/>
      <point x="385" y="165"/>
      <point x="337" y="173"/>
      <point x="283" y="173" type="curve" smooth="yes"/>
      <point x="254" y="173"/>
      <point x="214" y="165"/>
    </contour>
  </outline>
</glyph>
<glyph name="Ccedilla" format="2">
  <advance width="748"/>
  <unicode hex="00C7"/>
  <note>
Ccedilla
</note>
  <outline>
    <contour>
      <point x="350.33" y="-217.75" type="curve"/>
      <point x="356.84" y="-225.12" type="line"/>
      <point x="390.27" y="-209.16"/>
      <point x="422.1" y="-191.23"/>
      <point x="449.84" y="-170.32" type="curve" smooth="yes"/>
      <point x="465.34" y="-158.63"/>
      <point x="479.45" y="-145.85"/>
      <point x="490.01" y="-131.56" type="curve" smooth="yes"/>
      <point x="500.57" y="-117.27"/>
      <point x="507.35" y="-101.41"/>
      <point x="508.34" y="-85.22" type="curve" smooth="yes"/>
      <point x="509.53" y="-65.64"/>
      <point x="502.14" y="-45.95"/>
      <point x="488.34" y="-29.09" type="curve" smooth="yes"/>
      <point x="484.26" y="-24.11"/>
      <point x="479.65" y="-19.36"/>
      <point x="474.56" y="-14.9" type="curve"/>
      <point x="516.39" y="-9.11"/>
      <point x="557.02" y="5.56"/>
      <point x="592.47" y="28.48" type="curve" smooth="yes"/>
      <point x="633.66" y="55.11"/>
      <point x="667.65" y="92.91"/>
      <point x="689.18" y="136.98" type="curve" smooth="yes"/>
      <point x="704.85" y="169.05"/>
      <point x="713.93" y="204.33"/>
      <point x="715.68" y="239.98" type="curve"/>
      <point x="696.51" y="239.98" type="line"/>
      <point x="677.11" y="201.19"/>
      <point x="648.01" y="167.28"/>
      <point x="612.57" y="142.28" type="curve" smooth="yes"/>
      <point x="579.15" y="118.7"/>
      <point x="540.12" y="103.05"/>
      <point x="499.62" y="97.38" type="curve"/>
      <point x="499.62" y="276.53"/>
      <point x="499.62" y="455.68"/>
      <point x="499.62" y="634.83" type="curve"/>
      <point x="504.6" y="631.98"/>
      <point x="509.61" y="629.18"/>
      <point x="514.64" y="626.42" type="curve" smooth="yes"/>
      <point x="549.29" y="607.4"/>
      <point x="585.08" y="590.45"/>
      <point x="621.74" y="575.67" type="curve"/>
      <point x="740.68" y="699.9" type="line"/>
      <point x="732.5" y="709.54" type="line"/>
      <point x="700.95" y="683.36" type="line"/>
      <point x="678.16" y="690.52"/>
      <point x="655.81" y="699.1"/>
      <point x="634.07" y="709.01" type="curve" smooth="yes"/>
      <point x="598.03" y="725.45"/>
      <point x="563.68" y="745.59"/>
      <point x="531.74" y="769.01" type="curve"/>
      <point x="531.74" y="769.01" type="line"/>
      <point x="531.74" y="769.01" type="line"/>
      <point x="267.62" y="607.66" type="line"/>
      <point x="293.78" y="650.04"/>
      <point x="331.02" y="685.63"/>
      <point x="375.26" y="708.47" type="curve"/>
      <point x="365.67" y="722.85" type="line"/>
      <point x="289.25" y="696.88"/>
      <point x="220.98" y="647.4"/>
      <point x="172.59" y="582.8" type="curve" smooth="yes"/>
      <point x="124.2" y="518.2"/>
      <point x="95.86" y="438.67"/>
      <point x="93.17" y="358" type="curve" smooth="yes"/>
      <point x="89.92" y="260.4"/>
      <point x="125.1" y="161.41"/>
      <point x="191.71" y="90" type="curve" smooth="yes"/>
      <point x="242.24" y="35.83"/>
      <point x="311.08" y="-1.6"/>
      <point x="383.9" y="-13.58" type="curve"/>
      <point x="326.64" y="-40.8" type="line"/>
      <point x="358.89" y="-48.32"/>
      <point x="386.84" y="-65.09"/>
      <point x="403.06" y="-86.64" type="curve" smooth="yes"/>
      <point x="419.28" y="-108.19"/>
      <point x="423.58" y="-134.29"/>
      <point x="414.83" y="-158" type="curve" smooth="yes"/>
      <point x="405.57" y="-183.1"/>
      <point x="381.72" y="-205.19"/>
    </contour>
    <contour>
      <point x="297.26" y="272.4" type="curve"/>
      <point x="242.44" y="249.05" type="line"/>
      <point x="235.12" y="266.77"/>
      <point x="229.47" y="285.22"/>
      <point x="225.34" y="303.92" type="curve" smooth="yes"/>
      <point x="215.56" y="348.28"/>
      <point x="213.63" y="394.19"/>
      <point x="217.26" y="439.47" type="curve" smooth="yes"/>
      <point x="220.54" y="480.41"/>
      <point x="228.6" y="521.29"/>
      <point x="243.64" y="559.42" type="curve"/>
      <point x="297.26" y="592.18" type="line"/>
      <point x="297.26" y="485.59"/>
      <point x="297.26" y="379"/>
    </contour>
    <contour>
      <point x="253.74" y="224.85" type="curve"/>
      <point x="426.26" y="297.46" type="line"/>
      <point x="426.32" y="671.02" type="line"/>
      <point x="434.05" y="675.74" type="line"/>
      <point x="446.18" y="667.51"/>
      <point x="458.48" y="659.54"/>
      <point x="470.96" y="651.85" type="curve"/>
      <point x="470.96" y="466.25"/>
      <point x="470.96" y="280.66"/>
      <point x="470.96" y="95.06" type="curve"/>
      <point x="438.69" y="94.34"/>
      <point x="406.26" y="99.98"/>
      <point x="376.32" y="112.01" type="curve" smooth="yes"/>
      <point x="339.77" y="126.7"/>
      <point x="307.19" y="150.96"/>
      <point x="282.27" y="181.46" type="curve" smooth="yes"/>
      <point x="271.28" y="194.91"/>
      <point x="261.8" y="209.49"/>
    </contour>
  </outline>
</glyph>
<glyph name="Icircumflex" format="2">
  <advance width="615"/>
  <unicode hex="00CE"/>
  <note>
Icircumflex
</note>
  <outline>
    <contour>
      <point x="218.78" y="855.93" type="line"/>
      <point x="236.74" y="837.79" type="line"/>
      <point x="338.74" y="938.79" type="line"/>
      <point x="447.24" y="837.79" type="line"/>
      <point x="520.71" y="916.71" type="line"/>
      <point x="396.72" y="1032.13" type="line"/>
    </contour>
    <contour>
      <point x="112.51" y="384.26" type="curve" smooth="yes"/>
      <point x="111.04" y="376.72"/>
      <point x="110.32" y="369.04"/>
      <point x="110.32" y="361.36" type="curve" smooth="yes"/>
      <point x="110.32" y="340.86"/>
      <point x="115.46" y="320.33"/>
      <point x="125.05" y="302.18" type="curve"/>
      <point x="144.18" y="302.18" type="line"/>
      <point x="142.6" y="310.68"/>
      <point x="142.79" y="319.51"/>
      <point x="144.84" y="327.9" type="curve" smooth="yes"/>
      <point x="147.8" y="340.01"/>
      <point x="155.01" y="351.25"/>
      <point x="165.5" y="357.98" type="curve" smooth="yes"/>
      <point x="170.75" y="361.34"/>
      <point x="176.7" y="363.54"/>
      <point x="182.83" y="364.69" type="curve" smooth="yes"/>
      <point x="188.96" y="365.83"/>
      <point x="195.23" y="365.91"/>
      <point x="201.46" y="365.91" type="curve" smooth="yes"/>
      <point x="213.65" y="365.91"/>
      <point x="225.84" y="365.91"/>
      <point x="238.03" y="365.91" type="curve"/>
      <point x="238.03" y="342.15"/>
      <point x="238.03" y="318.4"/>
      <point x="238.03" y="294.64" type="curve" smooth="yes"/>
      <point x="238.03" y="277.19"/>
      <point x="238" y="259.67"/>
      <point x="235.58" y="242.39" type="curve" smooth="yes"/>
      <point x="233.16" y="225.11"/>
      <point x="228.24" y="208.04"/>
      <point x="219.69" y="192.83" type="curve" smooth="yes"/>
      <point x="209.56" y="174.81"/>
      <point x="194.31" y="159.64"/>
      <point x="176.02" y="150" type="curve"/>
      <point x="209.02" y="150" type="line"/>
      <point x="239.77" y="159.23"/>
      <point x="269.79" y="171.48"/>
      <point x="297.02" y="188.5" type="curve" smooth="yes"/>
      <point x="319.36" y="202.46"/>
      <point x="339.73" y="220.6"/>
      <point x="352.17" y="243.82" type="curve" smooth="yes"/>
      <point x="358.39" y="255.43"/>
      <point x="362.52" y="268.12"/>
      <point x="364.69" y="281.11" type="curve" smooth="yes"/>
      <point x="366.86" y="294.1"/>
      <point x="367.02" y="307.33"/>
      <point x="367.02" y="320.5" type="curve" smooth="yes"/>
      <point x="367.02" y="397.65" type="line"/>
      <point x="367.09" y="539" type="line" smooth="yes"/>
      <point x="367.1" y="571.56"/>
      <point x="370.07" y="604.77"/>
      <point x="383.52" y="634.41" type="curve" smooth="yes"/>
      <point x="391.94" y="652.97"/>
      <point x="404.65" y="669.45"/>
      <point x="420.07" y="682.77" type="curve" smooth="yes"/>
      <point x="435.49" y="696.1"/>
      <point x="452.91" y="706.92"/>
      <point x="468.68" y="719.83" type="curve" smooth="yes"/>
      <point x="483.62" y="732.06"/>
      <point x="497.01" y="746.28"/>
      <point x="507.51" y="762.47" type="curve"/>
      <point x="509.01" y="788.99" type="line"/>
      <point x="497.93" y="778.55"/>
      <point x="484.75" y="770.36"/>
      <point x="470.51" y="764.97" type="curve" smooth="yes"/>
      <point x="450.72" y="757.48"/>
      <point x="429.09" y="755.57"/>
      <point x="408.01" y="757.49" type="curve" smooth="yes"/>
      <point x="383.28" y="759.74"/>
      <point x="359.33" y="766.99"/>
      <point x="335.22" y="772.91" type="curve" smooth="yes"/>
      <point x="311.1" y="778.83"/>
      <point x="286.26" y="783.1"/>
      <point x="261.51" y="780.99" type="curve" smooth="yes"/>
      <point x="228.79" y="778.21"/>
      <point x="197.63" y="764.03"/>
      <point x="172.01" y="743.49" type="curve" smooth="yes"/>
      <point x="137.4" y="715.73"/>
      <point x="111.29" y="678.06"/>
      <point x="94.51" y="636.99" type="curve"/>
      <point x="118.01" y="636.99" type="line"/>
      <point x="123.49" y="651.19"/>
      <point x="134.78" y="662.93"/>
      <point x="148.51" y="669.49" type="curve" smooth="yes"/>
      <point x="160.71" y="675.32"/>
      <point x="174.49" y="677.21"/>
      <point x="188.01" y="676.99" type="curve" smooth="yes"/>
      <point x="209.17" y="676.65"/>
      <point x="229.98" y="671.92"/>
      <point x="250.85" y="668.45" type="curve" smooth="yes"/>
      <point x="271.73" y="664.97"/>
      <point x="292.85" y="662.55"/>
      <point x="314.01" y="662.99" type="curve" smooth="yes"/>
      <point x="336.49" y="663.46"/>
      <point x="358.78" y="667.34"/>
      <point x="380.18" y="674.15" type="curve"/>
      <point x="353.76" y="652.72"/>
      <point x="327.03" y="631.66"/>
      <point x="300.01" y="610.99" type="curve" smooth="yes"/>
      <point x="282.46" y="597.56"/>
      <point x="264.38" y="583.9"/>
      <point x="252.6" y="565.2" type="curve" smooth="yes"/>
      <point x="246.71" y="555.85"/>
      <point x="242.56" y="545.42"/>
      <point x="240.36" y="534.59" type="curve" smooth="yes"/>
      <point x="238.16" y="523.76"/>
      <point x="237.97" y="512.64"/>
      <point x="237.97" y="501.59" type="curve" smooth="yes"/>
      <point x="237.98" y="475.22" type="line"/>
      <point x="214.19" y="471.53"/>
      <point x="190.08" y="468.22"/>
      <point x="168.51" y="457.76" type="curve" smooth="yes"/>
      <point x="154.13" y="450.78"/>
      <point x="141.27" y="440.55"/>
      <point x="131.64" y="427.8" type="curve" smooth="yes"/>
      <point x="122.01" y="415.04"/>
      <point x="115.59" y="399.95"/>
    </contour>
    <contour>
      <point x="155.01" y="-84.01" type="curve"/>
      <point x="155" y="-99.88" type="line"/>
      <point x="131.02" y="-97.98"/>
      <point x="107.68" y="-88.69"/>
      <point x="88.96" y="-73.59" type="curve" smooth="yes"/>
      <point x="70.25" y="-58.48"/>
      <point x="56.23" y="-37.6"/>
      <point x="49.5" y="-14.51" type="curve" smooth="yes"/>
      <point x="40.58" y="16.1"/>
      <point x="45" y="50.46"/>
      <point x="61.91" y="77.49" type="curve" smooth="yes"/>
      <point x="78.82" y="104.52"/>
      <point x="107.73" y="123.25"/>
      <point x="139" y="129.49" type="curve" smooth="yes"/>
      <point x="172.69" y="136.22"/>
      <point x="207.74" y="129.17"/>
      <point x="240.03" y="117.47" type="curve" smooth="yes"/>
      <point x="272.32" y="105.76"/>
      <point x="303.04" y="90.1"/>
      <point x="335" y="77.49" type="curve" smooth="yes"/>
      <point x="354.13" y="69.94"/>
      <point x="373.65" y="63.36"/>
      <point x="393.5" y="57.99" type="curve"/>
      <point x="404.43" y="63.36"/>
      <point x="413.12" y="72.96"/>
      <point x="417.8" y="84.21" type="curve" smooth="yes"/>
      <point x="422.48" y="95.45"/>
      <point x="423" y="107.93"/>
      <point x="423" y="120.11" type="curve" smooth="yes"/>
      <point x="423" y="538.49" type="line" smooth="yes"/>
      <point x="423" y="558.56"/>
      <point x="423.28" y="578.76"/>
      <point x="427.01" y="598.48" type="curve" smooth="yes"/>
      <point x="430.74" y="618.21"/>
      <point x="437.87" y="637.32"/>
      <point x="448.37" y="654.43" type="curve" smooth="yes"/>
      <point x="469.37" y="688.65"/>
      <point x="503.09" y="712.72"/>
      <point x="536.5" y="734.99" type="curve" smooth="yes"/>
      <point x="595" y="773.99" type="line"/>
      <point x="610" y="757.49" type="line"/>
      <point x="592.56" y="746.46"/>
      <point x="579.18" y="729.36"/>
      <point x="571.98" y="710.02" type="curve" smooth="yes"/>
      <point x="564.77" y="690.68"/>
      <point x="564" y="669.63"/>
      <point x="564" y="648.99" type="curve" smooth="yes"/>
      <point x="564" y="234.11" type="line"/>
      <point x="541.52" y="195.98"/>
      <point x="515.72" y="159.8"/>
      <point x="487" y="126.11" type="curve" smooth="yes"/>
      <point x="447.73" y="80.05"/>
      <point x="402.98" y="38.67"/>
      <point x="354" y="3.11" type="curve" smooth="yes"/>
      <point x="346.55" y="-2.3"/>
      <point x="338.87" y="-7.48"/>
      <point x="330.5" y="-11.31" type="curve" smooth="yes"/>
      <point x="322.13" y="-15.14"/>
      <point x="313.15" y="-17.62"/>
      <point x="304.02" y="-18.77" type="curve" smooth="yes"/>
      <point x="285.75" y="-21.05"/>
      <point x="267.27" y="-18.28"/>
      <point x="249.01" y="-15.9" type="curve" smooth="yes"/>
      <point x="157.01" y="-3.9" type="line" smooth="yes"/>
      <point x="150.78" y="-3.09"/>
      <point x="144.48" y="-2.36"/>
      <point x="138.23" y="-2.99" type="curve" smooth="yes"/>
      <point x="131.98" y="-3.63"/>
      <point x="125.82" y="-5.64"/>
      <point x="120.64" y="-9.2" type="curve" smooth="yes"/>
      <point x="115.46" y="-12.76"/>
      <point x="111.33" y="-17.81"/>
      <point x="108.83" y="-23.57" type="curve" smooth="yes"/>
      <point x="106.32" y="-29.33"/>
      <point x="105.42" y="-35.75"/>
      <point x="106.01" y="-42.01" type="curve" smooth="yes"/>
      <point x="107.11" y="-53.74"/>
      <point x="113.38" y="-64.76"/>
      <point x="122.41" y="-72.32" type="curve" smooth="yes"/>
      <point x="131.44" y="-79.89"/>
      <point x="143.22" y="-84.08"/>
    </contour>
  </outline>
</glyph>
<glyph name="Idieresis" format="2">
  <advance width="615"/>
  <unicode hex="00CF"/>
  <note>
Idieresis
</note>
  <outline>
    <contour>
      <point x="270.76" y="1059.35" type="line"/>
      <point x="180.88" y="969.47" type="line"/>
      <point x="272.23" y="878.12" type="line"/>
      <point x="362.11" y="968" type="line"/>
    </contour>
    <contour>
      <point x="500.76" y="1059.35" type="line"/>
      <point x="410.88" y="969.47" type="line"/>
      <point x="502.23" y="878.12" type="line"/>
      <point x="592.11" y="968" type="line"/>
    </contour>
    <contour>
      <point x="112.5" y="384.27" type="curve" smooth="yes"/>
      <point x="111.03" y="376.73"/>
      <point x="110.31" y="369.05"/>
      <point x="110.31" y="361.37" type="curve" smooth="yes"/>
      <point x="110.31" y="340.87"/>
      <point x="115.45" y="320.34"/>
      <point x="125.04" y="302.19" type="curve"/>
      <point x="144.17" y="302.19" type="line"/>
      <point x="142.59" y="310.69"/>
      <point x="142.78" y="319.52"/>
      <point x="144.83" y="327.91" type="curve" smooth="yes"/>
      <point x="147.79" y="340.02"/>
      <point x="155" y="351.26"/>
      <point x="165.49" y="357.99" type="curve" smooth="yes"/>
      <point x="170.74" y="361.35"/>
      <point x="176.69" y="363.55"/>
      <point x="182.82" y="364.7" type="curve" smooth="yes"/>
      <point x="188.95" y="365.84"/>
      <point x="195.22" y="365.92"/>
      <point x="201.45" y="365.92" type="curve" smooth="yes"/>
      <point x="213.64" y="365.92"/>
      <point x="225.83" y="365.92"/>
      <point x="238.02" y="365.92" type="curve"/>
      <point x="238.02" y="342.16"/>
      <point x="238.02" y="318.41"/>
      <point x="238.02" y="294.65" type="curve" smooth="yes"/>
      <point x="238.02" y="277.2"/>
      <point x="237.99" y="259.68"/>
      <point x="235.57" y="242.4" type="curve" smooth="yes"/>
      <point x="233.15" y="225.12"/>
      <point x="228.23" y="208.05"/>
      <point x="219.68" y="192.84" type="curve" smooth="yes"/>
      <point x="209.55" y="174.82"/>
      <point x="194.3" y="159.65"/>
      <point x="176.01" y="150.01" type="curve"/>
      <point x="209.01" y="150.01" type="line"/>
      <point x="239.76" y="159.24"/>
      <point x="269.78" y="171.49"/>
      <point x="297.01" y="188.51" type="curve" smooth="yes"/>
      <point x="319.35" y="202.47"/>
      <point x="339.72" y="220.61"/>
      <point x="352.16" y="243.83" type="curve" smooth="yes"/>
      <point x="358.38" y="255.44"/>
      <point x="362.51" y="268.13"/>
      <point x="364.68" y="281.12" type="curve" smooth="yes"/>
      <point x="366.85" y="294.11"/>
      <point x="367.01" y="307.34"/>
      <point x="367.01" y="320.51" type="curve" smooth="yes"/>
      <point x="367.01" y="397.66" type="line"/>
      <point x="367.08" y="539.01" type="line" smooth="yes"/>
      <point x="367.09" y="571.57"/>
      <point x="370.06" y="604.78"/>
      <point x="383.51" y="634.42" type="curve" smooth="yes"/>
      <point x="391.93" y="652.98"/>
      <point x="404.64" y="669.46"/>
      <point x="420.06" y="682.78" type="curve" smooth="yes"/>
      <point x="435.48" y="696.11"/>
      <point x="452.9" y="706.93"/>
      <point x="468.67" y="719.84" type="curve" smooth="yes"/>
      <point x="483.61" y="732.07"/>
      <point x="497" y="746.29"/>
      <point x="507.5" y="762.48" type="curve"/>
      <point x="509" y="789" type="line"/>
      <point x="497.92" y="778.56"/>
      <point x="484.74" y="770.37"/>
      <point x="470.5" y="764.98" type="curve" smooth="yes"/>
      <point x="450.71" y="757.49"/>
      <point x="429.08" y="755.58"/>
      <point x="408" y="757.5" type="curve" smooth="yes"/>
      <point x="383.27" y="759.75"/>
      <point x="359.32" y="767"/>
      <point x="335.21" y="772.92" type="curve" smooth="yes"/>
      <point x="311.09" y="778.84"/>
      <point x="286.25" y="783.11"/>
      <point x="261.5" y="781" type="curve" smooth="yes"/>
      <point x="228.78" y="778.22"/>
      <point x="197.62" y="764.04"/>
      <point x="172" y="743.5" type="curve" smooth="yes"/>
      <point x="137.39" y="715.74"/>
      <point x="111.28" y="678.07"/>
      <point x="94.5" y="637" type="curve"/>
      <point x="118" y="637" type="line"/>
      <point x="123.48" y="651.2"/>
      <point x="134.77" y="662.94"/>
      <point x="148.5" y="669.5" type="curve" smooth="yes"/>
      <point x="160.7" y="675.33"/>
      <point x="174.48" y="677.22"/>
      <point x="188" y="677" type="curve" smooth="yes"/>
      <point x="209.16" y="676.66"/>
      <point x="229.97" y="671.93"/>
      <point x="250.84" y="668.46" type="curve" smooth="yes"/>
      <point x="271.72" y="664.98"/>
      <point x="292.84" y="662.56"/>
      <point x="314" y="663" type="curve" smooth="yes"/>
      <point x="336.48" y="663.47"/>
      <point x="358.77" y="667.35"/>
      <point x="380.17" y="674.16" type="curve"/>
      <point x="353.75" y="652.73"/>
      <point x="327.02" y="631.67"/>
      <point x="300" y="611" type="curve" smooth="yes"/>
      <point x="282.45" y="597.57"/>
      <point x="264.37" y="583.91"/>
      <point x="252.59" y="565.21" type="curve" smooth="yes"/>
      <point x="246.7" y="555.86"/>
      <point x="242.55" y="545.43"/>
      <point x="240.35" y="534.6" type="curve" smooth="yes"/>
      <point x="238.15" y="523.77"/>
      <point x="237.96" y="512.65"/>
      <point x="237.96" y="501.6" type="curve" smooth="yes"/>
      <point x="237.97" y="475.23" type="line"/>
      <point x="214.18" y="471.54"/>
      <point x="190.07" y="468.23"/>
      <point x="168.5" y="457.77" type="curve" smooth="yes"/>
      <point x="154.12" y="450.79"/>
      <point x="141.26" y="440.56"/>
      <point x="131.63" y="427.81" type="curve" smooth="yes"/>
      <point x="122" y="415.05"/>
      <point x="115.58" y="399.96"/>
    </contour>
    <contour>
      <point x="155" y="-84" type="curve"/>
      <point x="154.99" y="-99.87" type="line"/>
      <point x="131.01" y="-97.97"/>
      <point x="107.67" y="-88.68"/>
      <point x="88.95" y="-73.58" type="curve" smooth="yes"/>
      <point x="70.24" y="-58.47"/>
      <point x="56.22" y="-37.59"/>
      <point x="49.49" y="-14.5" type="curve" smooth="yes"/>
      <point x="40.57" y="16.11"/>
      <point x="44.99" y="50.47"/>
      <point x="61.9" y="77.5" type="curve" smooth="yes"/>
      <point x="78.81" y="104.53"/>
      <point x="107.72" y="123.26"/>
      <point x="138.99" y="129.5" type="curve" smooth="yes"/>
      <point x="172.68" y="136.23"/>
      <point x="207.73" y="129.18"/>
      <point x="240.02" y="117.48" type="curve" smooth="yes"/>
      <point x="272.31" y="105.77"/>
      <point x="303.03" y="90.11"/>
      <point x="334.99" y="77.5" type="curve" smooth="yes"/>
      <point x="354.12" y="69.95"/>
      <point x="373.64" y="63.37"/>
      <point x="393.49" y="58" type="curve"/>
      <point x="404.42" y="63.37"/>
      <point x="413.11" y="72.97"/>
      <point x="417.79" y="84.22" type="curve" smooth="yes"/>
      <point x="422.47" y="95.46"/>
      <point x="422.99" y="107.94"/>
      <point x="422.99" y="120.12" type="curve" smooth="yes"/>
      <point x="422.99" y="538.5" type="line" smooth="yes"/>
      <point x="422.99" y="558.57"/>
      <point x="423.27" y="578.77"/>
      <point x="427" y="598.49" type="curve" smooth="yes"/>
      <point x="430.73" y="618.22"/>
      <point x="437.86" y="637.33"/>
      <point x="448.36" y="654.44" type="curve" smooth="yes"/>
      <point x="469.36" y="688.66"/>
      <point x="503.08" y="712.73"/>
      <point x="536.49" y="735" type="curve" smooth="yes"/>
      <point x="594.99" y="774" type="line"/>
      <point x="609.99" y="757.5" type="line"/>
      <point x="592.55" y="746.47"/>
      <point x="579.17" y="729.37"/>
      <point x="571.97" y="710.03" type="curve" smooth="yes"/>
      <point x="564.76" y="690.69"/>
      <point x="563.99" y="669.64"/>
      <point x="563.99" y="649" type="curve" smooth="yes"/>
      <point x="563.99" y="234.12" type="line"/>
      <point x="541.51" y="195.99"/>
      <point x="515.71" y="159.81"/>
      <point x="486.99" y="126.12" type="curve" smooth="yes"/>
      <point x="447.72" y="80.06"/>
      <point x="402.97" y="38.68"/>
      <point x="353.99" y="3.12" type="curve" smooth="yes"/>
      <point x="346.54" y="-2.29"/>
      <point x="338.86" y="-7.47"/>
      <point x="330.49" y="-11.3" type="curve" smooth="yes"/>
      <point x="322.12" y="-15.13"/>
      <point x="313.14" y="-17.61"/>
      <point x="304.01" y="-18.76" type="curve" smooth="yes"/>
      <point x="285.74" y="-21.04"/>
      <point x="267.26" y="-18.27"/>
      <point x="249" y="-15.89" type="curve" smooth="yes"/>
      <point x="157" y="-3.89" type="line" smooth="yes"/>
      <point x="150.77" y="-3.08"/>
      <point x="144.47" y="-2.35"/>
      <point x="138.22" y="-2.98" type="curve" smooth="yes"/>
      <point x="131.97" y="-3.62"/>
      <point x="125.81" y="-5.63"/>
      <point x="120.63" y="-9.19" type="curve" smooth="yes"/>
      <point x="115.45" y="-12.75"/>
      <point x="111.32" y="-17.8"/>
      <point x="108.82" y="-23.56" type="curve" smooth="yes"/>
      <point x="106.31" y="-29.32"/>
      <point x="105.41" y="-35.74"/>
      <point x="106" y="-42" type="curve" smooth="yes"/>
      <point x="107.1" y="-53.73"/>
      <point x="113.37" y="-64.75"/>
      <point x="122.4" y="-72.31" type="curve" smooth="yes"/>
      <point x="131.43" y="-79.88"/>
      <point x="143.21" y="-84.07"/>
    </contour>
  </outline>
</glyph>
<glyph name="Eth" format="2">
  <advance width="747"/>
  <unicode hex="00D0"/>
  <note>
Eth
</note>
  <outline>
    <contour>
      <point x="80.1" y="142.33" type="curve"/>
      <point x="89.42" y="118.33" type="line"/>
      <point x="148.69" y="133.18"/>
      <point x="205.12" y="165.95"/>
      <point x="240.17" y="216" type="curve" smooth="yes"/>
      <point x="251.37" y="232"/>
      <point x="259.95" y="249.9"/>
      <point x="264.74" y="268.83" type="curve" smooth="yes"/>
      <point x="269.53" y="287.76"/>
      <point x="270.17" y="307.47"/>
      <point x="270.17" y="327" type="curve" smooth="yes"/>
      <point x="270.17" y="329.69"/>
      <point x="270.17" y="332.39"/>
      <point x="270.17" y="335.08" type="curve"/>
      <point x="305.71" y="337.42" type="line"/>
      <point x="305.71" y="321.95"/>
      <point x="305.71" y="306.48"/>
      <point x="305.71" y="291" type="curve" smooth="yes"/>
      <point x="305.71" y="272.58"/>
      <point x="304.45" y="255.02"/>
      <point x="298.95" y="239.65" type="curve" smooth="yes"/>
      <point x="293.34" y="223.96"/>
      <point x="283.65" y="209.21"/>
      <point x="272.23" y="195.16" type="curve" smooth="yes"/>
      <point x="256.72" y="176.07"/>
      <point x="239.26" y="158.19"/>
      <point x="221.3" y="140.33" type="curve"/>
      <point x="133.69" y="112.91"/>
      <point x="57.73" y="49.78"/>
      <point x="15" y="-31.5" type="curve"/>
      <point x="43.5" y="-31.5" type="line"/>
      <point x="99.38" y="19.52"/>
      <point x="175.36" y="47.89"/>
      <point x="251" y="46" type="curve" smooth="yes"/>
      <point x="310.04" y="44.52"/>
      <point x="368.5" y="24.92"/>
      <point x="416.5" y="-9.5" type="curve"/>
      <point x="666.5" y="128" type="line"/>
      <point x="683.27" y="162.02"/>
      <point x="697.01" y="197.54"/>
      <point x="707.5" y="234" type="curve" smooth="yes"/>
      <point x="726.71" y="300.74"/>
      <point x="735.39" y="370.66"/>
      <point x="731.5" y="440" type="curve" smooth="yes"/>
      <point x="727.45" y="512.1"/>
      <point x="709.58" y="585.31"/>
      <point x="667.5" y="644" type="curve" smooth="yes"/>
      <point x="643.17" y="677.93"/>
      <point x="610.1" y="705.93"/>
      <point x="571.5" y="721.82" type="curve" smooth="yes"/>
      <point x="532.9" y="737.71"/>
      <point x="490.25" y="740"/>
      <point x="448.5" y="740" type="curve" smooth="yes"/>
      <point x="175.5" y="740" type="line" smooth="yes"/>
      <point x="167.62" y="740"/>
      <point x="159.72" y="740.05"/>
      <point x="151.92" y="741.19" type="curve" smooth="yes"/>
      <point x="144.13" y="742.33"/>
      <point x="136.45" y="744.57"/>
      <point x="129.5" y="748.26" type="curve" smooth="yes"/>
      <point x="122.54" y="751.95"/>
      <point x="116.34" y="757.1"/>
      <point x="111.58" y="763.37" type="curve" smooth="yes"/>
      <point x="106.82" y="769.64"/>
      <point x="103.5" y="777.01"/>
      <point x="102" y="784.74" type="curve"/>
      <point x="80.5" y="785.49" type="line"/>
      <point x="73.94" y="760.67"/>
      <point x="70.21" y="735"/>
      <point x="70.8" y="709.34" type="curve" smooth="yes"/>
      <point x="71.09" y="696.51"/>
      <point x="72.53" y="683.65"/>
      <point x="75.93" y="671.27" type="curve" smooth="yes"/>
      <point x="79.34" y="658.9"/>
      <point x="84.8" y="646.9"/>
      <point x="93.25" y="637.24" type="curve" smooth="yes"/>
      <point x="99.32" y="630.29"/>
      <point x="107.03" y="624.71"/>
      <point x="115.71" y="621.57" type="curve" smooth="yes"/>
      <point x="124.39" y="618.43"/>
      <point x="133.78" y="617.99"/>
      <point x="143" y="617.99" type="curve" smooth="yes"/>
      <point x="282.3" y="617.99" type="line"/>
      <point x="203.2" y="566.49" type="line" smooth="yes"/>
      <point x="185.03" y="554.66"/>
      <point x="166.63" y="541.89"/>
      <point x="155.1" y="523.52" type="curve" smooth="yes"/>
      <point x="149.33" y="514.34"/>
      <point x="145.4" y="504.04"/>
      <point x="143.34" y="493.39" type="curve" smooth="yes"/>
      <point x="141.28" y="482.74"/>
      <point x="141.13" y="471.83"/>
      <point x="141.13" y="460.99" type="curve" smooth="yes"/>
      <point x="141.13" y="454.35"/>
      <point x="141.14" y="447.71"/>
      <point x="141.14" y="441.08" type="curve"/>
      <point x="121.06" y="437.37"/>
      <point x="101.61" y="431.26"/>
      <point x="84" y="421.04" type="curve" smooth="yes"/>
      <point x="57.49" y="405.66"/>
      <point x="36.15" y="380.59"/>
      <point x="28" y="351.04" type="curve" smooth="yes"/>
      <point x="20.26" y="322.97"/>
      <point x="24.81" y="291.67"/>
      <point x="40.52" y="267.16" type="curve"/>
      <point x="59.65" y="267.16" type="line"/>
      <point x="58.17" y="274.29"/>
      <point x="58.39" y="281.77"/>
      <point x="60.31" y="288.8" type="curve" smooth="yes"/>
      <point x="63.49" y="300.46"/>
      <point x="71.52" y="310.67"/>
      <point x="82" y="316.69" type="curve" smooth="yes"/>
      <point x="87.24" y="319.7"/>
      <point x="93.02" y="321.71"/>
      <point x="98.94" y="322.93" type="curve" smooth="yes"/>
      <point x="104.86" y="324.15"/>
      <point x="110.91" y="324.59"/>
      <point x="116.94" y="324.99" type="curve" smooth="yes"/>
      <point x="141.19" y="326.59" type="line"/>
      <point x="141.19" y="325.17"/>
      <point x="141.19" y="323.75"/>
      <point x="141.19" y="322.33" type="curve" smooth="yes"/>
      <point x="141.19" y="295.96"/>
      <point x="141.8" y="269.5"/>
      <point x="138.71" y="243.32" type="curve" smooth="yes"/>
      <point x="135.63" y="217.14"/>
      <point x="127.85" y="190.89"/>
      <point x="111.77" y="170" type="curve" smooth="yes"/>
      <point x="103.16" y="158.82"/>
      <point x="92.35" y="149.33"/>
    </contour>
    <contour>
      <point x="270.21" y="449.96" type="curve"/>
      <point x="270.25" y="507" type="line" smooth="yes"/>
      <point x="270.27" y="528.29"/>
      <point x="271.34" y="550.1"/>
      <point x="279.77" y="569.65" type="curve" smooth="yes"/>
      <point x="288" y="588.74"/>
      <point x="302.81" y="604.08"/>
      <point x="318.29" y="618" type="curve"/>
      <point x="350.7" y="618" type="line"/>
      <point x="336.4" y="602.58"/>
      <point x="325.29" y="584.28"/>
      <point x="318.09" y="564.58" type="curve" smooth="yes"/>
      <point x="306.77" y="533.63"/>
      <point x="305.81" y="501.29"/>
      <point x="305.79" y="471.01" type="curve" smooth="yes"/>
      <point x="305.78" y="454.29" type="line"/>
      <point x="302.68" y="453.77"/>
      <point x="299.58" y="453.29"/>
      <point x="296.47" y="452.85" type="curve" smooth="yes"/>
      <point x="287.75" y="451.6"/>
      <point x="278.99" y="450.67"/>
    </contour>
    <contour>
      <point x="414.73" y="144.14" type="curve"/>
      <point x="414.73" y="187.68"/>
      <point x="414.73" y="231.22"/>
      <point x="414.73" y="274.77" type="curve"/>
      <point x="596.72" y="367.02" type="line"/>
      <point x="596.48" y="325.66"/>
      <point x="592.37" y="284.31"/>
      <point x="585.52" y="243.51" type="curve" smooth="yes"/>
      <point x="576.3" y="188.61"/>
      <point x="561.25" y="134.68"/>
      <point x="540.52" y="83.01" type="curve"/>
      <point x="503.33" y="111.74"/>
      <point x="460.19" y="132.34"/>
    </contour>
    <contour>
      <point x="414.73" y="617.99" type="curve"/>
      <point x="437.4" y="617.78"/>
      <point x="460.25" y="616.29"/>
      <point x="481.61" y="608.85" type="curve" smooth="yes"/>
      <point x="504.92" y="600.73"/>
      <point x="525.79" y="586.1"/>
      <point x="542.02" y="567.51" type="curve" smooth="yes"/>
      <point x="559.25" y="547.78"/>
      <point x="571.44" y="524.03"/>
      <point x="579.69" y="499.13" type="curve"/>
      <point x="414.73" y="415.76" type="line"/>
      <point x="414.73" y="483.17"/>
      <point x="414.73" y="550.58"/>
    </contour>
    <contour>
      <point x="386.07" y="150.37" type="curve"/>
      <point x="348.31" y="156.97"/>
      <point x="309.52" y="157.61"/>
      <point x="271.66" y="151.92" type="curve"/>
      <point x="279.31" y="160.18"/>
      <point x="286.79" y="168.68"/>
      <point x="293.98" y="177.52" type="curve" smooth="yes"/>
      <point x="306.48" y="192.91"/>
      <point x="318.17" y="210.21"/>
      <point x="325.33" y="230.24" type="curve" smooth="yes"/>
      <point x="332.61" y="250.59"/>
      <point x="333.73" y="271.51"/>
      <point x="333.73" y="291.02" type="curve" smooth="yes"/>
      <point x="333.73" y="393.01" type="line"/>
      <point x="333.8" y="471.01" type="line" smooth="yes"/>
      <point x="333.82" y="500.74"/>
      <point x="335.11" y="529.57"/>
      <point x="344.4" y="554.99" type="curve" smooth="yes"/>
      <point x="352.67" y="577.61"/>
      <point x="367.26" y="597.97"/>
      <point x="386.07" y="612.56" type="curve"/>
      <point x="386.07" y="458.5"/>
      <point x="386.07" y="304.43"/>
    </contour>
    <contour>
      <point x="414.73" y="306.92" type="line"/>
      <point x="414.73" y="383.66" type="line"/>
      <point x="587.39" y="470.92" type="line"/>
      <point x="591.79" y="450.92"/>
      <point x="594.24" y="430.48"/>
      <point x="595.52" y="410.03" type="curve" smooth="yes"/>
      <point x="595.75" y="406.31"/>
      <point x="595.95" y="402.59"/>
      <point x="596.12" y="398.87" type="curve"/>
    </contour>
  </outline>
</glyph>
<glyph name="Otilde" format="2">
  <advance width="754"/>
  <unicode hex="00D5"/>
  <note>
Otilde
</note>
  <outline>
    <contour>
      <point x="231.71" y="880.63" type="curve"/>
      <point x="256.88" y="867.18" type="line"/>
      <point x="264.81" y="874.81"/>
      <point x="273.62" y="881.38"/>
      <point x="283.04" y="886.62" type="curve" smooth="yes"/>
      <point x="291.9" y="891.55"/>
      <point x="301.32" y="895.3"/>
      <point x="311.03" y="897.63" type="curve" smooth="yes"/>
      <point x="333.6" y="903.04"/>
      <point x="357.26" y="900.03"/>
      <point x="379.33" y="892.86" type="curve" smooth="yes"/>
      <point x="401.4" y="885.7"/>
      <point x="422.38" y="875.05"/>
      <point x="444.36" y="867.58" type="curve" smooth="yes"/>
      <point x="462.83" y="861.3"/>
      <point x="482.1" y="857.35"/>
      <point x="501.49" y="857.64" type="curve" smooth="yes"/>
      <point x="520.88" y="857.93"/>
      <point x="540.23" y="862.43"/>
      <point x="558.07" y="870.79" type="curve" smooth="yes"/>
      <point x="579.74" y="880.94"/>
      <point x="599.12" y="896.59"/>
      <point x="615.05" y="915.51" type="curve" smooth="yes"/>
      <point x="626.84" y="929.51"/>
      <point x="636.79" y="945.32"/>
      <point x="644.59" y="962.28" type="curve"/>
      <point x="619.43" y="975.72" type="line"/>
      <point x="613.91" y="965.78"/>
      <point x="606.09" y="957.37"/>
      <point x="596.95" y="951.34" type="curve" smooth="yes"/>
      <point x="588.41" y="945.71"/>
      <point x="578.79" y="942.15"/>
      <point x="568.95" y="940.33" type="curve" smooth="yes"/>
      <point x="550.41" y="936.9"/>
      <point x="531.36" y="939.39"/>
      <point x="513.1" y="944.03" type="curve" smooth="yes"/>
      <point x="494.84" y="948.67"/>
      <point x="477.14" y="955.52"/>
      <point x="459.36" y="961.95" type="curve" smooth="yes"/>
      <point x="437.08" y="970.01"/>
      <point x="414.37" y="977.44"/>
      <point x="390.92" y="979.44" type="curve" smooth="yes"/>
      <point x="367.47" y="981.44"/>
      <point x="343.47" y="977.56"/>
      <point x="321.91" y="967.17" type="curve" smooth="yes"/>
      <point x="300.37" y="956.79"/>
      <point x="281.59" y="940.55"/>
      <point x="264.93" y="922.45" type="curve" smooth="yes"/>
      <point x="252.94" y="909.41"/>
      <point x="241.89" y="895.36"/>
    </contour>
    <contour>
      <point x="198.51" y="603.06" type="curve"/>
      <point x="260.95" y="628.98" type="line"/>
      <point x="260.95" y="521.22"/>
      <point x="260.95" y="413.46"/>
      <point x="260.95" y="305.7" type="curve"/>
      <point x="191.27" y="276.01" type="line"/>
      <point x="190.22" y="278.98"/>
      <point x="189.21" y="281.97"/>
      <point x="188.23" y="284.96" type="curve" smooth="yes"/>
      <point x="171.28" y="336.83"/>
      <point x="164.41" y="391.81"/>
      <point x="166.19" y="446.35" type="curve" smooth="yes"/>
      <point x="167.94" y="499.92"/>
      <point x="178.31" y="553.5"/>
    </contour>
    <contour>
      <point x="505.2" y="765.02" type="curve"/>
      <point x="216.25" y="640.78" type="line"/>
      <point x="216.89" y="641.97"/>
      <point x="217.54" y="643.17"/>
      <point x="218.2" y="644.35" type="curve" smooth="yes"/>
      <point x="245.12" y="693.14"/>
      <point x="283.08" y="735.86"/>
      <point x="328.7" y="767.85" type="curve"/>
      <point x="314.2" y="786.35" type="line"/>
      <point x="221.05" y="748.55"/>
      <point x="142.51" y="676.48"/>
      <point x="95.7" y="587.52" type="curve" smooth="yes"/>
      <point x="55.24" y="510.62"/>
      <point x="37.91" y="422.18"/>
      <point x="43.3" y="335.46" type="curve" smooth="yes"/>
      <point x="48.69" y="248.74"/>
      <point x="76.03" y="162.38"/>
      <point x="127.7" y="92.52" type="curve" smooth="yes"/>
      <point x="156.01" y="54.25"/>
      <point x="192.08" y="21.27"/>
      <point x="234.44" y="-0.46" type="curve" smooth="yes"/>
      <point x="276.8" y="-22.19"/>
      <point x="325.31" y="-31.96"/>
      <point x="372.7" y="-27.48" type="curve" smooth="yes"/>
      <point x="412.76" y="-23.69"/>
      <point x="451.57" y="-10.06"/>
      <point x="486.61" y="9.73" type="curve" smooth="yes"/>
      <point x="521.65" y="29.52"/>
      <point x="553.17" y="55.14"/>
      <point x="581.7" y="83.52" type="curve" smooth="yes"/>
      <point x="627.47" y="129.05"/>
      <point x="666.49" y="181.72"/>
      <point x="694.2" y="240.02" type="curve" smooth="yes"/>
      <point x="721.21" y="296.85"/>
      <point x="736.5" y="359.53"/>
      <point x="735.94" y="422.44" type="curve" smooth="yes"/>
      <point x="735.37" y="485.36"/>
      <point x="718.96" y="548.13"/>
      <point x="688.2" y="603.02" type="curve" smooth="yes"/>
      <point x="647.62" y="675.44"/>
      <point x="582.02" y="733.55"/>
    </contour>
    <contour>
      <point x="200.97" y="251.23" type="curve"/>
      <point x="389.95" y="330.77" type="line"/>
      <point x="390.01" y="682.57" type="line"/>
      <point x="392.28" y="683.51" type="line"/>
      <point x="407.4" y="674.73"/>
      <point x="422.1" y="665.23"/>
      <point x="436.32" y="655.04" type="curve"/>
      <point x="436.32" y="463.87"/>
      <point x="436.32" y="272.71"/>
      <point x="436.32" y="81.54" type="curve"/>
      <point x="436.11" y="81.53"/>
      <point x="435.91" y="81.52"/>
      <point x="435.7" y="81.51" type="curve" smooth="yes"/>
      <point x="405.59" y="79.94"/>
      <point x="375.22" y="85.49"/>
      <point x="347.32" y="96.91" type="curve" smooth="yes"/>
      <point x="319.42" y="108.33"/>
      <point x="294.01" y="125.52"/>
      <point x="272.2" y="146.34" type="curve" smooth="yes"/>
      <point x="241.42" y="175.74"/>
      <point x="217.88" y="212.05"/>
    </contour>
    <contour>
      <point x="464.98" y="85.31" type="curve"/>
      <point x="464.98" y="148.78"/>
      <point x="464.98" y="212.26"/>
      <point x="464.98" y="275.73" type="curve"/>
      <point x="630.69" y="359.39" type="line"/>
      <point x="638.6" y="302.48"/>
      <point x="631.21" y="242.91"/>
      <point x="604.2" y="192.34" type="curve" smooth="yes"/>
      <point x="587.63" y="161.32"/>
      <point x="563.79" y="134.06"/>
      <point x="534.56" y="114.51" type="curve" smooth="yes"/>
      <point x="513.52" y="100.44"/>
      <point x="489.75" y="90.47"/>
    </contour>
    <contour>
      <point x="464.98" y="633.02" type="curve"/>
      <point x="496.72" y="606.9"/>
      <point x="525.47" y="577.16"/>
      <point x="550.2" y="544.34" type="curve" smooth="yes"/>
      <point x="566.12" y="523.21"/>
      <point x="580.4" y="500.73"/>
      <point x="592.47" y="477.16" type="curve"/>
      <point x="464.98" y="412.8" type="line"/>
      <point x="464.98" y="486.21"/>
      <point x="464.98" y="559.61"/>
    </contour>
    <contour>
      <point x="464.98" y="307.85" type="line"/>
      <point x="464.98" y="380.69" type="line"/>
      <point x="604.66" y="451.21" type="line"/>
      <point x="613.3" y="431.01"/>
      <point x="620.26" y="410.13"/>
      <point x="625.23" y="388.75" type="curve"/>
    </contour>
  </outline>
</glyph>
<glyph name="Odieresis" format="2">
  <advance width="754"/>
  <unicode hex="00D6"/>
  <note>
Odieresis
</note>
  <outline>
    <contour>
      <point x="319.45" y="1063.35" type="line"/>
      <point x="229.57" y="973.47" type="line"/>
      <point x="320.92" y="882.12" type="line"/>
      <point x="410.8" y="972" type="line"/>
    </contour>
    <contour>
      <point x="549.45" y="1063.35" type="line"/>
      <point x="459.57" y="973.47" type="line"/>
      <point x="550.92" y="882.12" type="line"/>
      <point x="640.8" y="972" type="line"/>
    </contour>
    <contour>
      <point x="198.52" y="603.05" type="curve"/>
      <point x="260.96" y="628.97" type="line"/>
      <point x="260.96" y="521.21"/>
      <point x="260.96" y="413.45"/>
      <point x="260.96" y="305.69" type="curve"/>
      <point x="191.28" y="276" type="line"/>
      <point x="190.23" y="278.97"/>
      <point x="189.22" y="281.96"/>
      <point x="188.24" y="284.95" type="curve" smooth="yes"/>
      <point x="171.29" y="336.82"/>
      <point x="164.42" y="391.8"/>
      <point x="166.2" y="446.34" type="curve" smooth="yes"/>
      <point x="167.95" y="499.91"/>
      <point x="178.32" y="553.49"/>
    </contour>
    <contour>
      <point x="505.21" y="765.01" type="curve"/>
      <point x="216.26" y="640.77" type="line"/>
      <point x="216.9" y="641.96"/>
      <point x="217.55" y="643.16"/>
      <point x="218.21" y="644.34" type="curve" smooth="yes"/>
      <point x="245.13" y="693.13"/>
      <point x="283.09" y="735.85"/>
      <point x="328.71" y="767.84" type="curve"/>
      <point x="314.21" y="786.34" type="line"/>
      <point x="221.06" y="748.54"/>
      <point x="142.52" y="676.47"/>
      <point x="95.71" y="587.51" type="curve" smooth="yes"/>
      <point x="55.25" y="510.61"/>
      <point x="37.92" y="422.17"/>
      <point x="43.31" y="335.45" type="curve" smooth="yes"/>
      <point x="48.7" y="248.73"/>
      <point x="76.04" y="162.37"/>
      <point x="127.71" y="92.51" type="curve" smooth="yes"/>
      <point x="156.02" y="54.24"/>
      <point x="192.09" y="21.26"/>
      <point x="234.45" y="-0.47" type="curve" smooth="yes"/>
      <point x="276.81" y="-22.2"/>
      <point x="325.32" y="-31.97"/>
      <point x="372.71" y="-27.49" type="curve" smooth="yes"/>
      <point x="412.77" y="-23.7"/>
      <point x="451.58" y="-10.07"/>
      <point x="486.62" y="9.72" type="curve" smooth="yes"/>
      <point x="521.66" y="29.51"/>
      <point x="553.18" y="55.13"/>
      <point x="581.71" y="83.51" type="curve" smooth="yes"/>
      <point x="627.48" y="129.04"/>
      <point x="666.5" y="181.71"/>
      <point x="694.21" y="240.01" type="curve" smooth="yes"/>
      <point x="721.22" y="296.84"/>
      <point x="736.51" y="359.52"/>
      <point x="735.95" y="422.43" type="curve" smooth="yes"/>
      <point x="735.38" y="485.35"/>
      <point x="718.97" y="548.12"/>
      <point x="688.21" y="603.01" type="curve" smooth="yes"/>
      <point x="647.63" y="675.43"/>
      <point x="582.03" y="733.54"/>
    </contour>
    <contour>
      <point x="200.98" y="251.22" type="curve"/>
      <point x="389.96" y="330.76" type="line"/>
      <point x="390.02" y="682.56" type="line"/>
      <point x="392.29" y="683.5" type="line"/>
      <point x="407.41" y="674.72"/>
      <point x="422.11" y="665.22"/>
      <point x="436.33" y="655.03" type="curve"/>
      <point x="436.33" y="463.86"/>
      <point x="436.33" y="272.7"/>
      <point x="436.33" y="81.53" type="curve"/>
      <point x="436.12" y="81.52"/>
      <point x="435.92" y="81.51"/>
      <point x="435.71" y="81.5" type="curve" smooth="yes"/>
      <point x="405.6" y="79.93"/>
      <point x="375.23" y="85.48"/>
      <point x="347.33" y="96.9" type="curve" smooth="yes"/>
      <point x="319.43" y="108.32"/>
      <point x="294.02" y="125.51"/>
      <point x="272.21" y="146.33" type="curve" smooth="yes"/>
      <point x="241.43" y="175.73"/>
      <point x="217.89" y="212.04"/>
    </contour>
    <contour>
      <point x="464.99" y="85.3" type="curve"/>
      <point x="464.99" y="148.77"/>
      <point x="464.99" y="212.25"/>
      <point x="464.99" y="275.72" type="curve"/>
      <point x="630.7" y="359.38" type="line"/>
      <point x="638.61" y="302.47"/>
      <point x="631.22" y="242.9"/>
      <point x="604.21" y="192.33" type="curve" smooth="yes"/>
      <point x="587.64" y="161.31"/>
      <point x="563.8" y="134.05"/>
      <point x="534.57" y="114.5" type="curve" smooth="yes"/>
      <point x="513.53" y="100.43"/>
      <point x="489.76" y="90.46"/>
    </contour>
    <contour>
      <point x="464.99" y="633.01" type="curve"/>
      <point x="496.73" y="606.89"/>
      <point x="525.48" y="577.15"/>
      <point x="550.21" y="544.33" type="curve" smooth="yes"/>
      <point x="566.13" y="523.2"/>
      <point x="580.41" y="500.72"/>
      <point x="592.48" y="477.15" type="curve"/>
      <point x="464.99" y="412.79" type="line"/>
      <point x="464.99" y="486.2"/>
      <point x="464.99" y="559.6"/>
    </contour>
    <contour>
      <point x="464.99" y="307.84" type="line"/>
      <point x="464.99" y="380.68" type="line"/>
      <point x="604.67" y="451.2" type="line"/>
      <point x="613.31" y="431"/>
      <point x="620.27" y="410.12"/>
      <point x="625.24" y="388.74" type="curve"/>
    </contour>
  </outline>
</glyph>
<glyph name="Ucircumflex" format="2">
  <advance width="836"/>
  <unicode hex="00DB"/>
  <note>
Ucircumflex
</note>
  <outline>
    <contour>
      <point x="310.78" y="831.93" type="line"/>
      <point x="328.74" y="813.79" type="line"/>
      <point x="430.74" y="914.79" type="line"/>
      <point x="539.24" y="813.79" type="line"/>
      <point x="612.71" y="892.71" type="line"/>
      <point x="488.72" y="1008.13" type="line"/>
    </contour>
    <contour>
      <point x="44.99" y="622.52" type="curve"/>
      <point x="68.51" y="622.5" type="line"/>
      <point x="71.95" y="634.47"/>
      <point x="78.82" y="645.42"/>
      <point x="88.07" y="653.77" type="curve" smooth="yes"/>
      <point x="97.31" y="662.12"/>
      <point x="108.85" y="667.81"/>
      <point x="121.01" y="670.5" type="curve" smooth="yes"/>
      <point x="141.53" y="675.04"/>
      <point x="162.99" y="670.96"/>
      <point x="183.06" y="664.71" type="curve" smooth="yes"/>
      <point x="203.13" y="658.46"/>
      <point x="222.78" y="650.46"/>
      <point x="243.51" y="647" type="curve" smooth="yes"/>
      <point x="265.4" y="643.35"/>
      <point x="288.41" y="645.29"/>
      <point x="308.88" y="653.66" type="curve"/>
      <point x="246.05" y="622.1"/>
      <point x="193" y="571.28"/>
      <point x="158.94" y="509.74" type="curve" smooth="yes"/>
      <point x="122.89" y="444.6"/>
      <point x="108.32" y="367.81"/>
      <point x="118" y="294" type="curve" smooth="yes"/>
      <point x="128.88" y="211.1"/>
      <point x="170.5" y="132.6"/>
      <point x="233.01" y="77.08" type="curve" smooth="yes"/>
      <point x="295.52" y="21.56"/>
      <point x="378.4" y="-10.5"/>
      <point x="462" y="-11.5" type="curve"/>
      <point x="616.85" y="94.39" type="line"/>
      <point x="729.19" y="-0.2" type="line"/>
      <point x="861.49" y="109" type="line"/>
      <point x="847.11" y="123.38" type="line"/>
      <point x="815.99" y="97" type="line"/>
      <point x="767.49" y="138.81" type="line"/>
      <point x="767.49" y="664.32" type="line"/>
      <point x="811.49" y="700" type="line"/>
      <point x="793.85" y="721.75" type="line"/>
      <point x="753.56" y="689.07" type="line"/>
      <point x="666.99" y="761" type="line"/>
      <point x="530.49" y="673.45" type="line"/>
      <point x="530.49" y="764.62" type="line"/>
      <point x="509.49" y="764" type="line"/>
      <point x="471.71" y="736.42"/>
      <point x="433.56" y="709.05"/>
      <point x="399.49" y="677" type="curve" smooth="yes"/>
      <point x="378.83" y="657.56"/>
      <point x="360.15" y="635.38"/>
      <point x="348.89" y="609.34" type="curve" smooth="yes"/>
      <point x="337.63" y="583.3"/>
      <point x="335.49" y="554.36"/>
      <point x="335.49" y="526" type="curve" smooth="yes"/>
      <point x="335.49" y="439" type="line"/>
      <point x="335.49" y="281.94" type="line"/>
      <point x="280.6" y="258.55" type="line"/>
      <point x="265.08" y="294.56"/>
      <point x="256.11" y="333.38"/>
      <point x="252.99" y="372.51" type="curve" smooth="yes"/>
      <point x="248" y="435.06"/>
      <point x="257.74" y="498.73"/>
      <point x="280.99" y="557.01" type="curve" smooth="yes"/>
      <point x="311.39" y="633.23"/>
      <point x="365.68" y="699.79"/>
      <point x="434.49" y="744.51" type="curve"/>
      <point x="410.99" y="768.01" type="line"/>
      <point x="407.63" y="765.36"/>
      <point x="404.26" y="762.73"/>
      <point x="400.87" y="760.14" type="curve" smooth="yes"/>
      <point x="387.35" y="749.79"/>
      <point x="373.43" y="739.53"/>
      <point x="357.5" y="733.52" type="curve" smooth="yes"/>
      <point x="345.88" y="729.14"/>
      <point x="333.32" y="727.28"/>
      <point x="320.93" y="728.16" type="curve" smooth="yes"/>
      <point x="308.54" y="729.04"/>
      <point x="296.47" y="732.54"/>
      <point x="284.91" y="737.09" type="curve" smooth="yes"/>
      <point x="273.36" y="741.64"/>
      <point x="262.22" y="747.19"/>
      <point x="250.73" y="751.91" type="curve" smooth="yes"/>
      <point x="239.25" y="756.63"/>
      <point x="227.31" y="760.49"/>
      <point x="214.99" y="762.02" type="curve" smooth="yes"/>
      <point x="200.66" y="763.8"/>
      <point x="185.96" y="762.33"/>
      <point x="172.25" y="757.79" type="curve" smooth="yes"/>
      <point x="158.55" y="753.25"/>
      <point x="145.91" y="745.85"/>
      <point x="134.49" y="737.02" type="curve" smooth="yes"/>
      <point x="95.93" y="707.2"/>
      <point x="68.57" y="665.18"/>
    </contour>
    <contour>
      <point x="501.83" y="726.57" type="curve"/>
      <point x="501.83" y="515.66"/>
      <point x="501.83" y="304.74"/>
      <point x="501.83" y="93.83" type="curve"/>
      <point x="461.88" y="96.41"/>
      <point x="422.55" y="108.91"/>
      <point x="388.5" y="130.02" type="curve" smooth="yes"/>
      <point x="347.77" y="155.26"/>
      <point x="314.81" y="192.26"/>
      <point x="292.2" y="234.51" type="curve"/>
      <point x="464.5" y="307.02" type="line"/>
      <point x="464.57" y="569.02" type="line"/>
      <point x="464.5" y="613.02" type="line" smooth="yes"/>
      <point x="464.46" y="638.81"/>
      <point x="465.53" y="665.26"/>
      <point x="475.55" y="689.03" type="curve" smooth="yes"/>
      <point x="481.53" y="703.21"/>
      <point x="490.56" y="716.12"/>
    </contour>
    <contour>
      <point x="628.48" y="476.17" type="line"/>
      <point x="530.49" y="426.69" type="line"/>
      <point x="530.49" y="499.34"/>
      <point x="530.49" y="571.98"/>
      <point x="530.49" y="644.63" type="curve"/>
      <point x="572.99" y="671.03" type="line"/>
      <point x="628.48" y="610.42" type="line"/>
    </contour>
    <contour>
      <point x="530.49" y="321.74" type="line"/>
      <point x="530.49" y="394.59" type="line"/>
      <point x="628.48" y="444.06" type="line"/>
      <point x="628.48" y="371.21" type="line"/>
    </contour>
    <contour>
      <point x="530.49" y="289.63" type="curve"/>
      <point x="628.48" y="339.1" type="line"/>
      <point x="628.48" y="149.61" type="line"/>
      <point x="545.49" y="95.03" type="line"/>
      <point x="540.5" y="94.43"/>
      <point x="535.5" y="93.99"/>
      <point x="530.49" y="93.71" type="curve"/>
      <point x="530.49" y="159.02"/>
      <point x="530.49" y="224.33"/>
    </contour>
  </outline>
</glyph>
<glyph name="Thorn" format="2">
  <advance width="699"/>
  <unicode hex="00DE"/>
  <note>
Thorn
</note>
  <outline>
    <contour>
      <point x="41.08" y="347.02" type="curve" smooth="yes"/>
      <point x="37.64" y="328.54"/>
      <point x="39.2" y="309.17"/>
      <point x="45.58" y="291.5" type="curve"/>
      <point x="68.58" y="291.5" type="line"/>
      <point x="68.53" y="292.62"/>
      <point x="68.52" y="293.75"/>
      <point x="68.54" y="294.88" type="curve" smooth="yes"/>
      <point x="68.73" y="304.88"/>
      <point x="71.79" y="315.06"/>
      <point x="78.42" y="322.55" type="curve" smooth="yes"/>
      <point x="82" y="326.59"/>
      <point x="86.52" y="329.75"/>
      <point x="91.47" y="331.9" type="curve" smooth="yes"/>
      <point x="96.42" y="334.05"/>
      <point x="101.74" y="335.23"/>
      <point x="107.1" y="335.84" type="curve" smooth="yes"/>
      <point x="117.83" y="337.07"/>
      <point x="139.44" y="336.51"/>
      <point x="139.44" y="336.51" type="curve"/>
      <point x="145.15" y="336.51"/>
      <point x="150.86" y="336.51"/>
      <point x="156.58" y="336.51" type="curve"/>
      <point x="156.58" y="169.59" type="line"/>
      <point x="97.63" y="138.98"/>
      <point x="47.29" y="91.61"/>
      <point x="15.01" y="33.51" type="curve"/>
      <point x="38.01" y="33.51" type="line"/>
      <point x="69.82" y="68.04"/>
      <point x="111.48" y="93.14"/>
      <point x="156.58" y="106.09" type="curve"/>
      <point x="156.58" y="-111.49" type="line"/>
      <point x="156.58" y="-111.49" type="line"/>
      <point x="297" y="-111.49" type="line"/>
      <point x="359.51" y="-111.49" type="line"/>
      <point x="359.51" y="-82.99" type="line"/>
      <point x="359.51" y="-82.99" type="line"/>
      <point x="359.51" y="-29.14"/>
      <point x="359.51" y="24.71"/>
      <point x="359.51" y="78.57" type="curve"/>
      <point x="373.4" y="70.16"/>
      <point x="386.49" y="60.44"/>
      <point x="398.51" y="49.51" type="curve"/>
      <point x="661" y="191.01" type="line"/>
      <point x="661" y="509.01" type="line"/>
      <point x="644.27" y="532.16"/>
      <point x="625.63" y="553.92"/>
      <point x="605.33" y="574.01" type="curve" smooth="yes"/>
      <point x="584.21" y="594.92"/>
      <point x="561.29" y="614.01"/>
      <point x="536.91" y="631.01" type="curve"/>
      <point x="359.5" y="501.71" type="line"/>
      <point x="359.5" y="580.16"/>
      <point x="359.5" y="658.6"/>
      <point x="359.5" y="737.05" type="curve"/>
      <point x="330.84" y="737.05" type="line"/>
      <point x="330.84" y="651.64"/>
      <point x="330.84" y="566.23"/>
      <point x="330.84" y="480.82" type="curve"/>
      <point x="296.99" y="456.15" type="line"/>
      <point x="296.99" y="474.01" type="line" smooth="yes"/>
      <point x="296.99" y="525.07"/>
      <point x="300.3" y="576.77"/>
      <point x="289.86" y="626.74" type="curve" smooth="yes"/>
      <point x="284.64" y="651.73"/>
      <point x="275.19" y="676.18"/>
      <point x="259.53" y="696.34" type="curve" smooth="yes"/>
      <point x="243.86" y="716.5"/>
      <point x="221.78" y="731.9"/>
      <point x="196.99" y="738.01" type="curve" smooth="yes"/>
      <point x="172.18" y="744.13"/>
      <point x="145.32" y="740.74"/>
      <point x="122.38" y="729.47" type="curve" smooth="yes"/>
      <point x="99.45" y="718.2"/>
      <point x="80.47" y="699.52"/>
      <point x="67.49" y="677.51" type="curve" smooth="yes"/>
      <point x="56" y="658.04"/>
      <point x="49.04" y="635.93"/>
      <point x="47.13" y="613.4" type="curve"/>
      <point x="71.07" y="613.4" type="line"/>
      <point x="72.57" y="621.73"/>
      <point x="75.58" y="629.79"/>
      <point x="79.99" y="637.01" type="curve" smooth="yes"/>
      <point x="86.55" y="647.74"/>
      <point x="96.58" y="656.76"/>
      <point x="108.71" y="660.07" type="curve" smooth="yes"/>
      <point x="114.78" y="661.72"/>
      <point x="121.27" y="661.88"/>
      <point x="127.36" y="660.33" type="curve" smooth="yes"/>
      <point x="133.45" y="658.77"/>
      <point x="139.08" y="655.49"/>
      <point x="143.49" y="651.02" type="curve" smooth="yes"/>
      <point x="149.59" y="644.83"/>
      <point x="153.21" y="636.52"/>
      <point x="154.9" y="627.99" type="curve" smooth="yes"/>
      <point x="156.59" y="619.47"/>
      <point x="156.57" y="610.71"/>
      <point x="156.57" y="602.02" type="curve" smooth="yes"/>
      <point x="156.57" y="436.57" type="line"/>
      <point x="138.98" y="437.38"/>
      <point x="121.19" y="434.14"/>
      <point x="105.08" y="427.02" type="curve" smooth="yes"/>
      <point x="88.83" y="419.84"/>
      <point x="74.3" y="408.77"/>
      <point x="63.17" y="394.93" type="curve" smooth="yes"/>
      <point x="52.04" y="381.09"/>
      <point x="44.34" y="364.49"/>
    </contour>
    <contour>
      <point x="521.72" y="454.71" type="curve"/>
      <point x="359.5" y="372.81" type="line"/>
      <point x="359.5" y="470.53" type="line"/>
      <point x="439.41" y="526.97" type="line"/>
      <point x="455.14" y="515.59"/>
      <point x="470.31" y="503.42"/>
      <point x="484.83" y="490.52" type="curve" smooth="yes"/>
      <point x="497.65" y="479.13"/>
      <point x="509.96" y="467.18"/>
    </contour>
    <contour>
      <point x="359.51" y="267.85" type="line"/>
      <point x="359.51" y="340.71" type="line"/>
      <point x="533.33" y="428.46" type="line"/>
      <point x="533.33" y="355.61" type="line"/>
    </contour>
    <contour>
      <point x="359.51" y="204.24" type="curve"/>
      <point x="359.51" y="235.74" type="line"/>
      <point x="533.33" y="323.49" type="line"/>
      <point x="533.33" y="155.51" type="line"/>
      <point x="511.33" y="142.51" type="line"/>
      <point x="466.78" y="175.08"/>
      <point x="414.09" y="196.26"/>
    </contour>
    <contour>
      <point x="297" y="426.36" type="line"/>
      <point x="330.85" y="450.27" type="line"/>
      <point x="330.85" y="369.25"/>
      <point x="330.85" y="288.22"/>
      <point x="330.85" y="207.2" type="curve"/>
      <point x="319.58" y="207.88"/>
      <point x="308.28" y="208"/>
      <point x="297" y="207.53" type="curve"/>
    </contour>
    <contour>
      <point x="330.85" y="93.55" type="curve"/>
      <point x="330.85" y="34.7"/>
      <point x="330.85" y="-24.15"/>
      <point x="330.85" y="-83.01" type="curve"/>
      <point x="297" y="-83.01" type="line"/>
      <point x="297" y="105.94" type="line"/>
      <point x="308.55" y="102.6"/>
      <point x="319.87" y="98.45"/>
    </contour>
  </outline>
</glyph>
<glyph name="ecircumflex" format="2">
  <advance width="406"/>
  <unicode hex="00EA"/>
  <note>
ecircumflex
</note>
  <outline>
    <contour>
      <point x="65.58" y="575.93" type="line"/>
      <point x="83.54" y="557.79" type="line"/>
      <point x="185.54" y="658.79" type="line"/>
      <point x="294.04" y="557.79" type="line"/>
      <point x="367.51" y="636.71" type="line"/>
      <point x="243.52" y="752.13" type="line"/>
    </contour>
    <contour>
      <point x="6.81" y="86.26" type="line"/>
      <point x="24.44" y="64.51" type="line"/>
      <point x="68.7" y="100.4" type="line"/>
      <point x="217.07" y="-9.79" type="line"/>
      <point x="423.19" y="157.98" type="line"/>
      <point x="408.81" y="181.95" type="line"/>
      <point x="298.56" y="95.67" type="line"/>
      <point x="178.72" y="177.16" type="line"/>
      <point x="178.72" y="220.3" type="line"/>
      <point x="394.43" y="354.52" type="line"/>
      <point x="394.43" y="359.31" type="line"/>
      <point x="293.77" y="512.7" type="line"/>
      <point x="54.1" y="388.07" type="line"/>
      <point x="54.1" y="124.61" type="line"/>
    </contour>
    <contour>
      <point x="284.18" y="311.37" type="line"/>
      <point x="178.73" y="244.68" type="line"/>
      <point x="178.73" y="425.21" type="line"/>
      <point x="197.9" y="436" type="line"/>
    </contour>
  </outline>
</glyph>
<glyph name="edieresis" format="2">
  <advance width="406"/>
  <unicode hex="00EB"/>
  <note>
edieresis
</note>
  <outline>
    <contour>
      <point x="117.56" y="779.35" type="line"/>
      <point x="27.68" y="689.47" type="line"/>
      <point x="119.03" y="598.12" type="line"/>
      <point x="208.91" y="688" type="line"/>
    </contour>
    <contour>
      <point x="347.56" y="779.35" type="line"/>
      <point x="257.68" y="689.47" type="line"/>
      <point x="349.03" y="598.12" type="line"/>
      <point x="438.91" y="688" type="line"/>
    </contour>
    <contour>
      <point x="6.81" y="86.26" type="line"/>
      <point x="24.44" y="64.51" type="line"/>
      <point x="68.7" y="100.4" type="line"/>
      <point x="217.07" y="-9.79" type="line"/>
      <point x="423.19" y="157.98" type="line"/>
      <point x="408.81" y="181.95" type="line"/>
      <point x="298.56" y="95.67" type="line"/>
      <point x="178.72" y="177.16" type="line"/>
      <point x="178.72" y="220.3" type="line"/>
      <point x="394.43" y="354.52" type="line"/>
      <point x="394.43" y="359.31" type="line"/>
      <point x="293.77" y="512.7" type="line"/>
      <point x="54.1" y="388.07" type="line"/>
      <point x="54.1" y="124.61" type="line"/>
    </contour>
    <contour>
      <point x="284.18" y="311.37" type="line"/>
      <point x="178.73" y="244.68" type="line"/>
      <point x="178.73" y="425.21" type="line"/>
      <point x="197.9" y="436" type="line"/>
    </contour>
  </outline>
</glyph>
<glyph name="ntilde" format="2">
  <advance width="557"/>
  <unicode hex="00F1"/>
  <note>
ntilde
</note>
  <outline>
    <contour>
      <point x="95.03" y="588.63" type="curve"/>
      <point x="120.2" y="575.18" type="line"/>
      <point x="128.13" y="582.81"/>
      <point x="136.94" y="589.38"/>
      <point x="146.36" y="594.62" type="curve" smooth="yes"/>
      <point x="155.22" y="599.55"/>
      <point x="164.64" y="603.3"/>
      <point x="174.35" y="605.63" type="curve" smooth="yes"/>
      <point x="196.92" y="611.04"/>
      <point x="220.58" y="608.03"/>
      <point x="242.65" y="600.86" type="curve" smooth="yes"/>
      <point x="264.72" y="593.7"/>
      <point x="285.7" y="583.05"/>
      <point x="307.68" y="575.58" type="curve" smooth="yes"/>
      <point x="326.15" y="569.3"/>
      <point x="345.42" y="565.35"/>
      <point x="364.81" y="565.64" type="curve" smooth="yes"/>
      <point x="384.2" y="565.93"/>
      <point x="403.55" y="570.43"/>
      <point x="421.39" y="578.79" type="curve" smooth="yes"/>
      <point x="443.06" y="588.94"/>
      <point x="462.44" y="604.59"/>
      <point x="478.37" y="623.51" type="curve" smooth="yes"/>
      <point x="490.16" y="637.51"/>
      <point x="500.11" y="653.32"/>
      <point x="507.91" y="670.28" type="curve"/>
      <point x="482.75" y="683.72" type="line"/>
      <point x="477.23" y="673.78"/>
      <point x="469.41" y="665.37"/>
      <point x="460.27" y="659.34" type="curve" smooth="yes"/>
      <point x="451.73" y="653.71"/>
      <point x="442.11" y="650.15"/>
      <point x="432.27" y="648.33" type="curve" smooth="yes"/>
      <point x="413.73" y="644.9"/>
      <point x="394.68" y="647.39"/>
      <point x="376.42" y="652.03" type="curve" smooth="yes"/>
      <point x="358.16" y="656.67"/>
      <point x="340.46" y="663.52"/>
      <point x="322.68" y="669.95" type="curve" smooth="yes"/>
      <point x="300.4" y="678.01"/>
      <point x="277.69" y="685.44"/>
      <point x="254.24" y="687.44" type="curve" smooth="yes"/>
      <point x="230.79" y="689.44"/>
      <point x="206.79" y="685.56"/>
      <point x="185.23" y="675.17" type="curve" smooth="yes"/>
      <point x="163.69" y="664.79"/>
      <point x="144.91" y="648.55"/>
      <point x="128.25" y="630.45" type="curve" smooth="yes"/>
      <point x="116.26" y="617.41"/>
      <point x="105.21" y="603.36"/>
    </contour>
    <contour>
      <point x="556.24" y="86.1" type="line"/>
      <point x="537.07" y="114.85" type="line"/>
      <point x="498.72" y="86.09" type="line"/>
      <point x="455.58" y="124.44" type="line"/>
      <point x="455.58" y="385.75" type="line"/>
      <point x="504" y="425.02" type="line"/>
      <point x="486.36" y="446.77" type="line"/>
      <point x="444.23" y="412.6" type="line"/>
      <point x="330.95" y="509.92" type="line"/>
      <point x="221.03" y="423.99" type="line"/>
      <point x="144" y="509.92" type="line"/>
      <point x="4.99" y="414.05" type="line"/>
      <point x="19.37" y="394.88" type="line"/>
      <point x="57.72" y="418.85" type="line"/>
      <point x="96.07" y="375.71" type="line"/>
      <point x="96.07" y="110.07" type="line"/>
      <point x="57.72" y="76.52" type="line"/>
      <point x="172.76" y="-14.56" type="line"/>
      <point x="268.63" y="71.72" type="line"/>
      <point x="225.49" y="110.07" type="line"/>
      <point x="225.49" y="384.62" type="line"/>
      <point x="268.63" y="418.85" type="line"/>
      <point x="340.53" y="356.54" type="line"/>
      <point x="340.53" y="110.07" type="line"/>
      <point x="306.98" y="76.52" type="line"/>
      <point x="407.64" y="-14.56" type="line"/>
    </contour>
  </outline>
</glyph>
